<?xml version="1.0" encoding="iso-8859-1"?>
<!-- Generator: Adobe Illustrator 15.0.2, SVG Export Plug-In . SVG Version: 6.00 Build 0)  -->
<!DOCTYPE svg PUBLIC "-//W3C//DTD SVG 1.1//EN" "http://www.w3.org/Graphics/SVG/1.1/DTD/svg11.dtd">
<svg version="1.1" id="Layer_1" xmlns="http://www.w3.org/2000/svg" xmlns:xlink="http://www.w3.org/1999/xlink" x="0px" y="0px"
	 width="144px" height="144px" viewBox="0 0 144 144" style="enable-background:new 0 0 144 144;" xml:space="preserve">
<path d="M122.631,69.716l-4.394-2.72c-0.037-0.428-0.079-0.855-0.125-1.28l3.776-3.522c0.384-0.358,0.556-0.888,0.452-1.401
	c-0.101-0.515-0.462-0.939-0.953-1.122l-4.827-1.805c-0.121-0.418-0.248-0.833-0.378-1.246l3.011-4.182
	c0.307-0.425,0.37-0.978,0.17-1.463c-0.2-0.483-0.637-0.829-1.154-0.914l-5.09-0.828c-0.198-0.386-0.404-0.766-0.612-1.143
	l2.139-4.695c0.219-0.478,0.174-1.034-0.118-1.468c-0.291-0.436-0.784-0.691-1.31-0.671l-5.166,0.18
	c-0.267-0.334-0.539-0.665-0.816-0.99l1.187-5.032c0.12-0.511-0.031-1.046-0.403-1.417c-0.369-0.37-0.905-0.523-1.416-0.403
	l-5.031,1.186c-0.326-0.276-0.657-0.549-0.992-0.816l0.181-5.166c0.02-0.523-0.235-1.02-0.671-1.31
	c-0.437-0.292-0.99-0.336-1.467-0.119l-4.694,2.14c-0.379-0.208-0.759-0.414-1.143-0.613l-0.83-5.091
	c-0.084-0.516-0.43-0.954-0.914-1.154c-0.483-0.201-1.037-0.136-1.462,0.17l-4.185,3.011c-0.412-0.131-0.826-0.257-1.244-0.377
	l-1.805-4.828c-0.183-0.492-0.607-0.853-1.122-0.955c-0.514-0.101-1.043,0.07-1.4,0.452l-3.522,3.779
	c-0.425-0.047-0.853-0.09-1.28-0.125l-2.72-4.395c-0.275-0.445-0.762-0.716-1.286-0.716s-1.011,0.271-1.285,0.716l-2.72,4.395
	c-0.428,0.035-0.856,0.078-1.281,0.125l-3.523-3.779c-0.357-0.382-0.887-0.553-1.4-0.452c-0.515,0.103-0.939,0.463-1.122,0.955
	l-1.805,4.828c-0.418,0.12-0.832,0.247-1.245,0.377l-4.184-3.011c-0.425-0.307-0.979-0.372-1.463-0.17
	c-0.483,0.2-0.83,0.638-0.914,1.154l-0.83,5.091c-0.384,0.199-0.764,0.404-1.143,0.613l-4.694-2.14
	c-0.477-0.218-1.033-0.173-1.467,0.119c-0.436,0.29-0.691,0.787-0.671,1.31l0.18,5.166c-0.334,0.267-0.665,0.54-0.992,0.816
	l-5.031-1.186c-0.511-0.119-1.047,0.033-1.417,0.403c-0.372,0.371-0.523,0.906-0.403,1.417l1.185,5.032
	c-0.275,0.326-0.547,0.656-0.814,0.99l-5.166-0.18c-0.521-0.015-1.019,0.235-1.31,0.671c-0.292,0.434-0.336,0.99-0.119,1.468
	l2.14,4.695c-0.208,0.377-0.414,0.757-0.613,1.143l-5.09,0.828c-0.517,0.084-0.953,0.43-1.154,0.914
	c-0.2,0.485-0.135,1.038,0.17,1.463l3.011,4.182c-0.131,0.413-0.258,0.828-0.378,1.246l-4.828,1.805
	c-0.49,0.183-0.851,0.607-0.953,1.122c-0.102,0.514,0.069,1.043,0.452,1.401l3.777,3.522c-0.047,0.425-0.089,0.853-0.125,1.28
	l-4.394,2.72c-0.445,0.275-0.716,0.761-0.716,1.286s0.271,1.011,0.716,1.285l4.394,2.72c0.036,0.428,0.078,0.855,0.125,1.28
	l-3.777,3.523c-0.383,0.357-0.554,0.887-0.452,1.4c0.102,0.515,0.463,0.938,0.953,1.122l4.828,1.805
	c0.12,0.418,0.247,0.833,0.378,1.246l-3.011,4.183c-0.306,0.426-0.371,0.979-0.17,1.462c0.201,0.485,0.638,0.831,1.155,0.914
	l5.089,0.828c0.199,0.386,0.403,0.766,0.613,1.145l-2.14,4.693c-0.218,0.477-0.173,1.032,0.119,1.468
	c0.292,0.437,0.789,0.692,1.31,0.671l5.164-0.181c0.269,0.336,0.54,0.665,0.816,0.992l-1.185,5.033
	c-0.12,0.51,0.031,1.043,0.403,1.414c0.369,0.373,0.906,0.522,1.417,0.402l5.031-1.185c0.327,0.278,0.658,0.548,0.992,0.814
	l-0.18,5.167c-0.02,0.523,0.235,1.019,0.671,1.311c0.434,0.291,0.99,0.335,1.467,0.117l4.694-2.139
	c0.378,0.21,0.758,0.414,1.143,0.613l0.83,5.088c0.084,0.518,0.43,0.956,0.914,1.155c0.483,0.201,1.038,0.136,1.463-0.169
	l4.182-3.013c0.413,0.131,0.828,0.259,1.246,0.379l1.805,4.826c0.183,0.49,0.607,0.853,1.122,0.953
	c0.514,0.104,1.043-0.068,1.4-0.452l3.523-3.777c0.425,0.049,0.853,0.09,1.281,0.128l2.72,4.394
	c0.274,0.443,0.761,0.716,1.285,0.716s1.011-0.272,1.286-0.716l2.72-4.394c0.428-0.038,0.855-0.079,1.28-0.128l3.522,3.777
	c0.357,0.384,0.887,0.556,1.4,0.452c0.515-0.101,0.939-0.463,1.122-0.953l1.805-4.826c0.418-0.12,0.833-0.248,1.246-0.379
	l4.183,3.013c0.425,0.305,0.979,0.37,1.462,0.169c0.484-0.199,0.83-0.638,0.914-1.155l0.83-5.088
	c0.384-0.199,0.764-0.406,1.143-0.613l4.694,2.139c0.477,0.218,1.032,0.174,1.467-0.117c0.436-0.292,0.69-0.787,0.671-1.311
	l-0.18-5.167c0.334-0.267,0.665-0.536,0.991-0.814l5.031,1.185c0.511,0.12,1.047-0.029,1.416-0.402
	c0.372-0.371,0.523-0.904,0.403-1.414l-1.185-5.033c0.276-0.327,0.548-0.656,0.814-0.992l5.166,0.181
	c0.521,0.021,1.019-0.234,1.31-0.671c0.292-0.436,0.337-0.991,0.118-1.468l-2.139-4.693c0.209-0.379,0.414-0.759,0.612-1.145
	l5.09-0.828c0.518-0.083,0.954-0.429,1.154-0.914c0.2-0.483,0.137-1.036-0.17-1.462l-3.011-4.183
	c0.13-0.413,0.257-0.828,0.378-1.246l4.827-1.805c0.491-0.184,0.853-0.607,0.953-1.122c0.104-0.514-0.068-1.043-0.452-1.4
	l-3.776-3.523c0.046-0.425,0.088-0.853,0.125-1.28l4.394-2.72c0.445-0.274,0.716-0.761,0.716-1.285S123.076,69.991,122.631,69.716z
	 M93.222,106.167c-1.678-0.362-2.745-2.016-2.385-3.699c0.359-1.681,2.012-2.751,3.689-2.389c1.678,0.359,2.747,2.016,2.387,3.696
	S94.899,106.526,93.222,106.167z M91.729,96.069c-1.531-0.328-3.037,0.646-3.365,2.18l-1.56,7.28
	c-4.814,2.185-10.16,3.399-15.79,3.399c-5.759,0-11.221-1.274-16.121-3.552l-1.559-7.28c-0.328-1.532-1.834-2.508-3.364-2.179
	l-6.427,1.38c-1.193-1.228-2.303-2.536-3.323-3.917h31.272c0.354,0,0.59-0.064,0.59-0.386V81.932c0-0.322-0.236-0.386-0.59-0.386
	h-9.146v-7.012h9.892c0.903,0,4.828,0.258,6.083,5.275c0.393,1.543,1.256,6.562,1.846,8.169c0.588,1.802,2.982,5.402,5.533,5.402
	h15.583c0.177,0,0.366-0.02,0.565-0.056c-1.081,1.469-2.267,2.859-3.544,4.158L91.729,96.069z M48.477,106.015
	c-1.678,0.362-3.33-0.708-3.691-2.389c-0.359-1.684,0.708-3.337,2.386-3.699c1.678-0.359,3.331,0.711,3.691,2.392
	C51.222,103.999,50.154,105.655,48.477,106.015z M36.614,57.91c0.696,1.571-0.012,3.412-1.581,4.107
	c-1.569,0.697-3.405-0.012-4.101-1.584c-0.696-1.572,0.012-3.41,1.581-4.107C34.083,55.63,35.918,56.338,36.614,57.91z
	 M32.968,66.553l6.695-2.975c1.43-0.635,2.076-2.311,1.441-3.744l-1.379-3.118h5.423V81.16H34.207
	c-0.949-3.336-1.458-6.857-1.458-10.496C32.749,69.275,32.824,67.902,32.968,66.553z M62.348,64.179v-7.205h12.914
	c0.667,0,4.71,0.771,4.71,3.794c0,2.51-3.101,3.41-5.651,3.41H62.348z M109.28,70.664c0,0.956-0.035,1.902-0.105,2.841h-3.926
	c-0.393,0-0.551,0.258-0.551,0.643v1.803c0,4.244-2.393,5.167-4.49,5.402c-1.997,0.225-4.211-0.836-4.484-2.058
	c-1.178-6.626-3.141-8.041-6.241-10.486c3.847-2.443,7.85-6.047,7.85-10.871c0-5.209-3.571-8.49-6.005-10.099
	c-3.415-2.251-7.196-2.702-8.216-2.702H42.509c5.506-6.145,12.968-10.498,21.408-12.082l4.786,5.021
	c1.082,1.133,2.874,1.175,4.006,0.092l5.355-5.122c11.221,2.089,20.721,9.074,26.196,18.657l-3.666,8.28
	c-0.633,1.433,0.013,3.109,1.442,3.744l7.058,3.135C109.216,68.115,109.28,69.381,109.28,70.664z M68.705,28.784
	c1.24-1.188,3.207-1.141,4.394,0.101c1.185,1.245,1.14,3.214-0.103,4.401c-1.24,1.188-3.207,1.142-4.394-0.102
	C67.418,31.941,67.463,29.972,68.705,28.784z M105.085,58.061c0.695-1.571,2.531-2.28,4.1-1.583
	c1.569,0.696,2.277,2.536,1.581,4.107c-0.695,1.572-2.531,2.281-4.101,1.584C105.098,61.473,104.39,59.634,105.085,58.061z"/>
</svg>
