<?xml version="1.0" encoding="utf-8"?>
<!-- Generator: Adobe Illustrator 18.0.0, SVG Export Plug-In . SVG Version: 6.00 Build 0)  -->
<!DOCTYPE svg PUBLIC "-//W3C//DTD SVG 1.1//EN" "http://www.w3.org/Graphics/SVG/1.1/DTD/svg11.dtd">
<svg version="1.1" id="Layer_1" xmlns="http://www.w3.org/2000/svg" xmlns:xlink="http://www.w3.org/1999/xlink" x="0px" y="0px"
	 viewBox="0 0 570.3 208.7" enable-background="new 0 0 570.3 208.7" xml:space="preserve">
<g>
	<g>
		<path fill="#C6C6C6" d="M271.1,63.8c0-1.5-0.5-1.9-2-1.9c-8.9,0.1-17.9,0.1-26.8,0c-1.5,0-2,0.4-2,1.9c-0.2,4.9-0.5,9.9-0.8,15.3
			c-1.7-2.2-3-4.1-4.6-5.7c-8.9-9.3-20.1-13.6-32.7-14.5c-7.2-0.5-14.4,0-21.4,1.6c-18,4-31.8,13.1-40.3,28c-2,3.5-3.7,7.3-5.1,11.4
			c-6,17.7-5.6,35.8-0.1,53.6c3.5,11.1,9.6,20.5,18.5,27.5c1.5,1.2,3.1,2.3,4.7,3.4c15.1,9.5,31.6,12.4,49,9.2
			c10-1.8,19-6.2,26.3-13.5c2.1-2.1,3.7-4.7,5.6-7.6c0.5,5.7,0.9,10.9,1.2,16.1c0.1,1.7,0.6,2.3,2.4,2.3c8.7-0.1,17.3-0.1,26,0
			c1.5,0,1.9-0.4,1.9-1.9c0-18,0-36,0-54c0-20.5,0-41,0-61.5C271.1,70.2,271.1,67,271.1,63.8z M238.1,119.6
			c1.5,8.6,0.9,16.7-2.3,24.4c-1,2.3-2.1,4.6-3.5,6.8c-5.5,8.6-13.4,13.6-23.4,15.3c-10.6,1.8-20.6,0.3-29.7-5.8
			c-0.6-0.4-1.1-0.8-1.7-1.2c-8.1-6.1-12.5-14.5-13.9-24.7c-1.2-9.1-0.4-18,3.9-26.3c2.8-5.4,6.5-9.6,10.9-12.7
			c4.5-3.1,9.8-5.2,15.8-6.2c0.9-0.1,1.7-0.3,2.6-0.4c1.5-0.1,3,0,4.4,0c10.8-0.2,20.2,3.3,27.6,11.3c2,2.2,3.7,4.6,5.1,7.2
			C236,111.2,237.3,115.3,238.1,119.6z"/>
		<path fill="#C6C6C6" d="M334.5,126c0-6.2,0-12.4,0-18.6c0-14.6,0-29.1,0-43.7c0-1.7-0.3-2.5-2.3-2.4c-9.3,0.1-18.6,0.1-27.8,0
			c-1.5,0-1.9,0.4-1.9,1.9c0,9,0,18,0,27c0,27.4,0,54.8,0,82.3c0,5.5,0,10.9,0,16.4c0,1.6,0.5,2,2,2c9.2-0.1,18.4-0.1,27.6,0
			c1.8,0,2.4-0.5,2.4-2.3c0-11,0-21.9,0-32.9C334.5,145.7,334.5,135.8,334.5,126z"/>
		<path fill="#C6C6C6" d="M569.7,109.9c0-0.5-0.1-0.9-0.2-1.4c-3.1-25.9-15.8-41.8-37.5-47c-2.3-0.5-4.7-1-7.1-1.3
			c-3.2-0.4-6.5-0.6-9.9-0.6c-19.1,0-32.8,7.2-42.9,22.6c-9-20.1-27.7-23.1-38.2-23.1c-4.9,0-19.3,0.9-29.1,10.7
			c-1.6,1.6-3.1,3.4-4.4,5.5l-1-6.7l-1-6.7c-0.1-0.4-0.4-0.7-0.8-0.7h-29.5c-0.4,0-0.8,0.3-0.8,0.8v128.8c0,0.4,0.3,0.8,0.8,0.8
			h31.8c0.4,0,0.8-0.3,0.8-0.8v-27.7v-41.2c0-8.3,2.5-16.6,7.5-22.6c4.4-5.4,10.8-9,19.1-9c16.9,0,24.9,14.5,25.5,29.6
			c0,0.7,0,1.3,0,2v19.9v48.9c0,0.4,0.3,0.8,0.8,0.8h2.1h29.7c0.4,0,0.8-0.3,0.8-0.8v-17.1v-34.1v-17.6c0-15.2,7.6-25,17-29
			c3.2-1.4,6.7-2.1,10.1-2.1c0.5,0,0.9,0,1.4,0.1c6.9,0.3,12.4,3.3,16.2,8.5c3.8,5.2,5.9,12.7,5.9,21.9v56.8v12.6
			c0,0.4,0.3,0.8,0.8,0.8h31.8c0.4,0,0.8-0.3,0.8-0.8v-69.4C570.3,117.4,570.1,113.5,569.7,109.9z"/>
	</g>
	<g>
		<g>
			<polygon fill="#059DD9" points="0,39.7 0.1,63.4 25.2,51.6 9.9,35.2 			"/>
			<polygon fill="#342E7D" points="45.3,18.9 86.6,38.3 45.1,72.9 31.3,58.1 31.3,48.7 25.2,51.6 9.9,35.2 			"/>
			<polygon fill="#E20A74" points="86.5,0 86.6,38.3 45.3,18.9 			"/>
			<polygon fill="#A02381" points="70.9,100.4 45.1,72.9 86.6,38.3 86.5,77.1 			"/>
			<polygon fill="#ED7B23" points="31.3,159.6 70.9,100.4 45.1,72.9 31.3,84.8 			"/>
			<polygon fill="#FFE814" points="31.3,177.3 86.6,117.4 70.9,100.4 31.3,159.6 			"/>
			<polygon fill="#98BD35" points="86.5,182.3 86.6,117.4 31.3,177.3 			"/>
			<polygon fill="#019447" points="31.3,208.7 86.5,182.3 31.3,177.3 			"/>
			<polygon fill="#E22432" points="86.6,117.4 70.9,100.4 86.5,77.1 			"/>
			<polygon fill="#059DD9" points="31.3,58.1 31.3,84.8 45.1,72.9 			"/>
		</g>
	</g>
</g>
</svg>
