<svg id="Layer_1" data-name="Layer 1" xmlns="http://www.w3.org/2000/svg" viewBox="0 0 600 228"><title>3dr</title><polygon points="0 0 0 55.2 55.2 0 0 0"/><polygon points="434.4 228 489.6 228 434.4 172.8 434.4 228"/><path d="M545.6,272.4c40.8,0,74.4-32.4,74.4-73.2S586.4,126,545.6,126H453.2v36h92.4c20.4,0,37.2,16.8,37.2,36s-16.8,36-37.2,36H453.2L566,352.8h51.6l-82.8-81.6h10.8v1.2h0Z" transform="translate(-20 -126)"/><path d="M122,207.6H111.2L194,126H141.2L58.4,207.6l-37.2,36h99.6c20.4,0,37.2,16.8,37.2,36s-16.8,36-37.2,36H20v36H122c40.8,0,74.4-32.4,74.4-73.2S161.6,207.6,122,207.6Z" transform="translate(-20 -126)"/><path d="M297.2,126H224v36h74.4a77.84,77.84,0,0,1,78,78c0,43.2-36,78-79.2,78H260V226.8H222.8V354h74.4c63.6,0,115.2-51.6,115.2-114S360.8,126,297.2,126Z" transform="translate(-20 -126)"/></svg>