<?xml version="1.0" encoding="utf-8"?>
<!-- Generator: Adobe Illustrator 18.0.0, SVG Export Plug-In . SVG Version: 6.00 Build 0)  -->
<!DOCTYPE svg PUBLIC "-//W3C//DTD SVG 1.1//EN" "http://www.w3.org/Graphics/SVG/1.1/DTD/svg11.dtd">
<svg version="1.1" id="Layer_1" xmlns="http://www.w3.org/2000/svg" xmlns:xlink="http://www.w3.org/1999/xlink" x="0px" y="0px"
	 viewBox="127.4 141 145.2 18" enable-background="new 127.4 141 145.2 18" xml:space="preserve">
<g>
	<path fill="#41454A" d="M155.7,157.8c-3.2,0-5-3.5-5-8.1c0-4.2,1.4-7.6,4.7-7.6c2.4,0,3.8,1.6,4.4,4.5h1.1v-4.2
		c-1.4-0.9-3.3-1.4-5.5-1.4c-5,0-9.1,3.7-9.1,9.4c0,5.2,3.5,8.6,9,8.6c2.4,0,4.5-0.6,5.9-1.6l0.4-4.8h-1.1
		C159.6,156.3,157.9,157.8,155.7,157.8z"/>
	<path fill="#41454A" d="M180.1,156.9l-6.3-15.8h-4.5l0.8,2l-5.3,13.8c-0.2,0.7-0.8,0.8-1.4,0.9v0.9h5.2v-0.9l0,0l0,0l0,0l0,0
		c-1.4-0.1-2.2-0.3-1.6-1.8c0.1-0.1,0.5-1.2,1-2.6h6.4l0.9,2.3c0.1,0.4,0.2,0.7,0.2,1c0,0.8-0.7,1.1-2,1.1v0.9h8.2v-0.9
		C180.8,157.7,180.3,157.5,180.1,156.9z M168.5,151.7c1-2.5,2.1-5.4,2.5-6.5l2.6,6.5H168.5z"/>
	<path fill="#41454A" d="M191.3,141.2h-7.9v0.9c1.7,0.2,1.9,0.4,1.9,1.7V156c0,1.3-0.2,1.5-1.9,1.7v0.9h8.4c5.5,0,9.3-3.3,9.3-9
		C201.2,145,198,141.2,191.3,141.2z M191.7,157.7h-0.3c-1.2,0-1.8-0.3-1.8-1.8v-13.6h1c4.1,0,6.2,3.3,6.2,7.9
		C196.7,154.8,194.7,157.7,191.7,157.7z"/>
	<path fill="#41454A" d="M212.4,157.7h-1.2c-1.5,0-2.1-0.4-2.1-1.7v-5.7h2.8c1.1,0,1.5,0.6,1.7,2.3h1v-5.8h-1
		c-0.2,1.6-0.6,2.3-1.7,2.3h-2.8v-6.8h3.1c2.1,0,2.8,0.8,4.1,3.6h0.8l-0.1-4.7h-14v0.9c1.7,0.2,1.9,0.4,1.9,1.7V156
		c0,1.3-0.2,1.5-1.9,1.7v0.9h14.2l0.8-5.2h-1C215.2,156.6,214.5,157.7,212.4,157.7z"/>
	<path fill="#41454A" d="M240.6,156.3l-1.5-12.3c0-1.3,0.5-1.7,2.1-1.8v-1h-6.1c0,0.3-0.1,0.5-0.1,0.7l-0.3,0.8l-3.6,10.3l-3.8-10.2
		c-0.2-0.5-0.4-1-0.4-1.5h-6.3v0.9c1.6,0.1,2.1,0.5,2.1,1.8l-1.6,12.3c-0.1,1.1-0.6,1.4-2.1,1.5v0.9h5.9v-0.9c-0.4,0-0.7-0.1-1-0.1
		c-0.6-0.2-1.3-0.8-1.1-2.3c0.2-1.9,0.9-7.2,1.2-9.3l4.7,12.7h2l4.3-12.5l1.2,9.3c0,0.1,0,0.2,0,0.3v0.3c0,1.2-0.6,1.5-2.4,1.6v0.9
		h8.8v-0.9C241.3,157.7,240.8,157.5,240.6,156.3z"/>
	<path fill="#41454A" d="M244.7,142.2c1.7,0.2,1.9,0.4,1.9,1.7v12.2c0,1.3-0.2,1.5-1.9,1.7v0.9h8.1v-0.9c-1.7-0.2-1.9-0.4-1.9-1.7
		v-12.2c0-1.3,0.2-1.5,1.9-1.7v-1h-8.1V142.2z"/>
	<path fill="#41454A" d="M144.2,156.9l-6.3-15.8h-4.5l0.8,2l-5.4,13.8c-0.2,0.7-0.8,0.8-1.4,0.9v0.9h5.2v-0.9l0,0l0,0l0,0l0,0
		c-1.4-0.1-2.2-0.3-1.6-1.8c0.1-0.1,0.5-1.2,1-2.6h6.4l0.9,2.3c0.1,0.4,0.2,0.7,0.2,1c0,0.8-0.7,1.1-2,1.1v0.9h8.2v-0.9
		C145,157.7,144.4,157.5,144.2,156.9z M132.6,151.7c1-2.5,2.1-5.4,2.5-6.5l2.6,6.5H132.6z"/>
	<path fill="#41454A" d="M271.6,157.5c-0.3-0.1-0.4-0.3-0.6-0.6l-6.3-15.7h-4.5l0,0l0.8,2l-5.3,13.8c-0.2,0.7-0.8,0.8-1.4,0.9v0.9
		h5.2l0,0v-0.9l0,0l0,0l0,0l0,0c-1.4-0.1-2.2-0.3-1.6-1.8c0.1-0.1,0.5-1.2,1-2.6h6.4l0.9,2.3c0.1,0.4,0.2,0.7,0.2,1
		c0,0.8-0.7,1.1-2,1.1v0.9h8.2v-0.9C272.1,157.7,271.8,157.7,271.6,157.5z M259.5,151.7c1-2.5,2.1-5.4,2.5-6.5l2.6,6.5H259.5z"/>
</g>
</svg>
