<?xml version="1.0" encoding="utf-8"?>
<!-- Generator: Adobe Illustrator 19.1.0, SVG Export Plug-In . SVG Version: 6.00 Build 0)  -->
<svg version="1.1" xmlns="http://www.w3.org/2000/svg" xmlns:xlink="http://www.w3.org/1999/xlink" x="0px" y="0px"
     viewBox="0 0 200 33.5" style="enable-background:new 0 0 200 33.5;" xml:space="preserve">
  <style type="text/css">
    .st0{fill:#7B7B7B;stroke:#7B7B7B;stroke-width:0.25;stroke-miterlimit:10;}
    .st1{fill:#B92025;}
  </style>
  <g id="type">
    <g>
      <path class="st0" d="M44,9.8h0.2l8.3,19.7h-0.6l-2.5-5.9H38.8l-2.5,5.9h-0.6L44,9.8z M39,23.1h10.3l-5.1-12.2L39,23.1z"/>
      <path class="st0" d="M75.5,12.8c-1.3-1.5-3.3-2.5-6.4-2.5c-7.8,0-8.9,7-8.9,9.4s1.1,9.5,8.9,9.5c3,0,5-0.9,6.4-2.4v-5.6h-5.1v-0.5
                           H76V27c-1.5,1.6-3.7,2.7-7,2.7c-7.4,0-9.5-5.8-9.5-10c0-4,2.2-10,9.5-10c3.2,0,5.4,1.1,6.8,2.7L75.5,12.8z"/>
      <path class="st0" d="M86.7,29.5h-0.6V10h0.6V29.5z"/>
      <path class="st0" d="M98.5,28.9h9.1v0.6h-9.7V10h0.6V28.9z"/>
      <path class="st0" d="M117.6,29.5V10h6.6c7.5,0,9.4,6.1,9.4,9.7c0,3.7-2,9.8-9.4,9.8H117.6z M124.1,28.9c7.5,0,8.9-6.3,8.9-9.2
                           c0-2.8-1.4-9.2-8.9-9.2h-5.8v18.4H124.1z"/>
      <path class="st0" d="M149,9.8h0.2l8.3,19.7h-0.6l-2.5-5.9h-10.7l-2.5,5.9h-0.6L149,9.8z M143.9,23.1h10.3l-5.1-12.2L143.9,23.1z"
            />
      <path class="st0" d="M169.6,29.5H169v-19h-6.6V10h13.8v0.6h-6.6V29.5z"/>
      <path class="st0" d="M189.5,9.8h0.2l8.3,19.7h-0.6l-2.5-5.9h-10.7l-2.5,5.9h-0.6L189.5,9.8z M184.4,23.1h10.3l-5.1-12.2
                           L184.4,23.1z"/>
    </g>
  </g>
  <g id="stroke_outlined_copy">
    <g>
      <g>
        <polygon class="st1" points="28.9,14.2 19.4,22.8 22.2,29.5 "/>
        <polygon class="st1" points="28.9,14.2 15.1,13.4 17.9,19.9 "/>
        <polygon class="st1" points="28.9,14.2 10.3,2.6 13.7,10.2 "/>
      </g>
      <g>
        <polygon class="st1" points="6.4,11.6 6.9,11.5 10.5,3.1 10.3,2.6 "/>
        <polygon class="st1" points="5,15 2,22 2.5,22 5.5,14.9 "/>
        <polygon class="st1" points="7,14.7 6.4,14.8 3.4,21.9 3.9,21.8 "/>
        <polygon class="st1" points="2.1,25 2.4,25.3 2.6,25 "/>
        <polygon class="st1" points="8.4,11.2 11.2,4.7 11,4.1 7.9,11.3 "/>
        <polygon class="st1" points="9.9,10.9 11.9,6.2 11.7,5.7 9.4,11.1 "/>
        <polygon class="st1" points="7.9,14.5 4.8,21.7 5.4,21.6 8.4,14.4 "/>
        <polygon class="st1" points="3.5,24.9 3.1,25.8 3.5,26.1 4,24.8 "/>
        <polygon class="st1" points="4.9,24.7 4.1,26.6 4.5,26.9 5.5,24.6 "/>
        <polygon class="st1" points="11.4,10.7 12.6,7.8 12.4,7.3 10.9,10.8 "/>
        <polygon class="st1" points="9.4,14.3 6.3,21.5 6.8,21.4 9.9,14.2 "/>
        <polygon class="st1" points="7.8,21.3 8.3,21.2 11.4,14 10.8,14.1 "/>
        <polygon class="st1" points="6.4,24.5 5.2,27.4 5.5,27.6 6.9,24.4 "/>
        <polygon class="st1" points="12.9,10.4 13.3,9.4 13.1,8.8 12.4,10.5 "/>
        <polygon class="st1" points="9.7,21 12.8,13.8 12.3,13.8 9.2,21.1 "/>
        <polygon class="st1" points="7.8,24.3 6.2,28.1 6.6,28.4 8.4,24.2 "/>
        <polygon class="st1" points="9.3,24.1 7.2,28.9 7.6,29.2 9.8,24 "/>
        <polygon class="st1" points="11.2,20.8 14.3,13.5 13.8,13.6 10.7,20.9 "/>
        <polygon class="st1" points="10.7,23.9 8.4,29.5 8.9,29.5 11.3,23.9 "/>
        <polygon class="st1" points="12.6,20.7 15.4,14.2 15.1,13.7 12.1,20.7 "/>
        <polygon class="st1" points="14.1,20.5 16.1,15.8 15.8,15.2 13.6,20.5 "/>
        <polygon class="st1" points="12.2,23.7 9.7,29.5 10.2,29.5 12.7,23.7 "/>
        <polygon class="st1" points="15.5,20.3 16.8,17.4 16.5,16.8 15,20.3 "/>
        <polygon class="st1" points="13.7,23.6 11.1,29.5 11.6,29.5 14.2,23.5 "/>
        <polygon class="st1" points="15.1,23.4 12.5,29.5 13,29.5 15.6,23.3 "/>
        <polygon class="st1" points="17,20.1 17.5,19 17.2,18.4 16.5,20.2 "/>
        <polygon class="st1" points="16.6,23.2 13.8,29.5 14.3,29.5 17.1,23.1 "/>
        <polygon class="st1" points="18,23 15.2,29.5 15.7,29.5 18.5,22.9 "/>
        <polygon class="st1" points="19.4,22.9 16.6,29.5 17.1,29.5 19.7,23.5 "/>
        <polygon class="st1" points="20.1,24.5 18,29.5 18.5,29.5 20.4,25.1 "/>
        <polygon class="st1" points="20.8,26.1 19.3,29.5 19.8,29.5 21,26.7 "/>
        <polygon class="st1" points="21.5,27.7 20.7,29.5 21.2,29.5 21.7,28.3 "/>
        <polygon class="st1" points="22.2,29.3 22.1,29.5 22.2,29.5 "/>
      </g>
    </g>
  </g>
</svg>
