<?xml version="1.0" encoding="UTF-8"?>
<!-- Generator: Adobe Illustrator 22.0.1, SVG Export Plug-In . SVG Version: 6.00 Build 0)  -->
<svg version="1.1" id="Layer_1" xmlns="http://www.w3.org/2000/svg" xmlns:xlink="http://www.w3.org/1999/xlink" x="0px" y="0px" viewBox="0 0 985.9 196.3" style="enable-background:new 0 0 985.9 196.3;" xml:space="preserve">
<style type="text/css">
	.st0{fill:#3B2C7C;}
	.st1{fill:#FF7E69;}
</style>
<g>
	<path class="st0" d="M102.5,153.5H86.2c-1.7,0-3-1.3-3-3v-9.3c-7,9.1-17.6,14.9-32.1,14.9C22.5,156.1,0,133.6,0,102.3   s22.5-53.8,51.1-53.8c14.5,0,25.1,6,32.1,15v-9.1c0-1.7,1.3-3,3-3h16.3c1.7,0,3,1.3,3,3v96.2C105.5,152.2,104.2,153.5,102.5,153.5z    M22.9,102.5c0,17.9,11.6,32.7,30.8,32.7c18.5,0,30.8-14.1,30.8-32.7c0-18.7-12.4-32.7-30.8-32.7C34.6,69.7,22.9,84.5,22.9,102.5z"/>
	<path class="st0" d="M233.1,102.5c0,31.3-22.5,53.8-51.1,53.8c-14.5,0-25-5.9-32-14.8v51.8c0,1.7-1.3,3-3,3h-16.3c-1.7,0-3-1.3-3-3   V54.4c0-1.7,1.3-3,3-3H147c1.7,0,3,1.3,3,3v9.2c7-9,17.5-14.8,32-14.8C210.6,48.7,233.1,71.2,233.1,102.5z M148.5,102.5   c0,18.7,12.4,32.7,30.8,32.7c19.2,0,30.8-14.8,30.8-32.7c0-17.9-11.6-32.7-30.8-32.7C160.9,69.7,148.5,83.8,148.5,102.5z"/>
	<path class="st0" d="M316.2,54.2l-3.9,16c-0.4,1.8-2.3,2.7-4,2.1c-4.3-1.6-9.5-2.4-13.8-2.4c-14.2,0-24.3,10-24.3,27.4v53.2   c0,1.7-1.3,3-3,3h-16.3c-1.7,0-3-1.3-3-3V54.4c0-1.7,1.3-3,3-3H267c1.7,0,3,1.3,3,3v8.5c6.7-9.7,17.2-14.2,29.7-14.2   c5.6,0,10.2,0.6,14.5,1.9C315.6,51.1,316.5,52.7,316.2,54.2z"/>
	<path class="st0" d="M353.6,16.1c0,8.9-6.9,15.6-15.8,15.6c-8.9,0-15.6-6.7-15.6-15.6s6.7-15.8,15.6-15.8   C346.7,0.3,353.6,7.2,353.6,16.1z M346.1,153.5h-16.4c-1.7,0-3-1.3-3-3V54.4c0-1.7,1.3-3,3-3h16.4c1.7,0,3,1.3,3,3v96.2   C349.1,152.2,347.8,153.5,346.1,153.5z"/>
	<path class="st0" d="M390.7,153.5h-16.4c-1.7,0-3-1.3-3-3V3c0-1.7,1.3-3,3-3h16.4c1.7,0,3,1.3,3,3v147.6   C393.7,152.2,392.4,153.5,390.7,153.5z"/>
	<path class="st0" d="M511,153.5h-16.3c-1.7,0-3-1.3-3-3v-9.3c-7,9.1-17.6,14.9-32.1,14.9c-28.6,0-51.1-22.5-51.1-53.8   s22.5-53.8,51.1-53.8c14.5,0,25.1,6,32.1,15v-9.1c0-1.7,1.3-3,3-3H511c1.7,0,3,1.3,3,3v96.2C514,152.2,512.7,153.5,511,153.5z    M431.5,102.5c0,17.9,11.6,32.7,30.8,32.7c18.5,0,30.8-14.1,30.8-32.7c0-18.7-12.4-32.7-30.8-32.7   C443.1,69.7,431.5,84.5,431.5,102.5z"/>
</g>
<path class="st1" d="M641.6,102.5c0,31.3-22.5,53.8-51.1,53.8c-14.5,0-25-5.9-32-14.8v9.2c0,1.7-1.3,3-3,3h-16.3c-1.7,0-3-1.3-3-3V3  c0-1.7,1.3-3,3-3h16.3c1.7,0,3,1.3,3,3v60.6c7-9,17.5-14.8,32-14.8C619.1,48.7,641.6,71.2,641.6,102.5z M557,102.5  c0,18.7,12.4,32.7,30.8,32.7c19.2,0,30.8-14.8,30.8-32.7c0-17.9-11.6-32.7-30.8-32.7C569.4,69.7,557,83.8,557,102.5z"/>
<path class="st1" d="M753.9,153.5h-16.3c-1.7,0-3-1.3-3-3v-9.3c-7,9.1-17.6,14.9-32.1,14.9c-28.6,0-51.1-22.5-51.1-53.8  s22.5-53.8,51.1-53.8c14.5,0,25.1,6,32.1,15v-9.1c0-1.7,1.3-3,3-3h16.3c1.7,0,3,1.3,3,3v96.2C756.9,152.2,755.6,153.5,753.9,153.5z   M674.4,102.5c0,17.9,11.6,32.7,30.8,32.7c18.5,0,30.8-14.1,30.8-32.7c0-18.7-12.4-32.7-30.8-32.7C686,69.7,674.4,84.5,674.4,102.5z  "/>
<path class="st1" d="M874.1,89.3v61.2c0,1.7-1.3,3-3,3h-16.4c-1.7,0-3-1.3-3-3V96.7c0-17.2-8.9-26.8-23.8-26.8  c-14.4,0-26.5,9.5-26.5,27v53.6c0,1.7-1.3,3-3,3H782c-1.7,0-3-1.3-3-3V54.4c0-1.7,1.3-3,3-3h16.2c1.7,0,3,1.3,3,3v9.5  c8.2-12.1,20.9-15.1,31.4-15.1C857,48.7,874.1,65.4,874.1,89.3z"/>
<path class="st1" d="M915.7,90.2h11.2l32.8-37.8c0.6-0.7,1.4-1,2.3-1h20c2.6,0,4,3.1,2.2,5l-38.3,43.1l39.3,49.2  c1.6,2,0.2,4.9-2.3,4.9h-20.6c-0.9,0-1.8-0.4-2.4-1.1l-33.1-41.9h-11.1v40.1c0,1.7-1.3,3-3,3h-16.4c-1.7,0-3-1.3-3-3V3  c0-1.7,1.3-3,3-3h16.4c1.7,0,3,1.3,3,3V90.2z"/>
</svg>