<?xml version="1.0" encoding="UTF-8"?>
<!-- Generator: Adobe Illustrator 19.2.1, SVG Export Plug-In . SVG Version: 6.00 Build 0)  -->
<svg version="1.1" id="Layer_1" xmlns="http://www.w3.org/2000/svg" xmlns:xlink="http://www.w3.org/1999/xlink" x="0px" y="0px" viewBox="0 0 96.1 94.5" enable-background="new 0 0 96.1 94.5" xml:space="preserve">
<g>
	<path fill="#333333" d="M39.1,66.9h-8c-0.2,0-0.4,0.2-0.4,0.4v1.4c0,0.2,0.2,0.4,0.4,0.4h2.8v7.9c0,0.2,0.2,0.4,0.4,0.4h1.6   c0.2,0,0.4-0.2,0.4-0.4v-7.9h2.8c0.2,0,0.4-0.2,0.4-0.4v-1.4C39.5,67.1,39.3,66.9,39.1,66.9z"/>
	<path fill="#333333" d="M50.6,66.9H49c-0.2,0-0.4,0.2-0.4,0.4V71h-4.1v-3.7c0-0.2-0.2-0.4-0.4-0.4h-1.6c-0.2,0-0.4,0.2-0.4,0.4v9.8   c0,0.2,0.2,0.4,0.4,0.4H44c0.2,0,0.4-0.2,0.4-0.4v-3.8h4.1v3.8c0,0.2,0.2,0.4,0.4,0.4h1.6c0.2,0,0.4-0.2,0.4-0.4v-9.8   C51,67.1,50.8,66.9,50.6,66.9z"/>
	<path fill="#333333" d="M58.8,71.1c-0.6,0-1.1,0.5-1.1,1.1c0,0.6,0.5,1.1,1.1,1.1h1.7c0.6,0,1.1-0.5,1.1-1.1c0-0.6-0.5-1.1-1.1-1.1   H58.8z"/>
	<path fill="#333333" d="M26.5,68.1c-0.4-0.9-0.9-1.3-1.6-1.3l0,0l0,0c-0.8,0-1.2,0.4-1.6,1.3l-3.7,8.8c-0.1,0.1,0,0.3,0,0.4   c0.1,0.1,0.2,0.2,0.3,0.2h1.6c0.2,0,0.3-0.1,0.4-0.3l0.8-2.1H27l0.9,2.1c0.1,0.2,0.2,0.3,0.4,0.3h1.6c0.1,0,0.3-0.1,0.3-0.2   c0.1-0.1,0.1-0.3,0-0.4L26.5,68.1z M26.2,73h-2.6l1.3-3.1L26.2,73z"/>
	<path fill="#333333" d="M73.9,76.8l-2.1-3.1l0.1-0.1c1.4-0.6,2.1-1.7,2.1-3.3c0-1-0.3-1.8-0.9-2.4c-0.7-0.7-1.8-1.1-3.1-1.1l-2.9,0   c-0.6,0-1.9,0.3-1.9,2v8.2c0,0.2,0.2,0.4,0.4,0.4h1.6c0.2,0,0.4-0.2,0.4-0.4v-2.9h1.7l2.1,3.2c0.1,0.1,0.2,0.2,0.3,0.2h1.9   c0.2,0,0.3-0.1,0.4-0.2C74,77.1,74,77,73.9,76.8z M71.5,70.6c0,0.9-0.6,1.4-1.7,1.4H68c-0.4,0-0.4-0.3-0.4-0.4v-2.1   c0-0.1,0.1-0.4,0.4-0.4l1.8,0C70.9,69.1,71.5,69.6,71.5,70.6z"/>
	<path fill="#333333" d="M61.9,75.3h-4.8c0,0-0.4,0-0.4-0.4l0-5.2c0-0.2,0.1-0.3,0.2-0.4c0.1-0.1,0.2-0.1,0.3-0.1h4.7   c0.2,0,0.4-0.2,0.4-0.4v-1.4c0-0.2-0.2-0.4-0.4-0.4l-5.7,0c-1.1,0.1-1.8,0.6-1.9,1.6l0,7.3v0c0.1,1,0.8,1.6,1.9,1.7h0h5.7   c0.2,0,0.4-0.2,0.4-0.4v-1.4C62.3,75.5,62.1,75.3,61.9,75.3z"/>
</g>
<g>
	<path fill="#333333" d="M26.4,39.2c0,11.2,9.1,20.3,20.3,20.3c11.2,0,20.3-9.1,20.3-20.3c0-11.2-9.1-20.3-20.3-20.3   C35.5,18.9,26.4,28,26.4,39.2z M29.5,39.2c0-9.5,7.8-17.3,17.3-17.3S64,29.7,64,39.2c0,9.5-7.8,17.3-17.3,17.3S29.5,48.7,29.5,39.2   z"/>
	<path fill="#333333" d="M44.7,31L44.7,31l0.2-0.1c0.1-0.1,0.2-0.1,0.3-0.2c0.1-0.1,0.2-0.1,0.3-0.1l0.1,0c0,0,0,0,0,0l0.1,0h0   c0.4-0.1,0.8-0.2,1.2-0.2c1.4,0,2.7,0.8,3.4,2c0.4,0.6,0.8,2.1,0.8,2.2c0.2,1,0.5,2.1,1,3c0.6,0.9,1.2,1.8,2,2.5   c0,0,1.1,1.2,1.4,1.8c0.9,1.6,0.4,3.8-1.1,4.9c0,0,0,0-0.1,0c-0.1,0.1-0.2,0.1-0.3,0.2c-0.1,0.1-0.2,0.1-0.3,0.1l-0.2,0.1l0,0   c-0.4,0.1-0.8,0.2-1.2,0.2l0,0c-1.4,0-2.7-0.8-3.4-2c-0.4-0.6-0.8-2.1-0.8-2.2c-0.2-1-0.5-2.1-1-3c-0.6-0.9-1.2-1.8-2-2.5   c0,0-1.1-1.2-1.4-1.8C42.8,34.1,43.3,32,44.7,31z"/>
	<circle fill="#333333" cx="41.3" cy="43.7" r="3.6"/>
</g>
</svg>