<?xml version="1.0" encoding="UTF-8" standalone="no"?>
<svg width="320px" height="85px" viewBox="0 0 320 85" version="1.1" xmlns="http://www.w3.org/2000/svg" xmlns:xlink="http://www.w3.org/1999/xlink" xmlns:sketch="http://www.bohemiancoding.com/sketch/ns">
    <!-- Generator: Sketch 3.5.1 (25234) - http://www.bohemiancoding.com/sketch -->
    <title>sharp-cut</title>
    <desc>Created with Sketch.</desc>
    <defs/>
    <g id="Page-1" stroke="none" stroke-width="1" fill="none" fill-rule="evenodd" sketch:type="MSPage">
        <g id="light-back" sketch:type="MSArtboardGroup" transform="translate(-22.000000, -85.000000)">
            <g id="Clever-Square" sketch:type="MSLayerGroup" transform="translate(32.000000, 93.000000)">
                <rect id="Rectangle-1" fill="#CB243C" sketch:type="MSShapeGroup" x="0" y="0" width="68" height="68" rx="4"/>
                <g id="logo-bottle" transform="translate(26.928000, 14.008000)" fill="#FFFFFF" sketch:type="MSShapeGroup">
                    <g id="Page-1">
                        <g id="Group-7">
                            <path d="M6.36528448,11.2562643 L5.28697961,11.2562643 C5.28697961,11.2562643 5.16200467,11.3400236 5.20389767,11.4639029 L5.24438252,11.5881341 L5.37041358,13.2474832 C5.37041358,13.2474832 5.20389767,13.3308906 5.16200467,13.6208808 C5.12081574,13.9112229 5.45279142,14.6998976 5.45279142,14.6998976 C5.45279142,14.6998976 5.37041358,26.9949179 5.37041358,27.029759 C5.34612267,30.4733924 0.541452445,32.6300183 0.654809993,36.773992 C0.737539879,39.8150175 3.43136582,40.0955057 5.86608882,40.0955057 C7.87448884,40.0955057 11.1843884,40.3953499 11.9018502,37.9723131 C13.3828912,32.9745575 7.38761465,30.9998793 7.36085946,27.029759 C7.36085946,26.9949179 7.27848161,14.6998976 7.27848161,14.6998976 C7.27848161,14.6998976 7.61045729,13.9112229 7.56926837,13.6208808 C7.52737537,13.3308906 7.36085946,13.2474832 7.36085946,13.2474832 L7.48618644,11.5881341 L7.52737537,11.4639029 C7.56926837,11.3400236 7.4439414,11.2562643 7.4439414,11.2562643 L6.36528448,11.2562643 L6.36528448,11.2562643 Z" id="Fill-1"/>
                            <path d="M0.177053693,8.14112225 C0.454110806,8.78656154 1.42926735,9.06317839 1.79715132,9.06317839 L11.9898255,9.06317839 C12.3499645,9.06317839 13.0410231,8.80662154 13.4124275,8.37585945 C14.086236,7.59739066 14.5667735,6.24949945 14.0929248,4.82453557 C13.3553967,2.61406436 11.8810445,2.06188646 9.57622504,2.70662189 C9.30057609,1.69236014 8.83904893,-0.425553545 5.70657855,0.126976281 C3.49821862,0.515858737 3.40246317,3.44285909 3.77105123,3.81132961 C0.177053693,3.74235137 -0.42106579,6.74501663 0.177053693,8.14112225" id="Fill-3"/>
                            <path d="M5.35869057,8.65666425 L6.12931067,9.8891225 L7.3628661,8.65666425 L5.35869057,8.65666425 L5.35869057,8.65666425 Z" id="Fill-5"/>
                        </g>
                    </g>
                </g>
            </g>
            <g id="logo-vecto" sketch:type="MSLayerGroup" transform="translate(110.000000, 112.000000)" fill="#626262">
                <path d="M125.087329,17.2189306 C125.087329,15.8831022 125.318059,14.6201562 125.779527,13.4300546 C126.240995,12.239953 126.890684,11.2016656 127.728612,10.3151613 C128.566541,9.42865708 129.568397,8.73039364 130.734211,8.22035009 C131.900025,7.71030654 133.187258,7.45528859 134.59595,7.45528859 C136.393246,7.45528859 137.959785,7.86210294 139.295614,8.67574384 C140.631442,9.48938475 141.63937,10.5883907 142.319428,11.9727946 L139.914949,12.7378561 C139.380618,11.7663446 138.633779,11.0073626 137.674412,10.4608873 C136.715044,9.91441211 135.652469,9.64117859 134.486656,9.64117859 C133.515144,9.64117859 132.610437,9.83547798 131.772509,10.2240826 C130.93458,10.6126872 130.205957,11.1409387 129.586619,11.8088528 C128.96728,12.476767 128.481532,13.2721801 128.129359,14.1951161 C127.777186,15.118052 127.601102,16.1259801 127.601102,17.2189306 C127.601102,18.2875933 127.783258,19.2955214 128.147575,20.2427451 C128.511891,21.1899688 129.009784,22.0096694 129.641266,22.7018713 C130.272748,23.3940733 131.007443,23.9405403 131.845372,24.3412888 C132.6833,24.7420373 133.575863,24.9424086 134.523087,24.9424086 C135.130282,24.9424086 135.731395,24.8574026 136.326446,24.6873881 C136.921497,24.5173736 137.474036,24.2805712 137.98408,23.9769738 C138.494123,23.6733765 138.931297,23.3272807 139.295614,22.9386761 C139.65993,22.5500715 139.914948,22.1371853 140.060675,21.7000051 L142.501586,22.4286351 C142.23442,23.1086932 141.845821,23.7340943 141.335778,24.3048573 C140.825734,24.8756204 140.22462,25.3735126 139.532418,25.7985488 C138.840216,26.2235851 138.075162,26.5514654 137.237234,26.7821993 C136.399305,27.0129333 135.53103,27.1282986 134.632382,27.1282986 C133.247978,27.1282986 131.972888,26.8672088 130.807074,26.3450213 C129.64126,25.8228339 128.633332,25.1063549 127.78326,24.1955628 C126.933187,23.2847708 126.271355,22.2343397 125.797743,21.0442381 C125.324131,19.8541365 125.087329,18.5790467 125.087329,17.2189306 L125.087329,17.2189306 Z M147.509051,0.168988594 L149.986393,0.168988594 L149.986393,22.4650666 C149.986393,23.1694124 150.180692,23.7219513 150.569297,24.1226998 C150.957901,24.5234483 151.504368,24.7238196 152.208714,24.7238196 C152.47588,24.7238196 152.791616,24.6873885 153.155933,24.6145251 C153.52025,24.5416617 153.860274,24.444512 154.176015,24.3230731 L154.613193,26.3268056 C154.151725,26.5211079 153.587042,26.6789762 152.919128,26.8004151 C152.251214,26.921854 151.674388,26.9825726 151.188632,26.9825726 C150.047106,26.9825726 149.148471,26.6607642 148.492701,26.0171378 C147.836931,25.3735115 147.509051,24.4688049 147.509051,23.3029911 L147.509051,0.168988594 Z M166.396917,27.1282986 C165.012513,27.1282986 163.749567,26.8672088 162.608041,26.3450213 C161.466515,25.8228339 160.476802,25.1124268 159.638874,24.2137786 C158.800945,23.3151304 158.151256,22.2707712 157.689789,21.0806696 C157.228321,19.890568 156.99759,18.6397657 156.99759,17.3282251 C156.99759,15.9923967 157.234392,14.7294507 157.708004,13.5393491 C158.181616,12.3492475 158.837377,11.3048883 159.675305,10.4062401 C160.513234,9.50759193 161.502946,8.79111293 162.644473,8.25678159 C163.785999,7.72245026 165.036801,7.45528859 166.396917,7.45528859 C167.757033,7.45528859 169.013907,7.72245026 170.167577,8.25678159 C171.321247,8.79111293 172.317032,9.50759193 173.15496,10.4062401 C173.992889,11.3048883 174.648649,12.3492475 175.122261,13.5393491 C175.595873,14.7294507 175.832676,15.9923967 175.832676,17.3282251 C175.832676,18.6397657 175.601945,19.890568 175.140477,21.0806696 C174.679009,22.2707712 174.02932,23.3151304 173.191392,24.2137786 C172.353463,25.1124268 171.357679,25.8228339 170.204009,26.3450213 C169.050339,26.8672088 167.781321,27.1282986 166.396917,27.1282986 L166.396917,27.1282986 Z M159.511364,17.3646566 C159.511364,18.4333193 159.693519,19.4230318 160.057836,20.3338238 C160.422153,21.2446159 160.913973,22.0461009 161.533312,22.7383028 C162.15265,23.4305048 162.881273,23.9709 163.719202,24.3595046 C164.55713,24.7481092 165.449693,24.9424086 166.396917,24.9424086 C167.344141,24.9424086 168.236704,24.7420373 169.074632,24.3412888 C169.912561,23.9405403 170.647256,23.3940733 171.278738,22.7018713 C171.91022,22.0096694 172.408113,21.2021125 172.77243,20.2791766 C173.136746,19.3562406 173.318902,18.3604563 173.318902,17.2917936 C173.318902,16.2474187 173.136746,15.2577062 172.77243,14.3226263 C172.408113,13.3875465 171.91022,12.5739178 171.278738,11.8817158 C170.647256,11.1895139 169.912561,10.6430468 169.074632,10.2422983 C168.236704,9.84154984 167.344141,9.64117859 166.396917,9.64117859 C165.449693,9.64117859 164.563202,9.84154984 163.737418,10.2422983 C162.911633,10.6430468 162.18301,11.1955857 161.551528,11.8999316 C160.920045,12.6042774 160.422153,13.423978 160.057836,14.3590578 C159.693519,15.2941377 159.511364,16.2959939 159.511364,17.3646566 L159.511364,17.3646566 Z M186.924201,27.1282986 C184.859739,27.1282986 183.323559,26.4421789 182.315616,25.0699188 C181.307673,23.6976588 180.803709,21.6514434 180.803709,18.9312111 L180.803709,7.78317209 L183.281051,7.78317209 L183.281051,18.4940331 C183.281051,22.7929716 184.75044,24.9424086 187.689263,24.9424086 C188.417896,24.9424086 189.134375,24.8209715 189.838721,24.5780936 C190.543067,24.3352157 191.192755,23.9830481 191.787806,23.5215801 C192.382857,23.0601121 192.91718,22.5136451 193.390792,21.8821626 C193.864404,21.2506801 194.246931,20.5342011 194.538385,19.7327041 L194.538385,7.78317209 L197.015726,7.78317209 L197.015726,23.5580116 C197.015726,24.2380697 197.307176,24.5780936 197.890083,24.5780936 L197.890083,26.7639836 C197.598629,26.8125592 197.361827,26.8368466 197.179668,26.8368466 L196.797137,26.8368466 C196.214231,26.8125588 195.740626,26.6061157 195.376309,26.2175111 C195.011992,25.8289065 194.829836,25.3067269 194.829836,24.6509566 L194.829836,22.4650666 C194.004052,23.9466217 192.880758,25.0942024 191.459923,25.9078433 C190.039087,26.7214842 188.527195,27.1282986 186.924201,27.1282986 L186.924201,27.1282986 Z M211.422518,27.1282986 C210.110978,27.1282986 208.896607,26.8550651 207.779369,26.3085898 C206.66213,25.7621146 205.702777,25.0395638 204.90128,24.1409156 C204.099783,23.2422674 203.474382,22.2039801 203.025058,21.0260223 C202.575734,19.8480646 202.351075,18.6154779 202.351075,17.3282251 C202.351075,15.9923967 202.569662,14.7233789 203.006842,13.5211333 C203.444022,12.3188878 204.045136,11.2684568 204.810201,10.3698086 C205.575267,9.47116043 206.486045,8.76075329 207.542564,8.23856584 C208.599083,7.7163784 209.758807,7.45528859 211.021772,7.45528859 C212.624766,7.45528859 214.04558,7.87424665 215.284257,8.71217534 C216.522935,9.55010403 217.494432,10.564104 218.198778,11.7542056 L218.198778,0.168988594 L220.676119,0.168988594 L220.676119,23.5580116 C220.676119,24.2380697 220.967569,24.5780936 221.550476,24.5780936 L221.550476,26.7639836 C221.186159,26.836847 220.89471,26.8732781 220.676119,26.8732781 C220.093213,26.8732781 219.583177,26.6850506 219.145996,26.3085898 C218.708816,25.9321291 218.490229,25.4767399 218.490229,24.9424086 L218.490229,23.0844021 C217.737308,24.3230793 216.717236,25.30672 215.429984,26.0353536 C214.142731,26.7639872 212.806922,27.1282986 211.422518,27.1282986 L211.422518,27.1282986 Z M211.968991,24.9424086 C212.576186,24.9424086 213.225874,24.8209715 213.918076,24.5780936 C214.610278,24.3352157 215.259967,24.0012636 215.867162,23.5762273 C216.474356,23.1511911 216.990464,22.6532989 217.4155,22.0825358 C217.840537,21.5117728 218.101626,20.8985154 218.198778,20.2427451 L218.198778,14.3772736 C217.9559,13.7215033 217.603732,13.1082459 217.142264,12.5374828 C216.680796,11.9667198 216.152545,11.4627558 215.557494,11.0255756 C214.962443,10.5883954 214.324898,10.2483715 213.64484,10.0054936 C212.964782,9.76261571 212.296878,9.64117859 211.641108,9.64117859 C210.62102,9.64117859 209.698098,9.85976541 208.872313,10.2969456 C208.046529,10.7341258 207.336122,11.3109521 206.741071,12.0274418 C206.14602,12.7439316 205.690631,13.5636321 205.37489,14.4865681 C205.059148,15.409504 204.90128,16.3567136 204.90128,17.3282251 C204.90128,18.3483122 205.083436,19.3198091 205.447753,20.2427451 C205.812069,21.165681 206.309962,21.9732379 206.941444,22.6654398 C207.572926,23.3576418 208.319765,23.9101807 209.181981,24.3230731 C210.044198,24.7359655 210.973192,24.9424086 211.968991,24.9424086 L211.968991,24.9424086 Z" id="cloud" sketch:type="MSShapeGroup"/>
                <path d="M0.0873285,17.2189306 C0.0873285,15.8831022 0.318059026,14.6201562 0.779527,13.4300546 C1.24099497,12.239953 1.89068356,11.2016656 2.72861225,10.3151613 C3.56654094,9.42865708 4.56839717,8.73039364 5.734211,8.22035009 C6.90002483,7.71030654 8.18725829,7.45528859 9.59595,7.45528859 C11.3932463,7.45528859 12.9597852,7.86210294 14.2956135,8.67574384 C15.6314418,9.48938475 16.6393699,10.5883907 17.319428,11.9727946 L14.914949,12.7378561 C14.3806177,11.7663446 13.6337794,11.0073626 12.6744118,10.4608873 C11.7150441,9.91441211 10.6524693,9.64117859 9.4866555,9.64117859 C8.51514398,9.64117859 7.61043744,9.83547798 6.77250875,10.2240826 C5.93458006,10.6126872 5.20595735,11.1409387 4.58661875,11.8088528 C3.96728015,12.476767 3.48153168,13.2721801 3.12935875,14.1951161 C2.77718582,15.118052 2.601102,16.1259801 2.601102,17.2189306 C2.601102,18.2875933 2.78325768,19.2955214 3.1475745,20.2427451 C3.51189132,21.1899688 4.00978351,22.0096694 4.641266,22.7018713 C5.27274849,23.3940733 6.00744306,23.9405403 6.84537175,24.3412888 C7.68330044,24.7420373 8.57586326,24.9424086 9.523087,24.9424086 C10.1302817,24.9424086 10.7313954,24.8574026 11.3264463,24.6873881 C11.9214971,24.5173736 12.4740359,24.2805712 12.9840795,23.9769738 C13.4941231,23.6733765 13.9312967,23.3272807 14.2956135,22.9386761 C14.6599303,22.5500715 14.9149483,22.1371853 15.060675,21.7000051 L17.5015855,22.4286351 C17.2344198,23.1086932 16.8458211,23.7340943 16.3357775,24.3048573 C15.8257339,24.8756204 15.2246202,25.3735126 14.5324183,25.7985488 C13.8402163,26.2235851 13.0751624,26.5514654 12.2372338,26.7821993 C11.3993051,27.0129333 10.5310297,27.1282986 9.6323815,27.1282986 C8.24797758,27.1282986 6.97288783,26.8672088 5.807074,26.3450213 C4.64126017,25.8228339 3.63333208,25.1063549 2.7832595,24.1955628 C1.93318692,23.2847708 1.27135462,22.2343397 0.79774275,21.0442381 C0.324130882,19.8541365 0.0873285,18.5790467 0.0873285,17.2189306 L0.0873285,17.2189306 Z M22.5090505,0.168988594 L24.9863925,0.168988594 L24.9863925,22.4650666 C24.9863925,23.1694124 25.1806919,23.7219513 25.5692965,24.1226998 C25.9579011,24.5234483 26.5043681,24.7238196 27.208714,24.7238196 C27.4758797,24.7238196 27.7916162,24.6873885 28.155933,24.6145251 C28.5202498,24.5416617 28.8602738,24.444512 29.176015,24.3230731 L29.613193,26.3268056 C29.151725,26.5211079 28.5870424,26.6789762 27.9191283,26.8004151 C27.2512141,26.921854 26.6743878,26.9825726 26.188632,26.9825726 C25.047106,26.9825726 24.1484713,26.6607642 23.492701,26.0171378 C22.8369307,25.3735115 22.5090505,24.4688049 22.5090505,23.3029911 L22.5090505,0.168988594 Z M41.5062115,27.1282986 C40.1218076,27.1282986 38.8527897,26.8672088 37.6991198,26.3450213 C36.5454498,25.8228339 35.5435936,25.1063549 34.693521,24.1955628 C33.8434484,23.2847708 33.1816161,22.2343397 32.7080043,21.0442381 C32.2343924,19.8541365 31.99759,18.5790467 31.99759,17.2189306 C31.99759,15.8831022 32.2343924,14.6262281 32.7080043,13.4482703 C33.1816161,12.2703126 33.8373766,11.2380971 34.6753053,10.3515928 C35.5132339,9.46508858 36.5150902,8.76075329 37.680904,8.23856584 C38.8467178,7.7163784 40.1096639,7.45528859 41.46978,7.45528859 C42.8541839,7.45528859 44.1232018,7.7163784 45.2768718,8.23856584 C46.4305417,8.76075329 47.4202542,9.47116043 48.246039,10.3698086 C49.0718238,11.2684568 49.7154405,12.3006723 50.1769085,13.4664861 C50.6383765,14.6322999 50.869107,15.8709585 50.869107,17.1824991 L50.869107,17.7654031 C50.869107,17.9597054 50.8569633,18.0932862 50.8326755,18.1661496 L34.5842265,18.1661496 C34.6570899,19.1862367 34.8938922,20.1273744 35.2946408,20.9895908 C35.6953893,21.8518073 36.211497,22.5986456 36.8429795,23.2301281 C37.474462,23.8616106 38.1970128,24.3534309 39.0106538,24.7056038 C39.8242947,25.0577768 40.6925701,25.2338606 41.615506,25.2338606 C42.2227007,25.2338606 42.8298863,25.1488546 43.437081,24.9788401 C44.0442757,24.8088256 44.6028864,24.5780951 45.11293,24.2866416 C45.6229736,23.9951881 46.0844346,23.6369486 46.497327,23.2119123 C46.9102194,22.7868761 47.2259559,22.3193431 47.444546,21.8092996 L49.5940045,22.3922036 C49.302551,23.0965494 48.8896648,23.7340943 48.3553335,24.3048573 C47.8210022,24.8756204 47.2016729,25.3735126 46.497327,25.7985488 C45.7929811,26.2235851 45.0157836,26.5514654 44.165711,26.7821993 C43.3156384,27.0129333 42.4291474,27.1282986 41.5062115,27.1282986 L41.5062115,27.1282986 Z M48.5010595,16.2717116 C48.4281961,15.2516245 48.1913938,14.3226305 47.7906453,13.4847018 C47.3898967,12.6467732 46.8798608,11.9242223 46.2605223,11.3170276 C45.6411837,10.7098329 44.9247047,10.2362281 44.1110638,9.89619909 C43.2974228,9.55617006 42.4291474,9.38615809 41.5062115,9.38615809 C40.5832756,9.38615809 39.7089283,9.55617006 38.8831435,9.89619909 C38.0573587,10.2362281 37.3348078,10.7098329 36.7154693,11.3170276 C36.0961307,11.9242223 35.5982385,12.652845 35.2217778,13.5029176 C34.845317,14.3529902 34.6206584,15.2759123 34.547795,16.2717116 L48.5010595,16.2717116 Z M60.8676875,26.7639836 L53.1442095,7.78317209 L55.6944145,7.78317209 L62.215653,24.4687991 L68.773323,7.78317209 L71.177802,7.78317209 L63.454324,26.7639836 L60.8676875,26.7639836 Z M83.1436835,27.1282986 C81.7592796,27.1282986 80.4902617,26.8672088 79.3365918,26.3450213 C78.1829218,25.8228339 77.1810656,25.1063549 76.330993,24.1955628 C75.4809204,23.2847708 74.8190881,22.2343397 74.3454763,21.0442381 C73.8718644,19.8541365 73.635062,18.5790467 73.635062,17.2189306 C73.635062,15.8831022 73.8718644,14.6262281 74.3454763,13.4482703 C74.8190881,12.2703126 75.4748486,11.2380971 76.3127773,10.3515928 C77.1507059,9.46508858 78.1525622,8.76075329 79.318376,8.23856584 C80.4841898,7.7163784 81.7471359,7.45528859 83.107252,7.45528859 C84.4916559,7.45528859 85.7606738,7.7163784 86.9143438,8.23856584 C88.0680137,8.76075329 89.0577262,9.47116043 89.883511,10.3698086 C90.7092958,11.2684568 91.3529125,12.3006723 91.8143805,13.4664861 C92.2758485,14.6322999 92.506579,15.8709585 92.506579,17.1824991 L92.506579,17.7654031 C92.506579,17.9597054 92.4944353,18.0932862 92.4701475,18.1661496 L76.2216985,18.1661496 C76.2945619,19.1862367 76.5313642,20.1273744 76.9321128,20.9895908 C77.3328613,21.8518073 77.848969,22.5986456 78.4804515,23.2301281 C79.111934,23.8616106 79.8344848,24.3534309 80.6481258,24.7056038 C81.4617667,25.0577768 82.3300421,25.2338606 83.252978,25.2338606 C83.8601727,25.2338606 84.4673583,25.1488546 85.074553,24.9788401 C85.6817477,24.8088256 86.2403584,24.5780951 86.750402,24.2866416 C87.2604456,23.9951881 87.7219066,23.6369486 88.134799,23.2119123 C88.5476914,22.7868761 88.8634279,22.3193431 89.082018,21.8092996 L91.2314765,22.3922036 C90.940023,23.0965494 90.5271368,23.7340943 89.9928055,24.3048573 C89.4584742,24.8756204 88.8391449,25.3735126 88.134799,25.7985488 C87.4304531,26.2235851 86.6532556,26.5514654 85.803183,26.7821993 C84.9531104,27.0129333 84.0666194,27.1282986 83.1436835,27.1282986 L83.1436835,27.1282986 Z M90.1385315,16.2717116 C90.0656681,15.2516245 89.8288658,14.3226305 89.4281173,13.4847018 C89.0273687,12.6467732 88.5173328,11.9242223 87.8979943,11.3170276 C87.2786557,10.7098329 86.5621767,10.2362281 85.7485358,9.89619909 C84.9348948,9.55617006 84.0666194,9.38615809 83.1436835,9.38615809 C82.2207476,9.38615809 81.3464003,9.55617006 80.5206155,9.89619909 C79.6948307,10.2362281 78.9722798,10.7098329 78.3529413,11.3170276 C77.7336027,11.9242223 77.2357105,12.652845 76.8592498,13.5029176 C76.482789,14.3529902 76.2581304,15.2759123 76.185267,16.2717116 L90.1385315,16.2717116 Z M106.804077,9.96906209 C105.128219,10.0176377 103.670974,10.4790987 102.432297,11.3534591 C101.193619,12.2278195 100.319272,13.4300469 99.8092285,14.9601776 L99.8092285,26.7639836 L97.3318865,26.7639836 L97.3318865,7.78317209 L99.6635025,7.78317209 L99.6635025,12.3371096 C100.367848,10.8798423 101.315058,9.73833339 102.50516,8.91254859 C103.695261,8.0867638 104.970351,7.67387759 106.330467,7.67387759 C106.524769,7.67387759 106.682638,7.68602131 106.804077,7.71030909 L106.804077,9.96906209 Z" id="clever" sketch:type="MSShapeGroup"/>
            </g>
        </g>
    </g>
</svg>