<?xml version="1.0" encoding="UTF-8"?>
<svg xmlns="http://www.w3.org/2000/svg" xmlns:xlink="http://www.w3.org/1999/xlink" width="788pt" height="157pt" viewBox="0 0 788 157" version="1.1">
<g id="surface1">
<path style=" stroke:none;fill-rule:nonzero;fill:rgb(97.880554%,69.718933%,4.23584%);fill-opacity:1;" d="M 420.117188 125.808594 L 420.117188 128.449219 L 406.980469 128.449219 L 406.980469 135.941406 L 419.226562 135.941406 L 419.226562 138.578125 L 406.980469 138.578125 L 406.980469 146.730469 L 420.214844 146.730469 L 420.214844 149.371094 L 403.847656 149.371094 L 403.847656 125.808594 Z M 426.515625 132.308594 L 426.515625 135.015625 L 426.582031 135.015625 C 427.75 132.949219 429.597656 131.914062 432.128906 131.914062 C 433.25 131.914062 434.183594 132.066406 434.933594 132.375 C 435.679688 132.683594 436.285156 133.113281 436.746094 133.664062 C 437.210938 134.214844 437.535156 134.867188 437.722656 135.628906 C 437.90625 136.386719 438 137.226562 438 138.152344 L 438 149.371094 L 435.195312 149.371094 L 435.195312 137.820312 C 435.195312 136.765625 434.886719 135.929688 434.273438 135.3125 C 433.65625 134.699219 432.808594 134.390625 431.730469 134.390625 C 430.871094 134.390625 430.132812 134.519531 429.503906 134.785156 C 428.878906 135.050781 428.355469 135.425781 427.9375 135.90625 C 427.519531 136.390625 427.203125 136.957031 426.996094 137.605469 C 426.785156 138.257812 426.683594 138.964844 426.683594 139.734375 L 426.683594 149.371094 L 423.878906 149.371094 L 423.878906 132.308594 Z M 445.359375 125.808594 L 445.359375 134.816406 L 445.425781 134.816406 C 445.644531 134.289062 445.953125 133.84375 446.351562 133.480469 C 446.746094 133.117188 447.191406 132.820312 447.6875 132.589844 C 448.183594 132.359375 448.699219 132.191406 449.238281 132.078125 C 449.777344 131.96875 450.300781 131.914062 450.804688 131.914062 C 451.925781 131.914062 452.863281 132.066406 453.609375 132.375 C 454.359375 132.683594 454.964844 133.113281 455.425781 133.664062 C 455.886719 134.214844 456.210938 134.867188 456.398438 135.628906 C 456.585938 136.386719 456.679688 137.226562 456.679688 138.152344 L 456.679688 149.371094 L 453.875 149.371094 L 453.875 137.820312 C 453.875 136.765625 453.566406 135.929688 452.949219 135.3125 C 452.335938 134.699219 451.488281 134.390625 450.410156 134.390625 C 449.550781 134.390625 448.808594 134.519531 448.183594 134.785156 C 447.554688 135.050781 447.03125 135.425781 446.613281 135.90625 C 446.195312 136.390625 445.882812 136.957031 445.675781 137.605469 C 445.464844 138.257812 445.359375 138.964844 445.359375 139.734375 L 445.359375 149.371094 L 442.554688 149.371094 L 442.554688 125.808594 Z M 476.347656 147.128906 C 476.015625 147.214844 475.730469 147.257812 475.488281 147.257812 C 475.050781 147.257812 474.789062 147.105469 474.714844 146.796875 C 474.636719 146.492188 474.597656 146.007812 474.597656 145.347656 L 474.597656 136.589844 C 474.597656 135.601562 474.410156 134.800781 474.035156 134.1875 C 473.664062 133.570312 473.167969 133.09375 472.550781 132.753906 C 471.9375 132.414062 471.25 132.1875 470.488281 132.078125 C 469.730469 131.96875 468.964844 131.914062 468.195312 131.914062 C 467.226562 131.914062 466.320312 132.011719 465.472656 132.210938 C 464.628906 132.410156 463.871094 132.734375 463.214844 133.183594 C 462.554688 133.636719 462.023438 134.222656 461.628906 134.949219 C 461.234375 135.675781 461.011719 136.566406 460.96875 137.621094 L 463.773438 137.621094 C 463.839844 136.367188 464.269531 135.515625 465.0625 135.066406 C 465.851562 134.613281 466.84375 134.390625 468.03125 134.390625 C 468.472656 134.390625 468.917969 134.421875 469.367188 134.488281 C 469.820312 134.554688 470.226562 134.6875 470.589844 134.882812 C 470.953125 135.082031 471.25 135.367188 471.480469 135.742188 C 471.710938 136.117188 471.824219 136.613281 471.824219 137.226562 C 471.824219 137.753906 471.671875 138.15625 471.363281 138.433594 C 471.054688 138.707031 470.636719 138.914062 470.109375 139.058594 C 469.582031 139.203125 468.972656 139.3125 468.277344 139.390625 C 467.585938 139.464844 466.855469 139.582031 466.085938 139.734375 C 465.359375 139.867188 464.648438 140.03125 463.957031 140.230469 C 463.261719 140.429688 462.648438 140.71875 462.109375 141.105469 C 461.570312 141.488281 461.132812 141.992188 460.804688 142.605469 C 460.472656 143.222656 460.308594 144.015625 460.308594 144.980469 C 460.308594 145.839844 460.457031 146.570312 460.753906 147.175781 C 461.050781 147.78125 461.453125 148.269531 461.960938 148.644531 C 462.464844 149.019531 463.066406 149.292969 463.757812 149.46875 C 464.449219 149.644531 465.183594 149.734375 465.953125 149.734375 C 467.140625 149.734375 468.246094 149.53125 469.269531 149.125 C 470.292969 148.71875 471.1875 148.050781 471.957031 147.128906 C 471.957031 148.050781 472.171875 148.71875 472.601562 149.125 C 473.03125 149.53125 473.609375 149.734375 474.335938 149.734375 C 475.191406 149.734375 475.863281 149.589844 476.347656 149.304688 Z M 471.792969 143.417969 C 471.792969 143.8125 471.695312 144.234375 471.496094 144.683594 C 471.296875 145.128906 470.988281 145.546875 470.570312 145.929688 C 470.152344 146.3125 469.613281 146.628906 468.953125 146.882812 C 468.296875 147.132812 467.503906 147.257812 466.578125 147.257812 C 466.140625 147.257812 465.722656 147.214844 465.324219 147.128906 C 464.929688 147.039062 464.582031 146.898438 464.285156 146.699219 C 463.988281 146.503906 463.746094 146.246094 463.558594 145.929688 C 463.371094 145.613281 463.277344 145.222656 463.277344 144.765625 C 463.277344 144.0625 463.4375 143.511719 463.757812 143.105469 C 464.078125 142.699219 464.488281 142.386719 464.996094 142.171875 C 465.5 141.949219 466.074219 141.792969 466.710938 141.695312 C 467.347656 141.59375 467.980469 141.507812 468.609375 141.429688 C 469.234375 141.355469 469.835938 141.257812 470.40625 141.136719 C 470.980469 141.015625 471.441406 140.824219 471.792969 140.558594 Z M 481.925781 132.308594 L 481.925781 135.015625 L 481.988281 135.015625 C 483.15625 132.949219 485.003906 131.914062 487.535156 131.914062 C 488.65625 131.914062 489.589844 132.066406 490.339844 132.375 C 491.085938 132.683594 491.691406 133.113281 492.152344 133.664062 C 492.617188 134.214844 492.941406 134.867188 493.128906 135.628906 C 493.3125 136.386719 493.40625 137.226562 493.40625 138.152344 L 493.40625 149.371094 L 490.601562 149.371094 L 490.601562 137.820312 C 490.601562 136.765625 490.296875 135.929688 489.679688 135.3125 C 489.0625 134.699219 488.214844 134.390625 487.136719 134.390625 C 486.28125 134.390625 485.539062 134.519531 484.910156 134.785156 C 484.285156 135.050781 483.761719 135.425781 483.34375 135.90625 C 482.925781 136.390625 482.609375 136.957031 482.402344 137.605469 C 482.191406 138.257812 482.089844 138.964844 482.089844 139.734375 L 482.089844 149.371094 L 479.285156 149.371094 L 479.285156 132.308594 Z M 508.160156 135.28125 C 507.453125 134.6875 506.507812 134.390625 505.320312 134.390625 C 504.308594 134.390625 503.460938 134.574219 502.78125 134.949219 C 502.097656 135.324219 501.554688 135.820312 501.144531 136.433594 C 500.738281 137.050781 500.449219 137.761719 500.273438 138.5625 C 500.097656 139.367188 500.007812 140.195312 500.007812 141.054688 C 500.007812 141.847656 500.101562 142.617188 500.289062 143.363281 C 500.476562 144.113281 500.765625 144.777344 501.164062 145.363281 C 501.558594 145.945312 502.074219 146.414062 502.714844 146.765625 C 503.351562 147.117188 504.109375 147.292969 504.992188 147.292969 C 506.378906 147.292969 507.460938 146.929688 508.242188 146.203125 C 509.023438 145.476562 509.5 144.453125 509.675781 143.132812 L 512.546875 143.132812 C 512.238281 145.246094 511.453125 146.875 510.1875 148.019531 C 508.921875 149.160156 507.203125 149.734375 505.023438 149.734375 C 503.726562 149.734375 502.574219 149.523438 501.574219 149.105469 C 500.574219 148.691406 499.738281 148.097656 499.066406 147.324219 C 498.394531 146.554688 497.890625 145.636719 497.550781 144.570312 C 497.207031 143.503906 497.039062 142.332031 497.039062 141.054688 C 497.039062 139.78125 497.203125 138.585938 497.53125 137.476562 C 497.863281 136.363281 498.363281 135.394531 499.035156 134.570312 C 499.703125 133.746094 500.546875 133.097656 501.558594 132.625 C 502.570312 132.152344 503.746094 131.914062 505.089844 131.914062 C 506.058594 131.914062 506.964844 132.03125 507.8125 132.261719 C 508.660156 132.492188 509.40625 132.851562 510.058594 133.332031 C 510.703125 133.816406 511.238281 134.429688 511.65625 135.164062 C 512.074219 135.902344 512.339844 136.777344 512.449219 137.789062 L 509.546875 137.789062 C 509.324219 136.710938 508.863281 135.875 508.160156 135.28125 Z M 516.179688 129.242188 L 516.179688 125.808594 L 518.984375 125.808594 L 518.984375 129.242188 Z M 518.984375 132.308594 L 518.984375 149.371094 L 516.179688 149.371094 L 516.179688 132.308594 Z M 526.308594 132.308594 L 526.308594 135.015625 L 526.375 135.015625 C 527.539062 132.949219 529.386719 131.914062 531.917969 131.914062 C 533.039062 131.914062 533.976562 132.066406 534.722656 132.375 C 535.472656 132.683594 536.074219 133.113281 536.539062 133.664062 C 537 134.214844 537.324219 134.867188 537.511719 135.628906 C 537.699219 136.386719 537.792969 137.226562 537.792969 138.152344 L 537.792969 149.371094 L 534.988281 149.371094 L 534.988281 137.820312 C 534.988281 136.765625 534.679688 135.929688 534.0625 135.3125 C 533.445312 134.699219 532.601562 134.390625 531.523438 134.390625 C 530.664062 134.390625 529.921875 134.519531 529.296875 134.785156 C 528.667969 135.050781 528.144531 135.425781 527.726562 135.90625 C 527.308594 136.390625 526.996094 136.957031 526.785156 137.605469 C 526.578125 138.257812 526.472656 138.964844 526.472656 139.734375 L 526.472656 149.371094 L 523.667969 149.371094 L 523.667969 132.308594 Z M 555.148438 154.1875 C 553.875 155.574219 551.871094 156.269531 549.144531 156.269531 C 548.351562 156.269531 547.542969 156.179688 546.71875 156.003906 C 545.894531 155.828125 545.144531 155.542969 544.476562 155.144531 C 543.804688 154.75 543.246094 154.234375 542.808594 153.59375 C 542.367188 152.957031 542.125 152.175781 542.082031 151.253906 L 544.886719 151.253906 C 544.910156 151.757812 545.070312 152.1875 545.367188 152.539062 C 545.664062 152.890625 546.027344 153.175781 546.453125 153.398438 C 546.882812 153.617188 547.351562 153.777344 547.855469 153.875 C 548.363281 153.976562 548.847656 154.023438 549.308594 154.023438 C 550.234375 154.023438 551.015625 153.863281 551.652344 153.546875 C 552.289062 153.226562 552.816406 152.785156 553.234375 152.226562 C 553.652344 151.664062 553.957031 150.988281 554.144531 150.195312 C 554.328125 149.402344 554.425781 148.535156 554.425781 147.589844 L 554.425781 146.46875 L 554.359375 146.46875 C 553.875 147.523438 553.140625 148.300781 552.164062 148.792969 C 551.183594 149.289062 550.144531 149.535156 549.046875 149.535156 C 547.769531 149.535156 546.65625 149.304688 545.710938 148.84375 C 544.765625 148.382812 543.972656 147.761719 543.335938 146.980469 C 542.699219 146.199219 542.21875 145.285156 541.902344 144.238281 C 541.582031 143.195312 541.421875 142.089844 541.421875 140.921875 C 541.421875 139.910156 541.554688 138.871094 541.816406 137.804688 C 542.082031 136.738281 542.523438 135.769531 543.136719 134.902344 C 543.753906 134.03125 544.566406 133.316406 545.578125 132.757812 C 546.59375 132.195312 547.835938 131.914062 549.308594 131.914062 C 550.386719 131.914062 551.378906 132.152344 552.277344 132.625 C 553.179688 133.097656 553.886719 133.808594 554.390625 134.753906 L 554.425781 134.753906 L 554.425781 132.308594 L 557.0625 132.308594 L 557.0625 147.917969 C 557.0625 150.714844 556.425781 152.804688 555.148438 154.1875 Z M 551.570312 146.515625 C 552.21875 146.132812 552.742188 145.625 553.136719 145 C 553.53125 144.371094 553.824219 143.660156 554.011719 142.871094 C 554.199219 142.078125 554.292969 141.285156 554.292969 140.492188 C 554.292969 139.746094 554.203125 139.007812 554.027344 138.28125 C 553.851562 137.558594 553.570312 136.902344 553.1875 136.320312 C 552.800781 135.738281 552.300781 135.269531 551.683594 134.917969 C 551.070312 134.566406 550.320312 134.390625 549.441406 134.390625 C 548.539062 134.390625 547.769531 134.558594 547.132812 134.902344 C 546.492188 135.242188 545.96875 135.699219 545.5625 136.269531 C 545.15625 136.84375 544.859375 137.503906 544.671875 138.25 C 544.484375 138.996094 544.390625 139.78125 544.390625 140.59375 C 544.390625 141.363281 544.46875 142.132812 544.621094 142.902344 C 544.777344 143.675781 545.039062 144.371094 545.414062 145 C 545.789062 145.625 546.285156 146.132812 546.898438 146.515625 C 547.515625 146.902344 548.285156 147.09375 549.210938 147.09375 C 550.132812 147.09375 550.921875 146.902344 551.570312 146.515625 Z M 587.851562 125.808594 L 587.851562 128.449219 L 574.71875 128.449219 L 574.71875 135.941406 L 586.960938 135.941406 L 586.960938 138.578125 L 574.71875 138.578125 L 574.71875 146.730469 L 587.953125 146.730469 L 587.953125 149.371094 L 571.585938 149.371094 L 571.585938 125.808594 Z M 590.261719 132.308594 L 593.859375 132.308594 L 597.949219 138.28125 L 602.207031 132.308594 L 605.574219 132.308594 L 599.699219 140.164062 L 606.300781 149.371094 L 602.703125 149.371094 L 597.949219 142.308594 L 593.199219 149.371094 L 589.800781 149.371094 L 596.203125 140.394531 Z M 611.941406 132.308594 L 611.941406 134.621094 L 612.007812 134.621094 C 612.46875 133.675781 613.195312 132.988281 614.1875 132.558594 C 615.175781 132.128906 616.265625 131.914062 617.453125 131.914062 C 618.773438 131.914062 619.921875 132.15625 620.902344 132.640625 C 621.878906 133.125 622.695312 133.777344 623.34375 134.605469 C 623.992188 135.429688 624.480469 136.382812 624.8125 137.457031 C 625.140625 138.535156 625.308594 139.679688 625.308594 140.890625 C 625.308594 142.101562 625.148438 143.246094 624.828125 144.320312 C 624.511719 145.398438 624.023438 146.339844 623.378906 147.144531 C 622.726562 147.945312 621.914062 148.578125 620.933594 149.039062 C 619.957031 149.503906 618.816406 149.734375 617.519531 149.734375 C 617.101562 149.734375 616.632812 149.691406 616.117188 149.601562 C 615.597656 149.515625 615.089844 149.371094 614.582031 149.171875 C 614.074219 148.976562 613.597656 148.707031 613.148438 148.363281 C 612.695312 148.023438 612.316406 147.601562 612.007812 147.09375 L 611.941406 147.09375 L 611.941406 155.871094 L 609.136719 155.871094 L 609.136719 132.308594 Z M 622.023438 138.367188 C 621.8125 137.605469 621.496094 136.929688 621.066406 136.335938 C 620.636719 135.742188 620.089844 135.269531 619.417969 134.917969 C 618.746094 134.566406 617.960938 134.390625 617.058594 134.390625 C 616.109375 134.390625 615.308594 134.574219 614.648438 134.949219 C 613.988281 135.324219 613.449219 135.8125 613.03125 136.417969 C 612.613281 137.023438 612.308594 137.710938 612.125 138.480469 C 611.9375 139.253906 611.84375 140.03125 611.84375 140.824219 C 611.84375 141.660156 611.941406 142.46875 612.140625 143.25 C 612.339844 144.03125 612.652344 144.71875 613.082031 145.3125 C 613.511719 145.90625 614.066406 146.386719 614.746094 146.746094 C 615.429688 147.109375 616.253906 147.292969 617.222656 147.292969 C 618.191406 147.292969 619 147.105469 619.648438 146.730469 C 620.296875 146.355469 620.820312 145.863281 621.214844 145.246094 C 621.609375 144.632812 621.898438 143.925781 622.074219 143.132812 C 622.25 142.34375 622.335938 141.527344 622.335938 140.691406 C 622.335938 139.898438 622.234375 139.125 622.023438 138.367188 Z M 640.339844 137.324219 C 640.085938 136.730469 639.742188 136.222656 639.316406 135.792969 C 638.886719 135.363281 638.378906 135.023438 637.796875 134.769531 C 637.214844 134.515625 636.570312 134.390625 635.867188 134.390625 C 635.140625 134.390625 634.484375 134.515625 633.902344 134.769531 C 633.320312 135.023438 632.820312 135.367188 632.402344 135.808594 C 631.984375 136.25 631.652344 136.761719 631.410156 137.34375 C 631.167969 137.925781 631.027344 138.546875 630.984375 139.207031 L 640.785156 139.207031 C 640.738281 138.546875 640.589844 137.921875 640.339844 137.324219 Z M 641.015625 148.28125 C 639.738281 149.25 638.132812 149.734375 636.195312 149.734375 C 634.832031 149.734375 633.648438 149.515625 632.648438 149.074219 C 631.648438 148.632812 630.804688 148.019531 630.125 147.226562 C 629.441406 146.433594 628.929688 145.488281 628.589844 144.386719 C 628.25 143.289062 628.058594 142.089844 628.011719 140.789062 C 628.011719 139.492188 628.210938 138.304688 628.605469 137.226562 C 629.003906 136.148438 629.558594 135.214844 630.273438 134.421875 C 630.988281 133.628906 631.835938 133.015625 632.8125 132.574219 C 633.792969 132.132812 634.863281 131.914062 636.03125 131.914062 C 637.550781 131.914062 638.808594 132.226562 639.808594 132.855469 C 640.8125 133.480469 641.613281 134.277344 642.21875 135.246094 C 642.824219 136.214844 643.242188 137.273438 643.472656 138.414062 C 643.703125 139.558594 643.796875 140.648438 643.753906 141.683594 L 630.984375 141.683594 C 630.960938 142.429688 631.050781 143.140625 631.246094 143.8125 C 631.445312 144.480469 631.761719 145.074219 632.203125 145.59375 C 632.644531 146.109375 633.203125 146.523438 633.886719 146.828125 C 634.566406 147.140625 635.371094 147.292969 636.296875 147.292969 C 637.484375 147.292969 638.457031 147.015625 639.214844 146.46875 C 639.976562 145.917969 640.476562 145.082031 640.71875 143.960938 L 643.488281 143.960938 C 643.113281 145.871094 642.289062 147.3125 641.015625 148.28125 Z M 649.527344 132.308594 L 649.527344 135.90625 L 649.59375 135.90625 C 650.277344 134.519531 651.113281 133.496094 652.101562 132.839844 C 653.09375 132.179688 654.347656 131.871094 655.863281 131.914062 L 655.863281 134.882812 C 654.742188 134.882812 653.785156 135.039062 652.992188 135.347656 C 652.199219 135.65625 651.5625 136.105469 651.078125 136.699219 C 650.59375 137.292969 650.242188 138.015625 650.023438 138.859375 C 649.804688 139.707031 649.691406 140.679688 649.691406 141.78125 L 649.691406 149.371094 L 646.886719 149.371094 L 646.886719 132.308594 Z M 658.472656 129.242188 L 658.472656 125.808594 L 661.277344 125.808594 L 661.277344 129.242188 Z M 661.277344 132.308594 L 661.277344 149.371094 L 658.472656 149.371094 L 658.472656 132.308594 Z M 677.363281 137.324219 C 677.109375 136.730469 676.769531 136.222656 676.339844 135.792969 C 675.910156 135.363281 675.40625 135.023438 674.820312 134.769531 C 674.238281 134.515625 673.59375 134.390625 672.890625 134.390625 C 672.164062 134.390625 671.511719 134.515625 670.929688 134.769531 C 670.34375 135.023438 669.84375 135.367188 669.425781 135.808594 C 669.007812 136.25 668.679688 136.761719 668.4375 137.34375 C 668.195312 137.925781 668.050781 138.546875 668.007812 139.207031 L 677.808594 139.207031 C 677.765625 138.546875 677.617188 137.921875 677.363281 137.324219 Z M 678.039062 148.28125 C 676.761719 149.25 675.15625 149.734375 673.222656 149.734375 C 671.855469 149.734375 670.675781 149.515625 669.675781 149.074219 C 668.671875 148.632812 667.832031 148.019531 667.148438 147.226562 C 666.46875 146.433594 665.957031 145.488281 665.613281 144.386719 C 665.273438 143.289062 665.082031 142.089844 665.039062 140.789062 C 665.039062 139.492188 665.234375 138.304688 665.632812 137.226562 C 666.027344 136.148438 666.582031 135.214844 667.296875 134.421875 C 668.011719 133.628906 668.859375 133.015625 669.839844 132.574219 C 670.816406 132.132812 671.890625 131.914062 673.058594 131.914062 C 674.574219 131.914062 675.835938 132.226562 676.835938 132.855469 C 677.835938 133.480469 678.640625 134.277344 679.242188 135.246094 C 679.847656 136.214844 680.265625 137.273438 680.496094 138.414062 C 680.730469 139.558594 680.820312 140.648438 680.777344 141.683594 L 668.007812 141.683594 C 667.984375 142.429688 668.074219 143.140625 668.273438 143.8125 C 668.46875 144.480469 668.789062 145.074219 669.230469 145.59375 C 669.667969 146.109375 670.230469 146.523438 670.910156 146.828125 C 671.59375 147.140625 672.398438 147.292969 673.320312 147.292969 C 674.507812 147.292969 675.480469 147.015625 676.242188 146.46875 C 677 145.917969 677.5 145.082031 677.742188 143.960938 L 680.515625 143.960938 C 680.140625 145.871094 679.316406 147.3125 678.039062 148.28125 Z M 686.652344 132.308594 L 686.652344 135.015625 L 686.71875 135.015625 C 687.882812 132.949219 689.730469 131.914062 692.261719 131.914062 C 693.382812 131.914062 694.320312 132.066406 695.066406 132.375 C 695.816406 132.683594 696.421875 133.113281 696.882812 133.664062 C 697.34375 134.214844 697.667969 134.867188 697.855469 135.628906 C 698.042969 136.386719 698.136719 137.226562 698.136719 138.152344 L 698.136719 149.371094 L 695.332031 149.371094 L 695.332031 137.820312 C 695.332031 136.765625 695.023438 135.929688 694.40625 135.3125 C 693.789062 134.699219 692.945312 134.390625 691.867188 134.390625 C 691.007812 134.390625 690.265625 134.519531 689.640625 134.785156 C 689.011719 135.050781 688.488281 135.425781 688.070312 135.90625 C 687.652344 136.390625 687.339844 136.957031 687.132812 137.605469 C 686.921875 138.257812 686.816406 138.964844 686.816406 139.734375 L 686.816406 149.371094 L 684.011719 149.371094 L 684.011719 132.308594 Z M 712.886719 135.28125 C 712.183594 134.6875 711.238281 134.390625 710.050781 134.390625 C 709.035156 134.390625 708.191406 134.574219 707.507812 134.949219 C 706.824219 135.324219 706.28125 135.820312 705.875 136.433594 C 705.46875 137.050781 705.175781 137.761719 705 138.5625 C 704.824219 139.367188 704.734375 140.195312 704.734375 141.054688 C 704.734375 141.847656 704.828125 142.617188 705.015625 143.363281 C 705.203125 144.113281 705.496094 144.777344 705.890625 145.363281 C 706.285156 145.945312 706.804688 146.414062 707.441406 146.765625 C 708.078125 147.117188 708.839844 147.292969 709.71875 147.292969 C 711.105469 147.292969 712.1875 146.929688 712.96875 146.203125 C 713.75 145.476562 714.230469 144.453125 714.40625 143.132812 L 717.277344 143.132812 C 716.96875 145.246094 716.183594 146.875 714.917969 148.019531 C 713.652344 149.160156 711.929688 149.734375 709.753906 149.734375 C 708.453125 149.734375 707.304688 149.523438 706.304688 149.105469 C 705.300781 148.691406 704.464844 148.097656 703.796875 147.324219 C 703.125 146.554688 702.617188 145.636719 702.277344 144.570312 C 701.9375 143.503906 701.765625 142.332031 701.765625 141.054688 C 701.765625 139.78125 701.929688 138.585938 702.261719 137.476562 C 702.589844 136.363281 703.089844 135.394531 703.761719 134.570312 C 704.433594 133.746094 705.273438 133.097656 706.285156 132.625 C 707.300781 132.152344 708.476562 131.914062 709.816406 131.914062 C 710.785156 131.914062 711.691406 132.03125 712.539062 132.261719 C 713.386719 132.492188 714.136719 132.851562 714.785156 133.332031 C 715.433594 133.816406 715.96875 134.429688 716.386719 135.164062 C 716.804688 135.902344 717.066406 136.777344 717.175781 137.789062 L 714.273438 137.789062 C 714.054688 136.710938 713.589844 135.875 712.886719 135.28125 Z M 732.140625 137.324219 C 731.890625 136.730469 731.546875 136.222656 731.117188 135.792969 C 730.691406 135.363281 730.183594 135.023438 729.601562 134.769531 C 729.019531 134.515625 728.375 134.390625 727.671875 134.390625 C 726.945312 134.390625 726.289062 134.515625 725.707031 134.769531 C 725.125 135.023438 724.621094 135.367188 724.207031 135.808594 C 723.789062 136.25 723.457031 136.761719 723.214844 137.34375 C 722.972656 137.925781 722.832031 138.546875 722.785156 139.207031 L 732.589844 139.207031 C 732.542969 138.546875 732.394531 137.921875 732.140625 137.324219 Z M 732.820312 148.28125 C 731.542969 149.25 729.9375 149.734375 728 149.734375 C 726.636719 149.734375 725.453125 149.515625 724.453125 149.074219 C 723.453125 148.632812 722.609375 148.019531 721.929688 147.226562 C 721.246094 146.433594 720.734375 145.488281 720.394531 144.386719 C 720.054688 143.289062 719.859375 142.089844 719.816406 140.789062 C 719.816406 139.492188 720.015625 138.304688 720.410156 137.226562 C 720.808594 136.148438 721.363281 135.214844 722.078125 134.421875 C 722.792969 133.628906 723.640625 133.015625 724.617188 132.574219 C 725.597656 132.132812 726.667969 131.914062 727.835938 131.914062 C 729.355469 131.914062 730.613281 132.226562 731.613281 132.855469 C 732.613281 133.480469 733.417969 134.277344 734.023438 135.246094 C 734.628906 136.214844 735.046875 137.273438 735.277344 138.414062 C 735.507812 139.558594 735.601562 140.648438 735.558594 141.683594 L 722.785156 141.683594 C 722.765625 142.429688 722.851562 143.140625 723.050781 143.8125 C 723.25 144.480469 723.566406 145.074219 724.007812 145.59375 C 724.449219 146.109375 725.007812 146.523438 725.691406 146.828125 C 726.371094 147.140625 727.175781 147.292969 728.101562 147.292969 C 729.289062 147.292969 730.261719 147.015625 731.019531 146.46875 C 731.777344 145.917969 732.277344 145.082031 732.523438 143.960938 L 735.292969 143.960938 C 734.917969 145.871094 734.09375 147.3125 732.820312 148.28125 Z M 740.9375 145.558594 C 741.199219 145.988281 741.546875 146.328125 741.976562 146.582031 C 742.40625 146.835938 742.886719 147.015625 743.429688 147.128906 C 743.96875 147.238281 744.523438 147.292969 745.09375 147.292969 C 745.535156 147.292969 745.996094 147.257812 746.480469 147.191406 C 746.964844 147.128906 747.410156 147.007812 747.816406 146.828125 C 748.222656 146.652344 748.558594 146.394531 748.824219 146.054688 C 749.085938 145.714844 749.21875 145.277344 749.21875 144.75 C 749.21875 144.023438 748.945312 143.476562 748.394531 143.101562 C 747.84375 142.726562 747.15625 142.425781 746.332031 142.195312 C 745.507812 141.964844 744.609375 141.753906 743.640625 141.566406 C 742.675781 141.378906 741.777344 141.117188 740.953125 140.773438 C 740.128906 140.433594 739.441406 139.953125 738.890625 139.339844 C 738.339844 138.722656 738.066406 137.867188 738.066406 136.765625 C 738.066406 135.90625 738.257812 135.171875 738.644531 134.554688 C 739.027344 133.9375 739.523438 133.4375 740.128906 133.054688 C 740.734375 132.667969 741.414062 132.382812 742.175781 132.195312 C 742.933594 132.007812 743.6875 131.914062 744.433594 131.914062 C 745.402344 131.914062 746.292969 131.996094 747.105469 132.160156 C 747.921875 132.328125 748.640625 132.613281 749.269531 133.019531 C 749.894531 133.425781 750.394531 133.976562 750.769531 134.671875 C 751.144531 135.363281 751.363281 136.226562 751.429688 137.261719 L 748.625 137.261719 C 748.582031 136.710938 748.4375 136.253906 748.195312 135.890625 C 747.953125 135.527344 747.644531 135.234375 747.273438 135.015625 C 746.898438 134.796875 746.484375 134.636719 746.035156 134.539062 C 745.585938 134.4375 745.128906 134.390625 744.664062 134.390625 C 744.246094 134.390625 743.824219 134.421875 743.394531 134.488281 C 742.964844 134.554688 742.574219 134.671875 742.222656 134.835938 C 741.871094 135 741.585938 135.21875 741.363281 135.496094 C 741.144531 135.769531 741.035156 136.128906 741.035156 136.566406 C 741.035156 137.050781 741.207031 137.453125 741.546875 137.773438 C 741.886719 138.089844 742.320312 138.355469 742.851562 138.5625 C 743.378906 138.773438 743.972656 138.949219 744.632812 139.09375 C 745.292969 139.234375 745.953125 139.382812 746.613281 139.535156 C 747.316406 139.691406 748.003906 139.878906 748.675781 140.097656 C 749.347656 140.316406 749.941406 140.609375 750.457031 140.972656 C 750.972656 141.335938 751.390625 141.792969 751.710938 142.34375 C 752.027344 142.890625 752.1875 143.574219 752.1875 144.386719 C 752.1875 145.421875 751.976562 146.28125 751.546875 146.960938 C 751.117188 147.644531 750.554688 148.195312 749.863281 148.613281 C 749.171875 149.03125 748.390625 149.320312 747.519531 149.488281 C 746.648438 149.652344 745.785156 149.734375 744.929688 149.734375 C 743.984375 149.734375 743.082031 149.636719 742.222656 149.4375 C 741.363281 149.238281 740.605469 148.914062 739.945312 148.464844 C 739.285156 148.011719 738.757812 147.417969 738.363281 146.683594 C 737.964844 145.945312 737.746094 145.046875 737.703125 143.992188 L 740.507812 143.992188 C 740.527344 144.609375 740.671875 145.132812 740.9375 145.558594 Z M 759.910156 145.707031 L 759.910156 149.371094 L 756.246094 149.371094 L 756.246094 145.707031 L 759.910156 145.707031 "/>
<path style=" stroke:none;fill-rule:nonzero;fill:rgb(29.779053%,21.006775%,31.771851%);fill-opacity:1;" d="M 200.441406 41.503906 C 196.964844 39.078125 192.832031 37.867188 188.046875 37.867188 C 183.964844 37.867188 180.472656 38.632812 177.570312 40.164062 C 174.664062 41.695312 172.273438 43.753906 170.390625 46.335938 C 168.507812 48.921875 167.121094 51.871094 166.230469 55.1875 C 165.335938 58.507812 164.890625 61.953125 164.890625 65.523438 C 164.890625 69.414062 165.335938 73.101562 166.230469 76.578125 C 167.121094 80.054688 168.507812 83.085938 170.390625 85.667969 C 172.273438 88.253906 174.683594 90.308594 177.617188 91.839844 C 180.550781 93.371094 184.058594 94.136719 188.144531 94.136719 C 191.140625 94.136719 193.804688 93.644531 196.136719 92.65625 C 198.464844 91.664062 200.472656 90.296875 202.164062 88.539062 C 203.855469 86.785156 205.179688 84.695312 206.136719 82.269531 C 207.09375 79.847656 207.667969 77.230469 207.859375 74.425781 L 216.949219 74.425781 C 216.054688 83.035156 213.089844 89.734375 208.050781 94.519531 C 203.007812 99.304688 196.117188 101.699219 187.378906 101.699219 C 182.082031 101.699219 177.457031 100.789062 173.503906 98.972656 C 169.546875 97.152344 166.261719 94.648438 163.644531 91.460938 C 161.027344 88.269531 159.066406 84.503906 157.757812 80.164062 C 156.449219 75.828125 155.796875 71.171875 155.796875 66.195312 C 155.796875 61.21875 156.5 56.542969 157.902344 52.175781 C 159.304688 47.804688 161.363281 43.992188 164.074219 40.738281 C 166.785156 37.484375 170.167969 34.914062 174.21875 33.035156 C 178.269531 31.152344 182.910156 30.210938 188.144531 30.210938 C 191.714844 30.210938 195.097656 30.6875 198.289062 31.644531 C 201.476562 32.601562 204.316406 34.007812 206.804688 35.855469 C 209.292969 37.707031 211.367188 40.019531 213.027344 42.796875 C 214.683594 45.570312 215.769531 48.777344 216.28125 52.414062 L 207.1875 52.414062 C 206.167969 47.566406 203.917969 43.929688 200.441406 41.503906 Z M 262.117188 100.167969 L 262.117188 92.320312 L 261.925781 92.320312 C 260.203125 95.382812 258.003906 97.632812 255.324219 99.066406 C 252.644531 100.503906 249.484375 101.21875 245.851562 101.21875 C 242.597656 101.21875 239.882812 100.789062 237.714844 99.929688 C 235.546875 99.066406 233.789062 97.839844 232.453125 96.242188 C 231.113281 94.648438 230.171875 92.75 229.628906 90.550781 C 229.085938 88.347656 228.816406 85.90625 228.816406 83.226562 L 228.816406 50.691406 L 236.949219 50.691406 L 236.949219 84.183594 C 236.949219 87.246094 237.84375 89.671875 239.628906 91.460938 C 241.414062 93.246094 243.871094 94.136719 246.996094 94.136719 C 249.484375 94.136719 251.640625 93.753906 253.457031 92.988281 C 255.277344 92.222656 256.789062 91.140625 258.003906 89.734375 C 259.214844 88.332031 260.125 86.691406 260.730469 84.808594 C 261.335938 82.925781 261.640625 80.867188 261.640625 78.636719 L 261.640625 50.691406 L 269.773438 50.691406 L 269.773438 100.167969 Z M 291.308594 50.691406 L 291.308594 61.121094 L 291.496094 61.121094 C 293.476562 57.101562 295.902344 54.136719 298.773438 52.222656 C 301.644531 50.308594 305.277344 49.414062 309.679688 49.542969 L 309.679688 58.15625 C 306.429688 58.15625 303.652344 58.601562 301.355469 59.496094 C 299.058594 60.390625 297.207031 61.695312 295.804688 63.417969 C 294.402344 65.140625 293.378906 67.230469 292.742188 69.6875 C 292.105469 72.144531 291.785156 74.96875 291.785156 78.15625 L 291.785156 100.167969 L 283.652344 100.167969 L 283.652344 50.691406 Z M 325.089844 50.691406 L 325.089844 61.121094 L 325.28125 61.121094 C 327.257812 57.101562 329.683594 54.136719 332.554688 52.222656 C 335.425781 50.308594 339.0625 49.414062 343.464844 49.542969 L 343.464844 58.15625 C 340.210938 58.15625 337.433594 58.601562 335.136719 59.496094 C 332.839844 60.390625 330.988281 61.695312 329.585938 63.417969 C 328.183594 65.140625 327.160156 67.230469 326.523438 69.6875 C 325.886719 72.144531 325.566406 74.96875 325.566406 78.15625 L 325.566406 100.167969 L 317.433594 100.167969 L 317.433594 50.691406 Z M 392.460938 50.691406 L 383.847656 50.691406 L 369.972656 91.171875 L 369.777344 91.171875 L 355.328125 50.691406 L 346.140625 50.691406 L 365.761719 99.878906 L 362.410156 108.207031 C 361.835938 109.671875 360.988281 110.804688 359.875 111.601562 C 358.757812 112.398438 357.371094 112.800781 355.710938 112.800781 C 355.074219 112.800781 354.289062 112.6875 353.367188 112.464844 C 352.441406 112.238281 351.628906 111.96875 350.925781 111.652344 L 350.925781 119.117188 C 351.820312 119.433594 352.746094 119.65625 353.703125 119.785156 C 354.660156 119.914062 355.617188 119.976562 356.574219 119.976562 C 358.359375 119.976562 359.9375 119.738281 361.308594 119.257812 C 362.679688 118.78125 363.925781 118.015625 365.042969 116.964844 C 366.15625 115.910156 367.179688 114.554688 368.105469 112.894531 C 369.027344 111.234375 369.972656 109.195312 370.929688 106.769531 Z M 436.816406 41.167969 C 433.785156 38.96875 429.910156 37.867188 425.191406 37.867188 C 423.277344 37.867188 421.394531 38.058594 419.542969 38.441406 C 417.691406 38.824219 416.050781 39.460938 414.613281 40.355469 C 413.179688 41.25 412.03125 42.445312 411.171875 43.941406 C 410.308594 45.441406 409.878906 47.308594 409.878906 49.542969 C 409.878906 51.648438 410.5 53.355469 411.742188 54.660156 C 412.988281 55.96875 414.644531 57.039062 416.71875 57.867188 C 418.792969 58.699219 421.136719 59.382812 423.753906 59.925781 C 426.371094 60.46875 429.03125 61.058594 431.746094 61.695312 C 434.457031 62.335938 437.117188 63.082031 439.734375 63.945312 C 442.351562 64.804688 444.695312 65.972656 446.769531 67.4375 C 448.84375 68.90625 450.503906 70.757812 451.746094 72.988281 C 452.992188 75.222656 453.613281 78.027344 453.613281 81.410156 C 453.613281 85.046875 452.800781 88.15625 451.171875 90.742188 C 449.546875 93.324219 447.453125 95.429688 444.902344 97.058594 C 442.351562 98.683594 439.496094 99.863281 436.339844 100.597656 C 433.179688 101.332031 430.039062 101.699219 426.910156 101.699219 C 423.085938 101.699219 419.464844 101.21875 416.050781 100.261719 C 412.636719 99.304688 409.640625 97.855469 407.054688 95.910156 C 404.472656 93.964844 402.429688 91.476562 400.929688 88.445312 C 399.429688 85.414062 398.679688 81.824219 398.679688 77.679688 L 407.292969 77.679688 C 407.292969 80.550781 407.851562 83.023438 408.96875 85.09375 C 410.085938 87.167969 411.554688 88.875 413.371094 90.214844 C 415.1875 91.554688 417.308594 92.542969 419.734375 93.179688 C 422.160156 93.820312 424.648438 94.136719 427.199219 94.136719 C 429.242188 94.136719 431.296875 93.945312 433.371094 93.5625 C 435.445312 93.179688 437.3125 92.527344 438.972656 91.601562 C 440.628906 90.679688 441.96875 89.417969 442.988281 87.820312 C 444.011719 86.226562 444.519531 84.183594 444.519531 81.695312 C 444.519531 79.339844 443.898438 77.425781 442.65625 75.953125 C 441.410156 74.488281 439.75 73.292969 437.679688 72.367188 C 435.605469 71.441406 433.261719 70.691406 430.644531 70.117188 C 428.027344 69.542969 425.363281 68.953125 422.652344 68.347656 C 419.941406 67.742188 417.277344 67.039062 414.664062 66.242188 C 412.046875 65.445312 409.699219 64.390625 407.628906 63.082031 C 405.554688 61.777344 403.898438 60.085938 402.652344 58.011719 C 401.40625 55.9375 400.785156 53.339844 400.785156 50.210938 C 400.785156 46.765625 401.488281 43.785156 402.890625 41.265625 C 404.292969 38.742188 406.160156 36.671875 408.488281 35.042969 C 410.816406 33.414062 413.46875 32.203125 416.433594 31.40625 C 419.398438 30.609375 422.445312 30.210938 425.574219 30.210938 C 429.082031 30.210938 432.335938 30.625 435.335938 31.453125 C 438.332031 32.285156 440.964844 33.59375 443.230469 35.378906 C 445.492188 37.164062 447.28125 39.414062 448.589844 42.125 C 449.894531 44.839844 450.613281 48.074219 450.742188 51.839844 L 442.128906 51.839844 C 441.617188 46.925781 439.847656 43.367188 436.816406 41.167969 Z M 472.320312 83.46875 C 473.117188 85.796875 474.21875 87.742188 475.621094 89.304688 C 477.027344 90.867188 478.667969 92.066406 480.550781 92.894531 C 482.433594 93.722656 484.429688 94.136719 486.53125 94.136719 C 488.636719 94.136719 490.632812 93.722656 492.515625 92.894531 C 494.394531 92.066406 496.039062 90.867188 497.441406 89.304688 C 498.84375 87.742188 499.945312 85.796875 500.742188 83.46875 C 501.539062 81.140625 501.941406 78.476562 501.941406 75.476562 C 501.941406 72.480469 501.539062 69.816406 500.742188 67.484375 C 499.945312 65.15625 498.84375 63.195312 497.441406 61.601562 C 496.039062 60.007812 494.394531 58.792969 492.515625 57.964844 C 490.632812 57.136719 488.636719 56.71875 486.53125 56.71875 C 484.429688 56.71875 482.433594 57.136719 480.550781 57.964844 C 478.667969 58.792969 477.027344 60.007812 475.621094 61.601562 C 474.21875 63.195312 473.117188 65.15625 472.320312 67.484375 C 471.523438 69.816406 471.125 72.480469 471.125 75.476562 C 471.125 78.476562 471.523438 81.140625 472.320312 83.46875 Z M 464.042969 65.285156 C 465.0625 62.125 466.59375 59.382812 468.636719 57.054688 C 470.679688 54.726562 473.199219 52.890625 476.195312 51.550781 C 479.195312 50.210938 482.640625 49.542969 486.53125 49.542969 C 490.488281 49.542969 493.949219 50.210938 496.914062 51.550781 C 499.882812 52.890625 502.386719 54.726562 504.429688 57.054688 C 506.46875 59.382812 508 62.125 509.023438 65.285156 C 510.042969 68.441406 510.554688 71.839844 510.554688 75.476562 C 510.554688 79.113281 510.042969 82.496094 509.023438 85.621094 C 508 88.746094 506.46875 91.476562 504.429688 93.804688 C 502.386719 96.132812 499.882812 97.949219 496.914062 99.257812 C 493.949219 100.566406 490.488281 101.21875 486.53125 101.21875 C 482.640625 101.21875 479.195312 100.566406 476.195312 99.257812 C 473.199219 97.949219 470.679688 96.132812 468.636719 93.804688 C 466.59375 91.476562 465.0625 88.746094 464.042969 85.621094 C 463.023438 82.496094 462.511719 79.113281 462.511719 75.476562 C 462.511719 71.839844 463.023438 68.441406 464.042969 65.285156 Z M 517.058594 57.867188 L 517.058594 50.691406 L 525.386719 50.691406 L 525.386719 43.320312 C 525.386719 39.300781 526.550781 36.257812 528.878906 34.183594 C 531.207031 32.109375 534.605469 31.070312 539.070312 31.070312 C 539.835938 31.070312 540.714844 31.136719 541.703125 31.261719 C 542.691406 31.390625 543.570312 31.582031 544.335938 31.835938 L 544.335938 38.917969 C 543.632812 38.664062 542.867188 38.488281 542.039062 38.394531 C 541.207031 38.296875 540.441406 38.25 539.742188 38.25 C 537.761719 38.25 536.230469 38.632812 535.148438 39.398438 C 534.0625 40.164062 533.519531 41.632812 533.519531 43.800781 L 533.519531 50.691406 L 543.089844 50.691406 L 543.089844 57.867188 L 533.519531 57.867188 L 533.519531 100.167969 L 525.386719 100.167969 L 525.386719 57.867188 Z M 573.425781 50.691406 L 573.425781 57.867188 L 563.570312 57.867188 L 563.570312 88.589844 C 563.570312 89.546875 563.648438 90.308594 563.808594 90.882812 C 563.96875 91.460938 564.269531 91.90625 564.71875 92.222656 C 565.164062 92.542969 565.785156 92.75 566.585938 92.847656 C 567.382812 92.941406 568.417969 92.988281 569.695312 92.988281 L 573.425781 92.988281 L 573.425781 100.167969 L 567.207031 100.167969 C 565.101562 100.167969 563.296875 100.023438 561.800781 99.738281 C 560.300781 99.449219 559.085938 98.921875 558.160156 98.15625 C 557.238281 97.390625 556.550781 96.308594 556.105469 94.902344 C 555.65625 93.5 555.433594 91.648438 555.433594 89.351562 L 555.433594 57.867188 L 547.011719 57.867188 L 547.011719 50.691406 L 555.433594 50.691406 L 555.433594 35.855469 L 563.570312 35.855469 L 563.570312 50.691406 Z M 624.722656 100.167969 L 614.671875 60.835938 L 614.480469 60.835938 L 604.527344 100.167969 L 595.722656 100.167969 L 579.835938 50.691406 L 588.832031 50.691406 L 600.03125 91.171875 L 600.222656 91.171875 L 610.175781 50.691406 L 619.074219 50.691406 L 629.410156 91.171875 L 629.601562 91.171875 L 640.703125 50.691406 L 649.125 50.691406 L 633.335938 100.167969 Z M 702.621094 93.660156 C 701.664062 93.914062 700.832031 94.042969 700.132812 94.042969 C 698.855469 94.042969 698.105469 93.597656 697.882812 92.707031 C 697.660156 91.8125 697.546875 90.414062 697.546875 88.503906 L 697.546875 63.101562 C 697.546875 60.238281 697.003906 57.914062 695.921875 56.132812 C 694.835938 54.347656 693.398438 52.964844 691.613281 51.976562 C 689.828125 50.992188 687.835938 50.339844 685.632812 50.019531 C 683.433594 49.703125 681.214844 49.542969 678.980469 49.542969 C 676.175781 49.542969 673.542969 49.828125 671.085938 50.402344 C 668.628906 50.976562 666.445312 51.917969 664.53125 53.226562 C 662.617188 54.535156 661.085938 56.242188 659.9375 58.347656 C 658.789062 60.453125 658.152344 63.035156 658.023438 66.097656 L 666.15625 66.097656 C 666.351562 62.460938 667.59375 59.988281 669.890625 58.679688 C 672.1875 57.375 675.058594 56.71875 678.503906 56.71875 C 679.777344 56.71875 681.070312 56.816406 682.378906 57.007812 C 683.6875 57.199219 684.867188 57.582031 685.921875 58.15625 C 686.972656 58.730469 687.835938 59.558594 688.503906 60.644531 C 689.175781 61.730469 689.507812 63.164062 689.507812 64.949219 C 689.507812 66.480469 689.0625 67.644531 688.167969 68.441406 C 687.273438 69.242188 686.0625 69.847656 684.53125 70.261719 C 683 70.675781 681.230469 70.996094 679.222656 71.21875 C 677.210938 71.441406 675.089844 71.777344 672.855469 72.222656 C 670.753906 72.605469 668.695312 73.085938 666.683594 73.65625 C 664.675781 74.234375 662.886719 75.078125 661.324219 76.195312 C 659.761719 77.3125 658.503906 78.761719 657.546875 80.550781 C 656.589844 82.335938 656.109375 84.632812 656.109375 87.4375 C 656.109375 89.925781 656.539062 92.050781 657.402344 93.804688 C 658.261719 95.558594 659.425781 96.976562 660.894531 98.0625 C 662.363281 99.148438 664.101562 99.945312 666.109375 100.453125 C 668.121094 100.964844 670.238281 101.21875 672.472656 101.21875 C 675.921875 101.21875 679.125 100.628906 682.09375 99.449219 C 685.058594 98.269531 687.65625 96.339844 689.890625 93.660156 C 689.890625 96.339844 690.515625 98.269531 691.757812 99.449219 C 693.003906 100.628906 694.675781 101.21875 696.78125 101.21875 C 699.269531 101.21875 701.214844 100.804688 702.621094 99.976562 Z M 689.414062 82.902344 C 689.414062 84.042969 689.125 85.265625 688.550781 86.566406 C 687.976562 87.867188 687.085938 89.074219 685.871094 90.1875 C 684.660156 91.296875 683.097656 92.21875 681.183594 92.949219 C 679.269531 93.679688 676.972656 94.042969 674.292969 94.042969 C 673.015625 94.042969 671.804688 93.917969 670.65625 93.664062 C 669.507812 93.40625 668.503906 92.996094 667.640625 92.425781 C 666.78125 91.851562 666.078125 91.105469 665.535156 90.1875 C 664.992188 89.265625 664.722656 88.140625 664.722656 86.804688 C 664.722656 84.773438 665.183594 83.171875 666.109375 81.996094 C 667.035156 80.820312 668.230469 79.914062 669.699219 79.28125 C 671.164062 78.648438 672.824219 78.1875 674.675781 77.902344 C 676.523438 77.617188 678.359375 77.363281 680.179688 77.140625 C 681.996094 76.917969 683.734375 76.632812 685.394531 76.28125 C 687.050781 75.933594 688.390625 75.378906 689.414062 74.613281 Z M 719.460938 50.691406 L 719.460938 61.121094 L 719.652344 61.121094 C 721.628906 57.101562 724.054688 54.136719 726.925781 52.222656 C 729.796875 50.308594 733.433594 49.414062 737.835938 49.542969 L 737.835938 58.15625 C 734.582031 58.15625 731.808594 58.601562 729.511719 59.496094 C 727.214844 60.390625 725.363281 61.695312 723.960938 63.417969 C 722.554688 65.140625 721.535156 67.230469 720.898438 69.6875 C 720.257812 72.144531 719.941406 74.96875 719.941406 78.15625 L 719.941406 100.167969 L 711.804688 100.167969 L 711.804688 50.691406 Z M 777.21875 65.238281 C 776.484375 63.515625 775.492188 62.03125 774.25 60.785156 C 773.007812 59.542969 771.539062 58.554688 769.847656 57.820312 C 768.15625 57.085938 766.289062 56.71875 764.25 56.71875 C 762.144531 56.71875 760.246094 57.085938 758.554688 57.820312 C 756.863281 58.554688 755.410156 59.558594 754.199219 60.835938 C 752.988281 62.113281 752.03125 63.59375 751.328125 65.285156 C 750.628906 66.976562 750.214844 68.777344 750.085938 70.691406 L 778.507812 70.691406 C 778.378906 68.777344 777.949219 66.960938 777.21875 65.238281 Z M 779.179688 97.007812 C 775.476562 99.816406 770.820312 101.21875 765.207031 101.21875 C 761.25 101.21875 757.820312 100.582031 754.917969 99.304688 C 752.015625 98.03125 749.574219 96.242188 747.597656 93.945312 C 745.621094 91.648438 744.136719 88.90625 743.148438 85.71875 C 742.15625 82.527344 741.601562 79.050781 741.472656 75.285156 C 741.472656 71.523438 742.046875 68.074219 743.195312 64.949219 C 744.34375 61.824219 745.953125 59.113281 748.027344 56.816406 C 750.101562 54.519531 752.558594 52.734375 755.398438 51.457031 C 758.234375 50.179688 761.347656 49.542969 764.726562 49.542969 C 769.128906 49.542969 772.78125 50.449219 775.6875 52.269531 C 778.589844 54.089844 780.917969 56.402344 782.671875 59.207031 C 784.425781 62.015625 785.640625 65.078125 786.308594 68.394531 C 786.976562 71.714844 787.25 74.871094 787.121094 77.867188 L 750.085938 77.867188 C 750.023438 80.039062 750.277344 82.097656 750.851562 84.042969 C 751.425781 85.988281 752.351562 87.710938 753.628906 89.210938 C 754.902344 90.710938 756.527344 91.90625 758.507812 92.796875 C 760.484375 93.691406 762.8125 94.136719 765.492188 94.136719 C 768.9375 94.136719 771.761719 93.339844 773.964844 91.746094 C 776.164062 90.152344 777.613281 87.726562 778.316406 84.472656 L 786.355469 84.472656 C 785.269531 90.023438 782.878906 94.203125 779.179688 97.007812 "/>
<path style=" stroke:none;fill-rule:nonzero;fill:rgb(97.880554%,69.718933%,4.23584%);fill-opacity:1;" d="M 141.050781 68.722656 L 141.050781 64.371094 L 139.355469 64.371094 C 136.679688 64.371094 134.761719 62.851562 133.855469 61.949219 C 132.328125 60.421875 131.554688 57.886719 131.554688 54.402344 L 131.554688 29.523438 C 131.554688 23.394531 130.828125 20.699219 128.566406 18.4375 C 126.328125 16.199219 123.152344 15.328125 117.238281 15.328125 L 116.027344 15.328125 L 116.027344 19.796875 L 117.121094 19.796875 C 121.558594 19.796875 123.226562 20.179688 124.542969 21.5 C 125.875 22.960938 126.363281 25.164062 126.363281 29.644531 L 126.363281 54.523438 C 126.363281 60.328125 128.347656 63.582031 133.433594 66.128906 L 134.277344 66.546875 L 133.433594 66.964844 C 128.347656 69.511719 126.363281 72.761719 126.363281 78.566406 L 126.363281 103.445312 C 126.363281 107.925781 125.875 110.128906 124.558594 111.574219 C 123.226562 112.90625 121.5625 113.289062 117.121094 113.289062 L 116.027344 113.289062 L 116.027344 117.761719 L 117.238281 117.761719 C 123.15625 117.761719 126.332031 116.886719 128.566406 114.652344 C 130.828125 112.390625 131.554688 109.699219 131.554688 103.566406 L 131.554688 78.683594 C 131.554688 75.203125 132.328125 72.664062 133.859375 71.136719 C 134.765625 70.234375 136.683594 68.722656 139.355469 68.722656 Z M 113.636719 56.324219 C 113.636719 44.328125 88.363281 34.601562 57.1875 34.601562 C 26.011719 34.601562 0.738281 44.328125 0.738281 56.324219 C 0.738281 68.320312 26.011719 78.046875 57.1875 78.046875 C 88.363281 78.046875 113.636719 68.320312 113.636719 56.324219 Z M 106.957031 55.769531 C 106.957031 65.300781 84.589844 73.023438 57 73.023438 C 29.40625 73.023438 7.039062 65.300781 7.039062 55.769531 C 7.039062 46.242188 29.40625 38.515625 57 38.515625 C 84.589844 38.515625 106.957031 46.242188 106.957031 55.769531 Z M 70.78125 17.304688 C 74.214844 13 75.128906 5.511719 67.804688 0.644531 C 67.804688 0.644531 69.410156 5.511719 65.289062 13.746094 C 61.167969 21.984375 62.769531 25.542969 67.578125 29.847656 C 67.578125 29.847656 67.347656 21.613281 70.78125 17.304688 Z M 53.960938 17.117188 C 57.394531 12.8125 58.308594 5.324219 50.984375 0.453125 C 50.984375 0.453125 52.585938 5.324219 48.464844 13.5625 C 44.347656 21.800781 45.949219 25.355469 50.753906 29.660156 C 50.753906 29.660156 50.527344 21.425781 53.960938 17.117188 Z M 58.746094 80.089844 C 30.121094 80.289062 15.644531 75.148438 4.058594 65.777344 C 6.699219 89.695312 31.464844 110.828125 59.085938 110.242188 C 83.277344 109.734375 106.617188 93.71875 109.683594 66.289062 C 101.566406 74.457031 82.9375 79.917969 58.746094 80.089844 "/>
</g>
</svg>
