<?xml version="1.0" encoding="utf-8"?>
<svg version="1.1" xmlns="http://www.w3.org/2000/svg" xmlns:xlink="http://www.w3.org/1999/xlink" x="0px" y="0px"
	 viewBox="0 0 200 100" xml:space="preserve">
<style type="text/css">
	.text{fill:#00003F;}
	.bottom{fill:#E84100;}
	.top{fill:#AAEACD;}
	.center{fill:#FBA018;}
</style>
<title>Seq</title>
<path class="text" d="M147.6,29.3v60.8h-11.4V66.6c-3.1,3.5-8.2,5.4-13.7,5.4c-11.9-0.2-20.1-9-20.1-22.1c0-13.2,8.5-21.9,20.4-21.9
	c6.3,0,11.7,2.5,14.5,6.7l0.7-5.3L147.6,29.3z M136,50c0-7.1-4.5-11.8-11-11.8s-10.8,4.7-10.8,11.6s4.3,11.7,10.9,11.7
	C131.5,61.6,136,57.2,136,50L136,50z"/>
<path class="text" d="M26.8,10.3c12.8,0,21.6,7,21.7,17.9H36.1c-0.1-4.7-4.2-7.7-9.9-7.7c-5.3,0-8.7,2.7-8.7,6.8
	c0,4.4,3.8,5.8,7.8,6.8l9.5,2.3c9.5,2.1,15.3,8.1,15.3,16.9C50.1,64.7,41,72,27.2,72c-13.6,0-22.9-7-23.6-18.5H16
	c0.3,5.3,4.7,8.3,11.3,8.3c6.4,0,10.1-2.8,10.1-7.3c0-4.2-3.2-5.7-6.8-6.7l-9.8-2.4C10.4,43,5.1,37.2,5.1,28.7
	C5.1,17.4,13.8,10.3,26.8,10.3z"/>
<path class="text" d="M77.1,72C64,72,55.3,63,55.3,49.9c0-13.4,9-21.9,21.6-21.9c12.4,0,20.6,8.3,20.6,19.9c0,1.8-0.2,3.6-0.5,5.4
	H66.7c0.3,5.6,4.3,9.4,10.4,9.4c4.4,0,8-1.9,9.3-5h11.2C95.7,66.2,87.5,72,77.1,72z M85.7,45.5c-0.2-5.1-4-8.1-9.3-8.1
	c-5.5,0-9.4,3.1-9.7,8.1H85.7z"/>
<polygon class="bottom" points="196.4,41.1 172,60.6 172,29.4 181.4,41.1 "/>
<polygon class="top" points="196.4,41.1 196.4,9.9 172,29.4 187,29.4 "/>
<polygon class="center" points="172,29.4 187,29.4 196.4,41.1 181.4,41.1 "/>
</svg>
