<?xml version="1.0" encoding="UTF-8" ?>
<!DOCTYPE svg PUBLIC "-//W3C//DTD SVG 1.1//EN" "http://www.w3.org/Graphics/SVG/1.1/DTD/svg11.dtd">
<svg width="197pt" height="203pt" viewBox="0 0 197 203" version="1.1" xmlns="http://www.w3.org/2000/svg">
<path fill="#1b96fe" d=" M 0.00 0.00 L 0.71 0.00 C 2.61 1.51 5.01 2.06 7.28 2.76 C 70.53 23.22 133.73 43.92 197.00 64.32 L 197.00 64.60 C 193.71 66.26 191.28 69.13 188.52 71.51 C 158.51 98.53 128.50 125.56 98.48 152.57 C 80.15 169.25 61.50 185.59 43.33 202.45 C 29.70 137.61 15.77 72.84 2.09 8.02 C 1.51 5.86 1.49 3.32 0.00 1.54 L 0.00 0.00 Z" />
<path fill="#ffffff" d=" M 0.71 0.00 L 197.00 0.00 L 197.00 64.32 C 133.73 43.92 70.53 23.22 7.28 2.76 C 5.01 2.06 2.61 1.51 0.71 0.00 Z" />
<path fill="#ffffff" d=" M 0.00 1.54 C 1.49 3.32 1.51 5.86 2.09 8.02 C 15.77 72.84 29.70 137.61 43.33 202.45 C 61.50 185.59 80.15 169.25 98.48 152.57 C 128.50 125.56 158.51 98.53 188.52 71.51 C 191.28 69.13 193.71 66.26 197.00 64.60 L 197.00 203.00 L 0.00 203.00 L 0.00 1.54 Z" />
<path fill="#ffffff" d=" M 40.45 62.30 C 41.99 62.25 43.52 62.21 45.06 62.18 C 45.27 76.46 45.08 90.76 45.15 105.05 C 43.36 105.39 42.27 104.38 41.59 102.83 C 37.51 106.79 30.09 107.09 26.31 102.60 C 23.04 99.17 24.53 94.14 24.22 89.92 C 24.58 85.63 23.00 80.59 26.13 77.00 C 29.53 72.74 36.39 72.55 40.56 75.76 C 40.32 71.28 40.43 66.79 40.45 62.30 Z" />
<path fill="#ffffff" d=" M 78.10 62.20 C 86.10 62.21 94.10 62.18 102.09 62.22 C 102.20 63.63 102.12 65.08 101.36 66.31 C 95.45 77.77 89.65 89.29 83.68 100.71 C 89.82 100.47 95.97 100.54 102.12 100.66 C 102.14 102.08 102.16 103.51 102.17 104.94 C 93.83 104.95 85.48 105.17 77.15 104.82 C 77.39 103.51 77.58 102.17 78.24 100.99 C 84.12 89.60 89.89 78.15 95.80 66.77 C 89.90 66.81 83.99 66.80 78.09 66.79 C 78.09 65.26 78.09 63.73 78.10 62.20 Z" />
<path fill="#ffffff" d=" M 110.17 67.25 C 111.59 66.91 113.02 66.56 114.45 66.22 C 114.71 68.88 114.72 71.55 114.63 74.22 C 117.19 74.21 119.74 74.20 122.30 74.20 C 122.38 75.60 122.45 77.01 122.51 78.41 C 119.89 78.76 117.26 78.72 114.63 78.64 C 114.86 85.09 114.30 91.58 114.93 98.01 C 115.91 101.17 119.71 101.09 122.38 101.09 C 122.39 102.39 122.39 103.68 122.39 104.98 C 120.23 104.98 118.06 105.11 115.91 104.84 C 112.59 103.90 109.95 100.52 110.20 97.01 C 110.21 90.88 110.21 84.76 110.23 78.63 C 108.49 78.66 106.75 78.68 105.01 78.73 C 104.62 77.24 104.70 75.71 104.86 74.20 C 106.65 74.21 108.44 74.21 110.23 74.22 C 110.22 71.89 110.21 69.57 110.17 67.25 Z" />
<path fill="#ffffff" d=" M 57.21 74.33 C 60.31 73.28 63.77 73.31 66.87 74.31 C 70.20 75.75 72.66 79.26 72.42 82.96 C 72.40 90.36 72.41 97.76 72.40 105.17 C 70.63 105.37 69.60 104.14 68.68 102.86 C 64.98 106.60 58.49 106.93 54.46 103.57 C 50.16 99.87 50.27 92.21 54.88 88.80 C 58.48 85.81 63.49 87.45 67.75 86.99 C 67.55 84.31 68.52 80.86 65.90 79.06 C 62.04 75.92 55.42 78.96 56.17 84.19 C 54.67 84.05 53.18 83.91 51.68 83.78 C 51.27 79.84 53.53 75.84 57.21 74.33 Z" />
<path fill="#ffffff" d=" M 128.08 83.75 C 127.63 78.61 131.77 73.67 137.02 73.64 C 141.96 72.75 147.95 75.51 148.74 80.84 C 149.00 88.93 148.79 97.03 148.82 105.13 C 147.15 105.36 146.09 104.39 145.38 102.98 C 141.48 106.13 135.43 107.15 131.35 103.79 C 125.92 99.76 127.06 89.80 133.58 87.47 C 137.03 86.59 140.68 87.18 144.21 87.04 C 144.16 84.21 144.97 80.48 142.06 78.74 C 138.11 76.16 132.00 79.05 132.69 84.11 C 131.15 83.99 129.61 83.87 128.08 83.75 Z" />
<path fill="#1b96fe" d=" M 32.21 78.16 C 35.12 77.33 39.01 77.99 40.30 81.08 C 40.55 86.73 40.48 92.42 40.34 98.07 C 38.64 102.72 30.48 102.72 28.94 97.95 C 28.70 92.97 28.90 87.97 28.83 82.99 C 28.63 80.83 30.26 78.87 32.21 78.16 Z" />
<path fill="#1b96fe" d=" M 56.51 98.63 C 55.47 95.94 56.08 92.18 59.05 91.01 C 61.92 90.39 64.88 90.79 67.79 90.76 C 67.37 94.02 68.93 98.45 65.60 100.59 C 62.76 102.02 58.02 101.99 56.51 98.63 Z" />
<path fill="#1b96fe" d=" M 135.20 91.09 C 138.14 90.37 141.21 90.81 144.21 90.71 C 143.98 94.17 145.42 98.76 141.77 100.92 C 138.84 101.76 134.81 101.92 133.09 98.87 C 131.94 96.20 132.49 92.62 135.20 91.09 Z" />
</svg>
