<?xml version="1.0" encoding="utf-8"?>
<!-- Generator: Adobe Illustrator 18.1.1, SVG Export Plug-In . SVG Version: 6.00 Build 0)  -->
<!DOCTYPE svg PUBLIC "-//W3C//DTD SVG 1.1//EN" "http://www.w3.org/Graphics/SVG/1.1/DTD/svg11.dtd">
<svg version="1.1" id="Layer_1" xmlns="http://www.w3.org/2000/svg" xmlns:xlink="http://www.w3.org/1999/xlink" x="0px" y="0px"
	 viewBox="89.9 347.3 432.2 98.4" enable-background="new 89.9 347.3 432.2 98.4" xml:space="preserve">
<g id="XMLID_22_">
	<g id="XMLID_23_">
		<g id="XMLID_30_">
			<path id="XMLID_47_" fill="#007EE5" d="M211.2,366.9h20.9c17.9,0,29.2,11.6,29.2,29.6s-11.3,29.6-29.2,29.6h-20.9V366.9z
				 M231.6,415.2c11.3,0,17.4-7.2,17.4-18.7c0-11.6-6.2-18.8-17.4-18.8h-8.2v37.5H231.6z"/>
			<path id="XMLID_45_" fill="#007EE5" d="M293,394.8c-1.6-1-3.8-1.4-6-1.4c-4,0-7.3,2.1-8.2,6.1v26.7h-12V383h12v4.2
				c1.8-3.1,5.4-5.2,9.6-5.2c2,0,3.9,0.4,4.5,0.8L293,394.8L293,394.8z"/>
			<path id="XMLID_42_" fill="#007EE5" d="M316.8,427c-12.5,0-21.1-9.3-21.1-22.5c0-13.3,8.6-22.6,21.1-22.6
				c12.5,0,21.1,9.3,21.1,22.6C337.9,417.8,329.4,427,316.8,427z M316.8,392.2c-6,0-9.3,5.2-9.3,12.4c0,7.1,3.3,12.3,9.3,12.3
				c6,0,9.3-5.2,9.3-12.3C326.1,397.4,322.8,392.2,316.8,392.2z"/>
			<path id="XMLID_39_" fill="#007EE5" d="M355,442h-12v-59h12v3.6c1.9-2.3,6.2-4.5,10.8-4.5c12.5,0,19.7,10.4,19.7,22.6
				c0,12.1-7.1,22.5-19.7,22.5c-4.6,0-8.9-2.2-10.8-4.5V442z M355,411.6c1.4,3,4.6,5,8.1,5c6.5,0,10.3-5.2,10.3-12
				c0-6.9-3.9-12.1-10.3-12.1c-3.6,0-6.7,2.1-8.1,5V411.6z"/>
			<path id="XMLID_36_" fill="#007EE5" d="M402.7,426.1h-12v-62.6h12v23.1c1.9-2.3,6.2-4.5,10.8-4.5c12.5,0,19.6,10.2,19.6,22.6
				s-7,22.5-19.6,22.5c-4.6,0-8.9-2.2-10.8-4.5V426.1z M402.7,411.6c1.3,3,4.5,5,8.1,5c6.5,0,10.3-5.2,10.3-12
				c0-6.9-3.9-12.1-10.3-12.1c-3.5,0-6.7,2.1-8.1,5V411.6z"/>
			<path id="XMLID_33_" fill="#007EE5" d="M458.4,427.2c-12.5,0-21.1-9.3-21.1-22.5c0-13.3,8.6-22.6,21.1-22.6
				c12.5,0,21.1,9.3,21.1,22.6C479.5,417.9,470.9,427.2,458.4,427.2z M458.4,392.3c-6,0-9.3,5.2-9.3,12.4c0,7.1,3.3,12.3,9.3,12.3
				c6,0,9.3-5.2,9.3-12.3C467.7,397.5,464.4,392.3,458.4,392.3z"/>
			<path id="XMLID_31_" fill="#007EE5" d="M506.4,403.8l15.7,22.3h-13.2l-9.3-13.5l-9.4,13.5h-12.5l15.5-22L478.6,383h13.2l8.3,12.2
				l8.5-12.2h12.5L506.4,403.8z"/>
		</g>
		<g id="XMLID_24_">
			<polygon id="XMLID_29_" fill="#007EE5" points="121.1,347.3 89.9,367.4 111.5,384.8 142.8,365.5 			"/>
			<polygon id="XMLID_28_" fill="#007EE5" points="89.9,401.9 121.1,422.4 142.8,404.2 111.5,384.8 			"/>
			<polygon id="XMLID_27_" fill="#007EE5" points="142.8,404.2 164.6,422.4 195.7,402.1 174.2,384.8 			"/>
			<polygon id="XMLID_26_" fill="#007EE5" points="195.7,367.6 164.6,347.3 142.8,365.5 174.2,384.8 			"/>
			<polygon id="XMLID_25_" fill="#007EE5" points="142.9,408.1 121.1,426.2 111.7,420.1 111.7,427 142.9,445.7 174.1,427
				174.1,420.1 164.7,426.2 			"/>
		</g>
	</g>
</g>
</svg>
