<?xml version="1.0" encoding="utf-8"?>
<!-- Generator: Adobe Illustrator 20.1.0, SVG Export Plug-In . SVG Version: 6.00 Build 0)  -->
<svg version="1.1" id="Слой_1" xmlns="http://www.w3.org/2000/svg" xmlns:xlink="http://www.w3.org/1999/xlink" x="0px" y="0px"
	 viewBox="0 0 560 280" style="enable-background:new 0 0 560 280;" xml:space="preserve">
<style type="text/css">
	.st0{fill:#04070D;}
</style>
<path class="st0" d="M531.8,34.5c-7.7,0-14,6.3-14,14s6.3,14,14,14c7.7,0,14-6.3,14-14S539.5,34.5,531.8,34.5z"/>
<g>
	<path class="st0" d="M336,38.2c-2.1-1.3-4.5-1.7-6.9-1.1c-2.4,0.6-4.4,2-5.7,4.1L267.9,131l-55.4-89.8c-1.3-2.1-3.3-3.5-5.7-4.1
		c-2.4-0.6-4.8-0.2-6.9,1.1c-4.3,2.6-5.6,8.3-3,12.6l63.2,102.5c1.7,2.7,4.6,4.3,7.8,4.3s6.1-1.7,7.8-4.3l63.2-102.5
		C341.6,46.5,340.2,40.8,336,38.2z"/>
	<path class="st0" d="M71.1,98.7l29.8-47.1C78.3,42.3,52.2,50.4,39,71.4c-14.9,23.6-7.8,54.9,15.7,69.8
		c23.6,14.9,54.9,7.8,69.8-15.7c2.5-4,8.2-5.3,12.2-2.7c2,1.3,3.4,3.2,3.9,5.5c0.5,2.3,0.1,4.7-1.1,6.6
		c-9.7,15.4-24.9,26.1-42.7,30.1c-17.8,4-36.1,0.9-51.4-8.9C13.5,136,4,93.8,24.1,62C33.8,46.6,49,35.9,66.8,31.9
		c17.8-4,36.1-0.9,51.4,8.9c2,1.3,3.4,3.2,3.9,5.5c0.5,2.3,0.1,4.7-1.1,6.6L86,108.1c-2.5,4-8.2,5.3-12.2,2.7
		C69.8,108.3,68.5,102.8,71.1,98.7z"/>
	<path class="st0" d="M503.2,84c-9.8-8.3-12.3-16-14.9-24c-3.4-10.5-7.3-22.5-28.2-26.6c-19.9-3.9-40.1,9.9-51.2,25.3
		c-19.9,27.5-20,74.6,9.6,96.5c9.8,7.3,24.1,11.4,39.3,11.4c5.2,0,10.4-0.5,15.2-1.5c16.8-3.4,29.8-12.1,37.6-25.2
		C523.5,118,521,99.2,503.2,84z M428.4,141.8c-21.6-16-21-52.6-6-73.4c6.9-9.5,19-19.1,30.7-19.1c1.3,0,2.6,0.1,3.8,0.4
		c11.3,2.2,12.6,6.1,15.6,15.4c2.9,9,6.6,20.2,20,31.6c11.5,9.7,12.6,19.8,3.8,34.7c-6.6,11.2-18.1,15.7-26.5,17.4
		C454.9,151.8,437.9,148.9,428.4,141.8z"/>
</g>
<g>
	<path class="st0" d="M91.7,233.5c1.2,0,2.2-0.5,3-1.4c0.8-0.9,1.2-2.1,1.2-3.7h4.3l0,0.1c0.1,2.4-0.8,4.4-2.4,6.1
		c-1.7,1.6-3.7,2.5-6.1,2.5c-3.2,0-5.6-1.1-7.3-3.2c-1.7-2.1-2.5-4.9-2.5-8.2v-3.5c0-3.3,0.8-6.1,2.5-8.2s4.1-3.2,7.3-3.2
		c2.6,0,4.7,0.9,6.3,2.6s2.4,3.9,2.3,6.7l-0.1,0.1H96c0-1.7-0.4-3.1-1.2-4.2s-1.8-1.6-3.1-1.6c-1.8,0-3.1,0.7-3.9,2.2
		c-0.8,1.5-1.1,3.4-1.1,5.6v3.5c0,2.3,0.4,4.2,1.1,5.6C88.6,232.8,89.9,233.5,91.7,233.5z"/>
	<path class="st0" d="M137.9,222.3c0-3.4,0.9-6.2,2.6-8.3c1.8-2.2,4.2-3.3,7.3-3.3c3.1,0,5.5,1.1,7.2,3.3c1.8,2.2,2.7,5,2.7,8.3v3.2
		c0,3.4-0.9,6.2-2.6,8.3c-1.8,2.2-4.2,3.2-7.2,3.2c-3.1,0-5.5-1.1-7.3-3.2c-1.8-2.2-2.6-4.9-2.6-8.3V222.3z M142.6,225.6
		c0,2.3,0.4,4.2,1.3,5.7c0.8,1.5,2.1,2.2,3.9,2.2c1.7,0,3-0.7,3.8-2.2c0.9-1.5,1.3-3.4,1.3-5.7v-3.3c0-2.3-0.4-4.2-1.3-5.7
		c-0.9-1.5-2.1-2.3-3.8-2.3c-1.7,0-3,0.7-3.9,2.2c-0.8,1.5-1.3,3.4-1.3,5.7V225.6z"/>
	<path class="st0" d="M200.8,211.2l0.3,3.5c0.7-1.3,1.6-2.2,2.6-2.9c1.1-0.7,2.3-1,3.7-1c1.4,0,2.6,0.4,3.6,1.2c1,0.8,1.8,2,2.3,3.5
		c0.7-1.5,1.5-2.6,2.6-3.5c1.1-0.8,2.4-1.2,3.9-1.2c2.2,0,3.9,0.9,5.1,2.7c1.2,1.8,1.9,4.5,1.9,8.1v15.1h-4.8v-15.2
		c0-2.6-0.3-4.4-1-5.5c-0.6-1.1-1.6-1.6-2.8-1.6c-1.1,0-2,0.4-2.7,1.2c-0.7,0.8-1.3,1.9-1.6,3.3c0-0.1,0,0.1,0,0.6
		c0,0.5,0,0.9,0,1.1v16h-4.8v-15.2c0-2.5-0.3-4.3-1-5.4c-0.7-1.1-1.6-1.6-2.9-1.6c-1,0-1.9,0.3-2.6,0.8c-0.7,0.6-1.3,1.3-1.6,2.3
		v19.1h-4.8v-25.5H200.8z"/>
	<path class="st0" d="M285.4,226.1c0,3.4-0.7,6-2.2,8.1c-1.5,2-3.5,3-6.1,3c-1.2,0-2.3-0.2-3.3-0.7c-0.9-0.5-1.8-1.2-2.4-2.1v12.2
		h-4.8v-35.3h4.3l0.3,2.9c0.7-1.1,1.5-1.9,2.5-2.5c1-0.6,2.1-0.9,3.4-0.9c2.7,0,4.7,1.1,6.2,3.3c1.5,2.2,2.2,5.2,2.2,8.8V226.1z
		 M280.6,222.9c0-2.5-0.4-4.5-1.2-6.1c-0.8-1.6-2.1-2.4-3.7-2.4c-1,0-1.9,0.3-2.6,0.9c-0.7,0.6-1.3,1.4-1.7,2.4v12.9
		c0.4,1,1,1.7,1.7,2.2c0.7,0.5,1.6,0.8,2.7,0.8c1.6,0,2.9-0.7,3.7-2.1c0.8-1.4,1.2-3.2,1.2-5.4V222.9z"/>
	<path class="st0" d="M337.2,236.7c-0.2-0.6-0.3-1.1-0.4-1.7c-0.1-0.6-0.2-1.1-0.2-1.7c-0.7,1.1-1.6,2.1-2.7,2.8
		c-1.1,0.7-2.3,1.1-3.6,1.1c-2.2,0-3.8-0.7-5-2c-1.2-1.4-1.8-3.2-1.8-5.4c0-2.4,0.8-4.3,2.5-5.7c1.7-1.4,4-2.1,7-2.1h3.6v-2.6
		c0-1.5-0.3-2.7-1-3.6c-0.7-0.9-1.7-1.3-2.9-1.3c-1.1,0-2.1,0.4-2.8,1.2c-0.7,0.8-1,1.8-1,2.9l-4.5,0l-0.1-0.1
		c-0.1-2,0.7-3.7,2.4-5.3c1.6-1.5,3.8-2.3,6.4-2.3c2.5,0,4.5,0.7,6.1,2.2c1.6,1.5,2.3,3.6,2.3,6.3v11.8c0,1,0.1,1.9,0.2,2.9
		s0.3,1.8,0.6,2.7H337.2z M331.4,233.5c1.1,0,2.1-0.3,3-1c0.9-0.7,1.6-1.5,2-2.5v-5.2h-3.6c-1.5,0-2.6,0.5-3.4,1.4
		c-0.8,0.9-1.2,2.1-1.2,3.4c0,1.2,0.3,2.1,0.8,2.8C329.6,233.2,330.4,233.5,331.4,233.5z"/>
	<path class="st0" d="M385.2,211.2l0.3,3.8c0.7-1.3,1.6-2.4,2.7-3.1c1.1-0.7,2.3-1.1,3.7-1.1c2.2,0,4,0.8,5.2,2.5s1.9,4.2,1.9,7.7
		v15.8h-4.8v-15.7c0-2.4-0.3-4-1-5c-0.7-1-1.7-1.5-3.1-1.5c-1,0-1.8,0.3-2.6,0.9c-0.8,0.6-1.4,1.4-1.8,2.5v18.9h-4.8v-25.5H385.2z"
		/>
	<path class="st0" d="M445.7,227.9l0.4,1.7h0.1l4.9-18.4h5.2l-8.9,29.4c-0.6,1.8-1.4,3.3-2.4,4.5c-1,1.2-2.5,1.8-4.4,1.8
		c-0.4,0-0.8,0-1.3-0.1c-0.4-0.1-0.9-0.2-1.3-0.3l0.5-3.5c0.2,0,0.4,0.1,0.7,0.1c0.3,0,0.5,0,0.7,0c0.9,0,1.7-0.4,2.2-1.2
		c0.5-0.8,1-1.7,1.3-2.8l0.8-2.6l-7.9-25.3h5.2L445.7,227.9z"/>
</g>
</svg>
