<?xml version="1.0" encoding="utf-8"?>
<!-- Generator: Adobe Illustrator 17.0.0, SVG Export Plug-In . SVG Version: 6.00 Build 0)  -->
<!DOCTYPE svg PUBLIC "-//W3C//DTD SVG 1.1//EN" "http://www.w3.org/Graphics/SVG/1.1/DTD/svg11.dtd">
<svg version="1.1" id="Layer_1" xmlns="http://www.w3.org/2000/svg" xmlns:xlink="http://www.w3.org/1999/xlink" x="0px" y="0px"
	 width="150px" height="43.672px" viewBox="0 0 150 43.672" enable-background="new 0 0 150 43.672" xml:space="preserve">
<circle fill="#333333" cx="19.312" cy="19.313" r="19.312"/>
<polygon fill="#FFFFFF" points="22.972,2.889 8.082,22.328 16.768,22.328 "/>
<polygon fill="#FFFFFF" points="15.653,35.736 30.542,16.297 21.857,16.297 "/>
<g enable-background="new    ">
	<path fill="#333333" d="M48.323,25.294H51V12.605h-2.678v-1.593h13.727v5.283h-1.158c-1.013-3.088-1.423-3.69-3.281-3.69h-4.125
		v5.717h1.375c1.785,0,2.123-0.289,2.461-2.46H58.6v6.417h-1.278c-0.29-2.268-0.676-2.605-2.461-2.605h-1.375v5.621h2.943v1.592
		h-8.106V25.294z"/>
	<path fill="#333333" d="M62.823,24.16c0-0.772,0.241-1.448,0.82-2.027c0.893-0.893,2.099-1.182,4.101-1.471
		c1.423-0.218,1.688-0.241,1.688-0.676v-1.134c0-1.424-0.675-1.954-2.195-1.954c-0.724,0-1.278,0.145-1.857,0.458
		c0.41,0.193,0.7,0.676,0.7,1.183c0,0.724-0.507,1.351-1.399,1.351c-0.941,0-1.472-0.699-1.472-1.399
		c0-1.761,2.051-2.822,4.536-2.822c2.509,0,3.956,1.037,3.956,3.354v5.596c0,0.555,0.169,0.796,0.748,0.796
		c0.338,0,0.627-0.338,0.869-0.868l0.844,0.507c-0.579,1.351-1.399,1.905-2.485,1.905c-1.013,0-1.978-0.579-1.978-1.93h-0.121
		c-0.604,1.182-2.123,1.979-3.546,1.979C64.005,27.007,62.823,25.824,62.823,24.16z M69.433,23.243v-1.906
		c-0.217,0.097-0.482,0.145-1.085,0.241c-2.34,0.362-3.064,0.651-3.064,2.098c0,1.062,0.555,1.786,1.785,1.786
		C68.154,25.463,69.433,24.522,69.433,23.243z"/>
	<path fill="#333333" d="M74.451,25.294h1.761v-7.865h-1.761v-1.592h3.98v2.557c0.555-1.857,2.002-2.701,3.257-2.701
		c1.23,0,1.93,0.844,1.93,1.882c0,0.844-0.627,1.567-1.447,1.567c-0.845,0-1.52-0.506-1.52-1.423c0-0.121,0.023-0.266,0.048-0.41
		c-1.086-0.049-1.833,1.182-2.22,2.63v5.355h2.099v1.592h-6.127V25.294z"/>
	<path fill="#333333" d="M84.367,24.16c0-0.772,0.241-1.448,0.82-2.027c0.893-0.893,2.099-1.182,4.101-1.471
		c1.424-0.218,1.688-0.241,1.688-0.676v-1.134c0-1.424-0.675-1.954-2.195-1.954c-0.724,0-1.278,0.145-1.857,0.458
		c0.41,0.193,0.7,0.676,0.7,1.183c0,0.724-0.507,1.351-1.399,1.351c-0.941,0-1.472-0.699-1.472-1.399
		c0-1.761,2.051-2.822,4.535-2.822c2.509,0,3.956,1.037,3.956,3.354v5.596c0,0.555,0.169,0.796,0.748,0.796
		c0.338,0,0.628-0.338,0.869-0.868l0.844,0.507c-0.579,1.351-1.399,1.905-2.484,1.905c-1.014,0-1.979-0.579-1.979-1.93h-0.12
		c-0.604,1.182-2.123,1.979-3.547,1.979C85.549,27.007,84.367,25.824,84.367,24.16z M90.977,23.243v-1.906
		c-0.217,0.097-0.482,0.145-1.085,0.241c-2.341,0.362-3.064,0.651-3.064,2.098c0,1.062,0.556,1.786,1.785,1.786
		C89.698,25.463,90.977,24.522,90.977,23.243z"/>
	<path fill="#333333" d="M97.708,25.921c-1.062-1.062-1.567-2.678-1.567-4.39c0-1.785,0.627-3.619,1.664-4.656
		c0.796-0.796,1.81-1.23,3.016-1.23c1.616,0,2.678,0.797,3.377,1.931V12.05h-1.833v-1.737h4.102v14.981h1.616v1.592h-3.836v-2.268
		c-0.82,1.664-2.147,2.484-3.619,2.484C99.493,27.103,98.432,26.645,97.708,25.921z M104.246,21.337
		c0-2.195-0.868-4.173-2.822-4.173c-1.762,0-2.774,1.544-2.774,4.173c0,2.726,1.278,4.246,2.774,4.246
		C102.871,25.583,104.246,24.039,104.246,21.337z"/>
	<path fill="#333333" d="M109.506,24.16c0-0.772,0.241-1.448,0.82-2.027c0.893-0.893,2.099-1.182,4.101-1.471
		c1.424-0.218,1.688-0.241,1.688-0.676v-1.134c0-1.424-0.675-1.954-2.195-1.954c-0.724,0-1.278,0.145-1.857,0.458
		c0.41,0.193,0.7,0.676,0.7,1.183c0,0.724-0.507,1.351-1.399,1.351c-0.941,0-1.472-0.699-1.472-1.399
		c0-1.761,2.051-2.822,4.535-2.822c2.509,0,3.956,1.037,3.956,3.354v5.596c0,0.555,0.169,0.796,0.748,0.796
		c0.338,0,0.628-0.338,0.869-0.868l0.844,0.507c-0.579,1.351-1.399,1.905-2.484,1.905c-1.014,0-1.979-0.579-1.979-1.93h-0.12
		c-0.604,1.182-2.123,1.979-3.547,1.979C110.688,27.007,109.506,25.824,109.506,24.16z M116.115,23.243v-1.906
		c-0.217,0.097-0.482,0.145-1.085,0.241c-2.341,0.362-3.064,0.651-3.064,2.098c0,1.062,0.556,1.786,1.785,1.786
		C114.837,25.463,116.115,24.522,116.115,23.243z"/>
	<path fill="#333333" d="M123.498,28.84c0,0.266-0.097,0.604-0.169,0.748c0.917-0.218,1.544-0.7,2.316-2.75l-3.812-9.409h-1.544
		v-1.592h5.838v1.592h-1.882l2.581,6.948l2.727-6.948h-1.544v-1.592h4.655v1.592h-1.423l-3.836,9.191
		c-1.447,3.426-2.871,4.294-4.535,4.294c-1.424,0-2.316-0.747-2.316-1.905c0-0.82,0.651-1.568,1.521-1.568
		C122.968,27.44,123.498,28.141,123.498,28.84z"/>
</g>
</svg>
