<?xml version="1.0" encoding="utf-8"?>
<!-- Generator: Adobe Illustrator 16.0.4, SVG Export Plug-In . SVG Version: 6.00 Build 0)  -->
<!DOCTYPE svg PUBLIC "-//W3C//DTD SVG 1.1//EN" "http://www.w3.org/Graphics/SVG/1.1/DTD/svg11.dtd">
<svg version="1.1" id="Layer_1" xmlns="http://www.w3.org/2000/svg" xmlns:xlink="http://www.w3.org/1999/xlink" x="0px" y="0px"
	 width="140.08px" height="97.749px" viewBox="0 0 140.08 97.749" enable-background="new 0 0 140.08 97.749" xml:space="preserve">
<g>
	<g>
		<polygon fill="#21205E" points="5.877,76.387 16.738,76.387 16.738,72.3 16.738,71.497 16.738,71.497 0,71.497 0,97.323 
			5.877,97.323 5.877,86.849 13.811,86.849 13.811,82.056 5.877,82.056 		"/>
		<g>
			<path fill="#21205E" d="M26.555,77.997c-6.107,0-10.127,3.904-10.127,10.012c0,6.105,4.252,9.74,9.779,9.74h0.039
				c5.023,0,9.932-3.17,9.932-10.051C36.178,81.978,32.314,77.997,26.555,77.997z M26.357,93.19h-0.035
				c-2.322,0-4.395-1.476-4.395-5.299c0-3.377,1.816-5.336,4.43-5.336c2.506,0,4.322,1.959,4.322,5.299
				C30.68,91.626,28.535,93.19,26.357,93.19z"/>
			<path fill="#21205E" d="M44.289,81.939v-3.518h-5.295v18.901h5.875v-9.548c0-0.502,0.037-0.927,0.115-1.313
				c0.387-1.855,1.855-2.977,4.02-2.977c0.658,0,1.121,0.077,1.625,0.155v-5.527c-0.428-0.078-0.697-0.116-1.238-0.116
				C47.535,77.997,45.254,79.157,44.289,81.939z"/>
			<path fill="#21205E" d="M61.666,73.281h-5.758v5.141h-2.512v4.329h2.512v7.77c0,2.667,0.539,4.483,1.623,5.604
				c0.965,0.968,2.551,1.625,4.443,1.625c1.625,0,3.055-0.232,3.789-0.504l-0.039-4.444c-0.541,0.116-0.928,0.155-1.74,0.155
				c-1.738,0-2.318-1.044-2.318-3.324v-6.881h4.213v-4.329h-4.213V73.281z"/>
			<path fill="#21205E" d="M77.342,77.997c-3.439,0-6.031,0.966-7.344,1.701l1.082,3.748c1.236-0.734,3.287-1.391,5.217-1.391
				c2.9,0,3.441,1.43,3.441,2.436v0.23c-6.689,0-11.094,2.32-11.094,7.229c0,3.016,2.279,5.799,6.109,5.799
				c2.24,0,4.174-0.812,5.41-2.32v1.895h5.76v-11.17C85.924,81.708,83.641,77.997,77.342,77.997z M79.932,90.442
				c0,0.349-0.039,0.696-0.117,1.006c-0.385,1.197-1.623,2.164-3.051,2.164c-1.316,0-2.322-0.734-2.322-2.241
				c0-2.242,2.396-2.978,5.49-2.978V90.442z"/>
			<path fill="#21205E" d="M100.871,77.997c-3.168,0-5.062,1.816-5.834,3.054H94.92v-2.629h-5.219v18.901h5.875v-10.9
				c0-0.541,0.039-1.082,0.193-1.469c0.426-1.082,1.393-2.203,3.016-2.203c2.125,0,2.977,1.662,2.977,4.098v10.475h5.875v-11.17
				C107.637,80.587,104.738,77.997,100.871,77.997z"/>
			<path fill="#21205E" d="M114.424,69.687c-2.01,0-3.324,1.353-3.324,3.131c0,1.739,1.275,3.131,3.248,3.131h0.037
				c2.051,0,3.326-1.392,3.326-3.131C117.672,71.039,116.436,69.687,114.424,69.687z"/>
			<rect x="111.447" y="78.422" fill="#21205E" width="5.875" height="18.901"/>
			<path fill="#21205E" d="M133.777,87.428l6.225-9.006h-6.379l-1.662,3.054c-0.5,0.967-0.965,1.895-1.467,2.938h-0.078
				c-0.502-0.928-1.006-1.855-1.547-2.822l-1.854-3.169h-6.574l6.262,9.276l-6.414,9.625h6.453l1.779-3.401
				c0.463-0.928,0.967-1.855,1.43-2.86h0.117c0.426,0.967,0.928,1.933,1.469,2.86l1.893,3.401h6.65L133.777,87.428z"/>
		</g>
	</g>
	<g>
		
			<linearGradient id="SVGID_1_" gradientUnits="userSpaceOnUse" x1="46.3477" y1="32.2847" x2="89.7324" y2="32.2847" gradientTransform="matrix(1 0 0 1 2 -1)">
			<stop  offset="0" style="stop-color:#21205E"/>
			<stop  offset="0.5369" style="stop-color:#6257A5"/>
			<stop  offset="1" style="stop-color:#3BC6F4"/>
		</linearGradient>
		<path fill="url(#SVGID_1_)" d="M85.404,15.846h6.328v-6.33h-6.328V15.846z M85.404,0v6.33h6.328V0H85.404z M85.404,25.363h6.328
			v-6.33h-6.328V25.363z M85.404,43.867h6.328V28.55h-6.328V43.867z M76.566,15.846h6.332v-6.33h-6.332V15.846z M76.566,54.397
			h6.332V19.034h-6.332V54.397z M66.877,34.881h6.328V28.55h-6.328V34.881z M66.877,6.33h6.33V0h-6.33V6.33z M66.877,25.363h6.328
			V9.516h-6.328V25.363z M66.877,62.569h6.328V37.517h-6.328V62.569z M48.348,15.846h6.33v-6.33h-6.33V15.846z M48.348,6.33h6.33V0
			h-6.33V6.33z M48.348,43.867h6.33V19.034h-6.33V43.867z M57.186,54.397h6.33V9.516h-6.33V54.397z"/>
	</g>
</g>
</svg>
