<?xml version="1.0" encoding="UTF-8" standalone="no"?>
<!-- Created with Inkscape (http://www.inkscape.org/) -->

<svg
   xmlns:dc="http://purl.org/dc/elements/1.1/"
   xmlns:cc="http://creativecommons.org/ns#"
   xmlns:rdf="http://www.w3.org/1999/02/22-rdf-syntax-ns#"
   xmlns:svg="http://www.w3.org/2000/svg"
   xmlns="http://www.w3.org/2000/svg"
   version="1.1"
   width="210.68849"
   height="114.5577"
   id="svg2">
  <defs
     id="defs4">
    <clipPath
       id="clipPath3169">
      <path
         d="m 0,145 0,4668 3500,0 0,-4668 -3500,0 z"
         id="path3171" />
    </clipPath>
    <clipPath
       id="clipPath3133">
      <path
         d="m 1028.23,3190.84 0,1404.58 -763.718,0 0,-1404.58 763.718,0 z"
         id="path3135" />
    </clipPath>
    <clipPath
       id="clipPath3079">
      <path
         d="m 0,145 0,4668 3500,0 0,-4668 -3500,0 z"
         id="path3081" />
    </clipPath>
    <clipPath
       id="clipPath3069">
      <path
         d="m 3500,145.836 0,4461.434 -3500,0 0,-4461.434 3500,0 z"
         id="path3071" />
    </clipPath>
    <clipPath
       id="clipPath3055">
      <path
         d="m 0,145 0,4668 3500,0 0,-4668 -3500,0 z"
         id="path3057" />
    </clipPath>
    <clipPath
       id="clipPath3045">
      <path
         d="m 3500,145.836 0,4461.434 -3500,0 0,-4461.434 3500,0 z"
         id="path3047" />
    </clipPath>
    <clipPath
       id="clipPath3011">
      <path
         d="m 0,145.836 3500,0 0,4666.66 -3500,0 0,-4666.66 z"
         id="path3013" />
    </clipPath>
    <clipPath
       id="clipPath3001">
      <path
         d="m 3500,145.836 0,4461.434 -3500,0 0,-4461.434 3500,0 z"
         id="path3003" />
    </clipPath>
    <clipPath
       id="clipPath3133-7">
      <path
         d="m 1028.23,3190.84 0,1404.58 -763.718,0 0,-1404.58 763.718,0 z"
         id="path3135-4" />
    </clipPath>
  </defs>
  <metadata
     id="metadata7">
    <rdf:RDF>
      <cc:Work
         rdf:about="">
        <dc:format>image/svg+xml</dc:format>
        <dc:type
           rdf:resource="http://purl.org/dc/dcmitype/StillImage" />
        <dc:title></dc:title>
      </cc:Work>
    </rdf:RDF>
  </metadata>
  <g
     transform="translate(-68.401993,-37.458723)"
     id="layer1">
    <g
       id="g3607">
      <path
         d="m 94.680493,62.213973 -2.2425,-22.25745 16.058997,-2.4978"
         id="path3087"
         style="fill:#00a998;fill-opacity:1;fill-rule:nonzero;stroke:none" />
      <path
         d="m 92.436493,39.956523 -10.11,9.87945 12.354,12.378"
         id="path3089"
         style="fill:#33baa4;fill-opacity:1;fill-rule:nonzero;stroke:none" />
      <path
         d="m 75.150493,42.645423 17.286,-2.6883 -10.1085,9.87885"
         id="path3091"
         style="fill:#73cfb9;fill-opacity:1;fill-rule:nonzero;stroke:none" />
      <path
         d="m 93.762493,63.075273 -22.791,-1.54215 12.504,-8.7639"
         id="path3093"
         style="fill:#33baa4;fill-opacity:1;fill-rule:nonzero;stroke:none" />
      <path
         d="m 70.971493,61.533123 3.2625,-18.02235 9.2415,9.25965"
         id="path3095"
         style="fill:#00a998;fill-opacity:1;fill-rule:nonzero;stroke:none" />
      <path
         d="m 70.971493,61.533123 6.972,9.4353 15.819,-7.89315"
         id="path3097"
         style="fill:#73cfb9;fill-opacity:1;fill-rule:nonzero;stroke:none" />
      <path
         d="m 70.971493,61.533123 6.972,9.4353 -9.5415,4.7613"
         id="path3099"
         style="fill:#33baa4;fill-opacity:1;fill-rule:nonzero;stroke:none" />
      <path
         d="m 94.336993,64.196223 -13.794,6.88185 18.3795,22.24035"
         id="path3101"
         style="fill:#00a998;fill-opacity:1;fill-rule:nonzero;stroke:none" />
      <path
         d="m 98.922493,93.317823 -18.279,-22.1238 -0.1005,-0.11595 -0.6195,11.83125"
         id="path3103"
         style="fill:#33baa4;fill-opacity:1;fill-rule:nonzero;stroke:none" />
      <path
         d="m 68.917993,76.879923 11.6265,-5.80185 -0.621,11.83125"
         id="path3105"
         style="fill:#00a998;fill-opacity:1;fill-rule:nonzero;stroke:none" />
      <path
         d="m 97.513993,76.277673 8.584497,-9.91995 -10.508997,-2.29755"
         id="path3107"
         style="fill:#73cfb9;fill-opacity:1;fill-rule:nonzero;stroke:none" />
      <path
         d="m 97.513993,76.277673 11.077497,8.97885 -2.493,-18.8988"
         id="path3109"
         style="fill:#33baa4;fill-opacity:1;fill-rule:nonzero;stroke:none" />
      <path
         d="m 97.513993,76.277673 11.077497,8.97885 -8.412,7.9506"
         id="path3111"
         style="fill:#00a998;fill-opacity:1;fill-rule:nonzero;stroke:none" />
      <path
         d="m 106.09999,66.357723 18.2595,3.99195 -15.768,14.90685"
         id="path3113"
         style="fill:#73cfb9;fill-opacity:1;fill-rule:nonzero;stroke:none" />
      <path
         d="m 101.13349,53.237373 4.9665,11.83065 -10.310997,-2.25285"
         id="path3115"
         style="fill:#73cfb9;fill-opacity:1;fill-rule:nonzero;stroke:none" />
      <path
         d="m 101.13349,53.237373 4.9665,11.83065 14.808,-3.5349"
         id="path3117"
         style="fill:#33baa4;fill-opacity:1;fill-rule:nonzero;stroke:none" />
      <path
         d="m 106.09999,65.068623 18.4335,4.03005 -3.6255,-7.56615"
         id="path3119"
         style="fill:#00a998;fill-opacity:1;fill-rule:nonzero;stroke:none" />
      <path
         d="m 101.13349,53.237373 19.7745,8.29575 -11.274,-23.5272"
         id="path3121"
         style="fill:#73cfb9;fill-opacity:1;fill-rule:nonzero;stroke:none" />
      <path
         d="m 168.23749,70.312773 0,9.9996 -21.618,0 c -2.5275,0.48345 -2.649,2.58105 -2.649,2.58105 l 0,23.979447 c 0,0 -0.24,2.82375 2.5995,3.2175 l 12.7095,0 0,-9.2133 -7.446,0 0,-9.781647 17.2365,0 0,28.567947 -22.3815,0 c -8.8965,0 -12.441,-4.3095 -12.441,-13.4151 l 0,-23.077047 c 0,-8.61855 4.7265,-12.85845 13.971,-12.85845"
         id="path3123"
         style="fill:#231f20;fill-opacity:1;fill-rule:nonzero;stroke:none" />
      <path
         d="m 231.30199,70.312773 0,9.9996 -21.618,0 c -2.526,0.48345 -2.6505,2.58105 -2.6505,2.58105 l 0,23.979447 c 0,0 -0.2385,2.82375 2.601,3.2175 l 12.711,0 0,-9.2133 -7.449,0 0,-9.781647 17.2395,0 0,28.567947 -22.3815,0 c -8.898,0 -12.441,-4.3095 -12.441,-13.4151 l 0,-23.077047 c 0,-8.61855 4.725,-12.85845 13.9695,-12.85845"
         id="path3125"
         style="fill:#231f20;fill-opacity:1;fill-rule:nonzero;stroke:none" />
      <path
         d="m 269.47099,110.10027 0,-13.621347 -14.097,1.9044 c -3.429,0.47745 -6.285,1.906047 -6.285,6.094347 0,3.71655 2.0955,5.6226 4.7625,5.6226 l 15.6195,0 z m -6.477,-39.810897 c 11.6205,0 16.0965,6.66615 16.0965,17.90445 l 0,31.525197 -25.1445,0 c -8.952,0 -14.6655,-5.2377 -14.6655,-15.3339 0,-8.191497 5.6175,-12.858447 15.2385,-14.476197 l 15.045,-2.4768 c 0,-4.38225 -1.902,-7.2381 -6.2835,-7.2381 l -17.334,0 0,-9.90465"
         id="path3127"
         style="fill:#231f20;fill-opacity:1;fill-rule:nonzero;stroke:none" />
      <g
         transform="matrix(0,0.15,0.15,0,-410.22251,-2.2180772)"
         id="g3129">
        <g
           clip-path="url(#clipPath3133-7)"
           id="g3131">
          <path
             d="m 483.375,3923.24 65.9453,0 0,64.7578 -65.9453,0 0,-64.7578 z"
             id="path3137"
             style="fill:#231f20;fill-opacity:1;fill-rule:nonzero;stroke:none" />
          <path
             d="m 576.73,3923.23 236.184,0 0,64.7578 -236.184,0 0,-64.7578 z"
             id="path3139"
             style="fill:#231f20;fill-opacity:1;fill-rule:nonzero;stroke:none" />
          <path
             d="m 266.609,3489.09 0,-4.66 219.454,105.18 160.546,-169.85 5.532,0 0.23,0.01 -165.363,174.94"
             id="path3141"
             style="fill:#00a998;fill-opacity:1;fill-rule:nonzero;stroke:none" />
          <path
             d="m 984.301,3635.65 c 1.199,0 1.801,-0.6 1.801,-1.8 l 0,-3.22 c 0,-1.2 -0.602,-1.6 -1.801,-1.6 l -94.867,0 c -1.207,0 -1.817,0.4 -1.817,1.6 l 0,3.22 c 0,1.2 0.61,1.8 1.817,1.8 l 94.867,0 z m -117.133,0 c 1.199,0 1.797,-0.6 1.797,-1.8 l 0,-3.22 c 0,-1.2 -0.598,-1.6 -1.797,-1.6 l -19.453,0 c -1.207,0 -1.817,0.4 -1.817,1.6 l 0,3.22 c 0,1.2 0.61,1.8 1.817,1.8"
             id="path3143"
             style="fill:#231f20;fill-opacity:1;fill-rule:nonzero;stroke:none" />
          <path
             d="m 887.625,3676.37 c 0,1.2 0.602,1.59 1.809,1.59 l 9.214,0.42 c -4.808,5.8 -12.632,18.05 -12.632,35.5 0,18.85 9.632,27.27 23.066,27.27 l 75.219,0 c 1.199,0 1.801,-0.61 1.801,-1.81 l 0,-3.21 c 0,-1.2 -0.602,-1.61 -1.801,-1.61 l -74.219,0 c -10.422,0 -18.047,-6.61 -18.047,-21.85 0,-17.65 8.832,-29.49 12.633,-34.1 l 79.633,0 c 1.199,0 1.801,-0.61 1.801,-1.8 l 0,-3.21 c 0,-1.2 -0.602,-1.61 -1.801,-1.61 l -94.867,0 c -1.207,0 -1.809,0.41 -1.809,1.61"
             id="path3145"
             style="fill:#231f20;fill-opacity:1;fill-rule:nonzero;stroke:none" />
          <path
             d="m 887.824,3779.86 -19.449,0 c -13.641,0 -23.465,7.82 -23.465,34.3 l 0,0.8 c 0,1.2 0.598,1.61 1.797,1.61 l 2.211,0 c 1.199,0 1.797,-0.41 1.797,-1.61 l 0,-0.8 c 0,-21.67 7.625,-27.68 18.262,-27.68 l 18.847,0 0,24.87 c 0,1.21 0.602,1.81 1.801,1.81 l 2.207,0 c 1.211,0 1.809,-0.6 1.809,-1.81 l 0,-24.87 90.66,0 c 1.199,0 1.801,-0.4 1.801,-1.8 l 0,-3.01 c 0,-1.21 -0.602,-1.81 -1.801,-1.81 l -90.66,0 0,-13.65 c 0,-1.19 -0.598,-1.59 -1.809,-1.59 l -1.797,0 c -1.211,0 -1.808,0.4 -1.808,1.59 l -0.403,11.25"
             id="path3147"
             style="fill:#231f20;fill-opacity:1;fill-rule:nonzero;stroke:none" />
          <path
             d="m 909.891,3895.99 c -10.434,0 -18.25,-6.42 -18.25,-28.07 0,-21.46 7.816,-27.88 18.25,-27.88 l 53.961,0 c 10.414,0 18.046,6.42 18.046,27.88 0,21.65 -7.632,28.07 -18.046,28.07 l -53.961,0 z m -0.407,-62.57 c -13.836,0 -23.468,8.22 -23.468,34.5 0,26.47 9.632,34.71 23.468,34.71 l 54.758,0 c 13.641,0 23.465,-8.24 23.465,-34.71 0,-26.28 -9.824,-34.5 -23.465,-34.5"
             id="path3149"
             style="fill:#231f20;fill-opacity:1;fill-rule:nonzero;stroke:none" />
          <path
             d="m 906.477,3992.07 c -8.829,0 -15.243,-8.02 -15.243,-26.67 0,-18.65 6.414,-26.27 15.243,-26.27 l 7.414,0 c 7.632,0 12.242,7.21 13.851,12.42 l 9.625,31.89 c 2.61,8.63 8.426,16.45 17.649,16.45 l 12.035,0 c 11.633,0 20.656,-10.43 20.656,-34.29 0,-23.87 -9.023,-34.1 -20.656,-34.1 l -5.817,0 c -1,0 -1.609,0.6 -1.609,1.81 l 0,3 c 0,1.01 0.609,1.62 1.609,1.62 l 5.618,0 c 9.023,0 15.441,8.41 15.441,27.67 0,19.05 -6.418,27.88 -15.441,27.88 l -10.434,0 c -7.418,0 -11.434,-6.42 -13.441,-13.24 l -9.625,-31.9 c -2.012,-6.61 -8.418,-15.64 -18.442,-15.64 l -8.433,0 c -11.434,0 -20.454,9.23 -20.454,32.7 0,23.46 9.02,32.89 20.454,32.89 l 7.023,0 c 1,0 1.41,-0.4 1.41,-1.81 l 0,-3 c 0,-1.01 -0.41,-1.41 -1.41,-1.41"
             id="path3151"
             style="fill:#231f20;fill-opacity:1;fill-rule:nonzero;stroke:none" />
          <path
             d="m 968.051,4049.64 c 2.406,0.8 8.824,2.6 8.824,2.6 0,0 -5.609,1.21 -8.824,2.41 l -78.625,27.08 c -1.199,0.4 -1.801,1 -1.801,2 l 0,3.41 c 0,1.2 0.809,1.61 1.801,1.2 l 137.004,-46.92 c 0.99,-0.4 1.8,-1.01 1.8,-2.01 l 0,-2.81 c 0,-1.2 -0.81,-1.61 -1.8,-1.2 l -40.52,13.43 -96.484,-33.09 c -0.992,-0.4 -1.801,0 -1.801,1.2 l 0,3.41 c 0,1.21 0.602,1.82 1.801,2.21"
             id="path3153"
             style="fill:#231f20;fill-opacity:1;fill-rule:nonzero;stroke:none" />
          <path
             d="m 906.477,4166.17 c -8.829,0 -15.243,-8.02 -15.243,-26.67 0,-18.67 6.414,-26.27 15.243,-26.27 l 7.414,0 c 7.632,0 12.242,7.21 13.851,12.42 l 9.625,31.9 c 2.61,8.62 8.426,16.45 17.649,16.45 l 12.035,0 c 11.633,0 20.656,-10.43 20.656,-34.31 0,-23.87 -9.023,-34.09 -20.656,-34.09 l -5.817,0 c -1,0 -1.609,0.6 -1.609,1.8 l 0,3.01 c 0,1 0.609,1.61 1.609,1.61 l 5.618,0 c 9.023,0 15.441,8.42 15.441,27.67 0,19.06 -6.418,27.88 -15.441,27.88 l -10.434,0 c -7.418,0 -11.434,-6.41 -13.441,-13.24 l -9.625,-31.89 c -2.012,-6.62 -8.418,-15.64 -18.442,-15.64 l -8.433,0 c -11.434,0 -20.454,9.22 -20.454,32.7 0,23.46 9.02,32.89 20.454,32.89 l 7.023,0 c 1,0 1.41,-0.41 1.41,-1.81 l 0,-3.01 c 0,-1 -0.41,-1.4 -1.41,-1.4"
             id="path3155"
             style="fill:#231f20;fill-opacity:1;fill-rule:nonzero;stroke:none" />
          <path
             d="m 887.824,4238.57 c 0,1.2 0.602,1.81 1.801,1.81 l 2.207,0 c 1.211,0 1.809,-0.61 1.809,-1.81 l 0,-25.07 68.402,0 c 10.625,0 18.242,5.82 18.242,27.48 l 0,2.81 c 0,1.21 0.399,1.81 1.805,1.81 l 2.211,0 c 1.199,0 1.801,-0.6 1.801,-1.81 l 0,-3.41 c 0,-26.47 -9.426,-33.49 -23.461,-33.49 l -69,0 0,-13.44 c 0,-1.2 -0.598,-1.8 -1.809,-1.8 l -1.797,0 c -1.211,0 -1.808,0.6 -1.808,1.8 l -0.403,11.03 0,2.41 -22.265,0 c -1.2,0 -1.801,0.4 -1.801,1.6 l 0,3.21 c 0,1.2 0.601,1.8 1.801,1.8 l 22.265,0"
             id="path3157"
             style="fill:#231f20;fill-opacity:1;fill-rule:nonzero;stroke:none" />
          <path
             d="m 930.941,4273.68 0,55.35 -21.257,0 c -10.235,0 -18.051,-6.01 -18.051,-27.67 0,-21.66 7.816,-27.68 18.051,-27.68 l 21.257,0 z m 3.618,61.78 c 1.199,0 1.8,-0.6 1.8,-1.61 l 0,-60.17 27.481,0 c 10.426,0 18.25,5.82 18.25,27.68 0,21.86 -7.824,27.67 -18.25,27.67 l -5.016,0 c -1.199,0 -1.801,0.6 -1.801,1.81 l 0,2.81 c 0,1.21 0.602,1.81 1.801,1.81 l 5.418,0 c 13.641,0 23.465,-7.83 23.465,-34.3 0,-26.28 -9.824,-34.1 -23.465,-34.1 l -54.758,0 c -13.836,0 -23.468,7.82 -23.468,34.3 0,26.27 9.632,34.1 23.468,34.1"
             id="path3159"
             style="fill:#231f20;fill-opacity:1;fill-rule:nonzero;stroke:none" />
          <path
             d="m 887.625,4371.76 c 0,1.2 0.602,1.61 1.809,1.61 l 9.023,0.2 c -4.617,5.61 -12.441,17.04 -12.441,34.49 0,14.04 5.418,22.26 13.644,25.67 -4.219,4.83 -13.644,16.65 -13.644,35.71 0,18.85 9.632,27.27 23.066,27.27 l 75.219,0 c 1.199,0 1.801,-0.59 1.801,-1.8 l 0,-3 c 0,-1.41 -0.602,-1.82 -1.801,-1.82 l -74.219,0 c -10.422,0 -18.047,-6.61 -18.047,-21.86 0,-18.45 9.422,-29.47 13.039,-33.49 1.602,0.4 3.41,0.6 5.008,0.6 l 74.219,0 c 1.199,0 1.801,-0.6 1.801,-1.81 l 0,-3.21 c 0,-1.19 -0.602,-1.59 -1.801,-1.59 l -74.219,0 c -10.422,0 -18.047,-6.63 -18.047,-21.87 0,-17.45 8.832,-28.68 12.633,-32.9 l 79.633,0 c 1.199,0 1.801,-0.59 1.801,-1.79 l 0,-3.22 c 0,-1.2 -0.602,-1.59 -1.801,-1.59 l -94.867,0 c -1.207,0 -1.809,0.39 -1.809,1.59"
             id="path3161"
             style="fill:#231f20;fill-opacity:1;fill-rule:nonzero;stroke:none" />
          <path
             d="m 906.477,4587.38 c -8.829,0 -15.243,-8.01 -15.243,-26.67 0,-18.65 6.414,-26.28 15.243,-26.28 l 7.414,0 c 7.632,0 12.242,7.23 13.851,12.44 l 9.625,31.89 c 2.61,8.62 8.426,16.45 17.649,16.45 l 12.035,0 c 11.633,0 20.656,-10.43 20.656,-34.3 0,-23.88 -9.023,-34.09 -20.656,-34.09 l -5.817,0 c -1,0 -1.609,0.6 -1.609,1.8 l 0,3.01 c 0,1 0.609,1.6 1.609,1.6 l 5.618,0 c 9.023,0 15.441,8.43 15.441,27.68 0,19.05 -6.418,27.88 -15.441,27.88 l -10.434,0 c -7.418,0 -11.434,-6.42 -13.441,-13.25 l -9.625,-31.88 c -2.012,-6.63 -8.418,-15.64 -18.442,-15.64 l -8.433,0 c -11.434,0 -20.454,9.21 -20.454,32.69 0,23.46 9.02,32.89 20.454,32.89 l 7.023,0 c 1,0 1.41,-0.4 1.41,-1.81 l 0,-3 c 0,-1.01 -0.41,-1.41 -1.41,-1.41"
             id="path3163"
             style="fill:#231f20;fill-opacity:1;fill-rule:nonzero;stroke:none" />
        </g>
      </g>
    </g>
  </g>
</svg>
