<svg id="Layer_1" data-name="Layer 1" xmlns="http://www.w3.org/2000/svg" viewBox="0 0 256.41 178.08"><defs><style>.cls-1{fill:none;stroke:#ed1c26;stroke-miterlimit:10;stroke-width:0.61px;}.cls-2{fill:#9dcc50;}.cls-3{fill:#486d1e;}.cls-4{fill:#98090c;}.cls-5{fill:#fff;}.cls-6{fill:#ed1c26;}.cls-7{fill:#4a484a;}</style></defs><title>GremlinInc-MASTER</title><line class="cls-1" y1="151.21" x2="256.41" y2="151.21"/><path class="cls-2" d="M230.82,14.73c-23.59,16.8-39.6,13.07-46.29,16.52a13.6,13.6,0,0,0-6.28,7c-6.66-10.4-18.53-17.06-37.74-17.06H137c-19.22,0-31.09,6.66-37.74,17.06a13.6,13.6,0,0,0-6.28-7c-6.69-3.45-22.7.28-46.29-16.52a23.22,23.22,0,0,0,1.64,8.66c1.88,5.17,8.79,16,10.18,28.89a48,48,0,0,0,.93,5.52l4.67,0.4L60.61,62c1.62,4.92,4.22,9.91,8.21,13.54L77,71.16,74,79c4.71,2.2,10.74,2.77,18.39.54a20,20,0,0,0-.82,4.9C91.43,89.62,89,101,118.64,106a9.47,9.47,0,0,1,6.19,5.5s0.44,2.54,13.73,2.69H139c13.29-.15,13.73-2.69,13.73-2.69a9.47,9.47,0,0,1,6.19-5.5c29.63-5,27.21-16.33,27.08-21.5a20,20,0,0,0-.82-4.9,31.64,31.64,0,0,0,10.49,1.38L195.2,75.2l3.08,5.44h0.07l0-4.62,2.95,3.88a22.27,22.27,0,0,0,11.85-9.78l-5-5.49,7.22,1.22a45.6,45.6,0,0,0,3.18-10.74L213.25,53l5.71-.38v0l-3.65-2,4-.45c1.87-12,8.12-21.86,9.9-26.74A23.22,23.22,0,0,0,230.82,14.73Z" transform="translate(-10.55 -14.73)"/><path class="cls-3" d="M230.8,14.75a35.35,35.35,0,0,1-10.28,14.41c-9.09,7.83-35.86,12.62-38.83,23.32,0,0-1.32,3.83.28,17.15a45,45,0,0,0,3.22,9.94,31.61,31.61,0,0,0,10.44,1.37L195.2,75.2l3.08,5.44h0.07l0-4.62,2.95,3.88a22.27,22.27,0,0,0,11.85-9.78l-5-5.49,7.22,1.22a45.6,45.6,0,0,0,3.18-10.74L213.25,53l5.71-.38v0l-3.65-2,4-.45c1.87-12,8.12-21.86,9.9-26.74a23.22,23.22,0,0,0,1.64-8.66h0Z" transform="translate(-10.55 -14.73)"/><path class="cls-3" d="M94.49,73.83a28.27,28.27,0,0,0,1.38-7,84.78,84.78,0,0,0,.47-10.06C96.23,51.41,95,50,92,47s-11.81-6.84-14-7.67-9.69-4-13.61-5.75a30.63,30.63,0,0,1-11.68-8.81,35,35,0,0,1-5.93-10.06l0,0a23.22,23.22,0,0,0,1.64,8.66c1.88,5.17,8.79,16,10.18,28.89a48,48,0,0,0,.93,5.52l4.67,0.4L60.61,62c1.62,4.92,4.22,9.91,8.21,13.54L77,71.16,74,79c4.71,2.2,10.72,2.76,18.35.55C94,75.87,93.64,75.91,94.49,73.83Z" transform="translate(-10.55 -14.73)"/><path class="cls-2" d="M111.09,75.6s-5.32.7-9.29-5.47c-3.19-5-.4-10.07-0.4-10.07S100.4,71.08,111.09,75.6Z" transform="translate(-10.55 -14.73)"/><path class="cls-2" d="M178.24,38.3s0.14,4.68,3.66,4.24,6.33-6.83,12.17-8.37,24.07-4.41,36.74-19.43c0,0-8,5.58-12.09,7.29s-11,5-20.66,6.5c0,0-10.4.88-13.72,2.73A12.15,12.15,0,0,0,178.24,38.3Z" transform="translate(-10.55 -14.73)"/><path class="cls-3" d="M148.58,65.3c1.32,4.76,6.53,8.32,12.76,8.32a13,13,0,0,0,13.08-10.67c0.5-2.39.32-4.64-1-6.3Z" transform="translate(-10.55 -14.73)"/><path class="cls-3" d="M169.58,58s5.16-2.11,7.35-2a2.84,2.84,0,0,1,2.52,2.44s-2.35-2.11-7.15,1.28S169.58,58,169.58,58Z" transform="translate(-10.55 -14.73)"/><path class="cls-3" d="M154.63,63.19s-9.54,3.3-10.37,3.55,6.16,0.74,7.52,1.07S154.63,63.19,154.63,63.19Z" transform="translate(-10.55 -14.73)"/><path class="cls-4" d="M174.08,60.66s-0.82-1.49-3.52-.83-20.49,7.11-20.49,7.11,2.83,6.66,12.5,6C172.68,72.25,174.84,61.7,174.08,60.66Z" transform="translate(-10.55 -14.73)"/><path class="cls-3" d="M173.54,85.06a78.18,78.18,0,0,1-9.35-1c-6.83-.94-16.19-2.22-26.33-1.65l-0.07-1.32c10.27-.58,19.7.72,26.59,1.66,5.77,0.79,10.32,1.42,12.05.48a4.2,4.2,0,0,0,2.21-2.17,11.15,11.15,0,0,0-.5-4.19l0.36,0.51a5.51,5.51,0,0,1,1,4,4.49,4.49,0,0,1-2.48,3A7.54,7.54,0,0,1,173.54,85.06Z" transform="translate(-10.55 -14.73)"/><path class="cls-3" d="M176.46,84.51s-11.13,13.11-38.23,13.11V82s10.8-1.1,19.83.77S171.39,83.74,176.46,84.51Z" transform="translate(-10.55 -14.73)"/><path class="cls-3" d="M105.36,85.06a78.18,78.18,0,0,0,9.35-1c6.83-.94,16.19-2.22,26.33-1.65l0.07-1.32c-10.27-.58-19.7.72-26.59,1.66-5.77.79-10.32,1.42-12.05,0.48a4.2,4.2,0,0,1-2.21-2.17,11.15,11.15,0,0,1,.5-4.19l-0.36.51a5.51,5.51,0,0,0-1,4,4.49,4.49,0,0,0,2.48,3A7.54,7.54,0,0,0,105.36,85.06Z" transform="translate(-10.55 -14.73)"/><path class="cls-3" d="M102.44,84.51s11.13,13.11,38.23,13.11V82s-10.8-1.1-19.83.77S107.5,83.74,102.44,84.51Z" transform="translate(-10.55 -14.73)"/><path class="cls-5" d="M139.79,96.28c4.87-.25,23.67-1.84,33.14-11.38a69.63,69.63,0,0,1-8.16-.8,166.47,166.47,0,0,0-25.57-1.68,166.47,166.47,0,0,0-25.57,1.68,69.63,69.63,0,0,1-8.16.8c9.47,9.54,28.26,11.13,33.14,11.38A6.28,6.28,0,0,0,139.79,96.28Z" transform="translate(-10.55 -14.73)"/><polygon class="cls-3" points="153.6 69.15 148.11 76.17 144.38 68.44 138.39 77.6 133.09 68.68 128.66 77.78 124.22 68.68 118.92 77.6 112.93 68.44 109.21 76.17 103.71 69.15 99.97 74.85 100.8 75.39 103.78 70.85 109.41 78.03 113.06 70.45 118.97 79.47 124.14 70.77 128.1 78.92 128.66 80.05 129.21 78.92 133.18 70.77 138.35 79.47 144.25 70.45 147.91 78.03 153.53 70.85 156.51 75.39 157.34 74.85 153.6 69.15"/><path class="cls-3" d="M164.08,85.58s2.65,3.64,1.41,4.93,2.09-.74,2.09-0.74S164.82,85.57,164.08,85.58Z" transform="translate(-10.55 -14.73)"/><path class="cls-3" d="M167.59,89.13s-2.34-3.8-1.87-5.12-1.51-.3-1.51-0.3a3,3,0,0,0,0,1.24C164.34,85.2,166.71,89.13,167.59,89.13Z" transform="translate(-10.55 -14.73)"/><path class="cls-3" d="M171.42,84.43a8.16,8.16,0,0,1-4,4.63c-3.14,1.62.47,1.16,0.52,1.07s6-5.29,6-5.29Z" transform="translate(-10.55 -14.73)"/><path class="cls-3" d="M158.65,90.9s4.31-5.57,3.84-7.19,2.37,0.25,2.37.25S159.75,90.85,158.65,90.9Z" transform="translate(-10.55 -14.73)"/><path class="cls-3" d="M157.67,88.94s-2.34-5.18-1.43-6-1.32-.25-1.32-0.25S154.56,84,157.67,88.94Z" transform="translate(-10.55 -14.73)"/><path class="cls-3" d="M161.67,88.62s-2.79,3.78-1.76,4.46-2.71.48-2.71,0.48,0.78-1.22-.78-5,0.25-.29.29-0.12,2,3.43,2,3.43S161.45,88.66,161.67,88.62Z" transform="translate(-10.55 -14.73)"/><path class="cls-3" d="M150.27,90.31s4.38-6.42,2.54-7.62,2.52,0,2.52,0l-0.91,2.77Z" transform="translate(-10.55 -14.73)"/><path class="cls-3" d="M152.3,89s-3.22,4.92-2.35,6.11l-0.25.6-2.48,0a2.54,2.54,0,0,0,1-1.84,22,22,0,0,0-1.74-3.74s-0.14-.6,0-0.41,2.38,3.3,2.42,3.43a2.75,2.75,0,0,0,.31.45S151.72,89.11,152.3,89Z" transform="translate(-10.55 -14.73)"/><path class="cls-3" d="M148,68.71s1.28,8.57,16.65,8.65C164.7,77.36,151.89,76.41,148,68.71Z" transform="translate(-10.55 -14.73)"/><path class="cls-3" d="M130.16,68.71s-1.28,8.57-16.65,8.65C113.51,77.36,126.32,76.41,130.16,68.71Z" transform="translate(-10.55 -14.73)"/><path class="cls-3" d="M146.05,87.51s-2.45-4.49-.5-5.29l-4.6-.44a3.64,3.64,0,0,1,1.4,1.85c0.25,1.07-1,4.38-1,4.38l0,0.52,2.18-4.1Z" transform="translate(-10.55 -14.73)"/><path class="cls-3" d="M141.51,90s-2.78,5.62-.28,6.31-2.07.61-2.07,0.61v-3Z" transform="translate(-10.55 -14.73)"/><path class="cls-3" d="M114.33,85.58s-2.65,3.64-1.41,4.93-2.09-.74-2.09-0.74S113.6,85.57,114.33,85.58Z" transform="translate(-10.55 -14.73)"/><path class="cls-3" d="M110.83,89.13s2.34-3.8,1.87-5.12,1.51-.3,1.51-0.3a3,3,0,0,1,0,1.24C114.08,85.2,111.71,89.13,110.83,89.13Z" transform="translate(-10.55 -14.73)"/><path class="cls-3" d="M107,84.43a8.16,8.16,0,0,0,4,4.63c3.14,1.62-.47,1.16-0.52,1.07s-6-5.29-6-5.29Z" transform="translate(-10.55 -14.73)"/><path class="cls-3" d="M119.76,90.9s-4.31-5.57-3.84-7.19-2.37.25-2.37,0.25S118.67,90.85,119.76,90.9Z" transform="translate(-10.55 -14.73)"/><path class="cls-3" d="M120.74,88.94s2.34-5.18,1.43-6,1.32-.25,1.32-0.25S123.85,84,120.74,88.94Z" transform="translate(-10.55 -14.73)"/><path class="cls-3" d="M116.74,88.62s2.79,3.78,1.76,4.46,2.71,0.48,2.71.48-0.78-1.22.78-5-0.25-.29-0.29-0.12-2,3.43-2,3.43S117,88.66,116.74,88.62Z" transform="translate(-10.55 -14.73)"/><path class="cls-3" d="M128.14,90.31s-4.38-6.42-2.54-7.62-2.52,0-2.52,0L124,85.44Z" transform="translate(-10.55 -14.73)"/><path class="cls-3" d="M126.12,89s3.22,4.92,2.35,6.11l0.25,0.6,2.48,0a2.54,2.54,0,0,1-1-1.84A22,22,0,0,1,132,90.08s0.14-.6,0-0.41-2.38,3.3-2.42,3.43a2.75,2.75,0,0,1-.31.45S126.7,89.11,126.12,89Z" transform="translate(-10.55 -14.73)"/><path class="cls-3" d="M132.36,87.51s2.45-4.49.5-5.29l4.6-.44a3.64,3.64,0,0,0-1.4,1.85c-0.25,1.07,1,4.38,1,4.38l0,0.52-2.18-4.1Z" transform="translate(-10.55 -14.73)"/><path class="cls-3" d="M136.91,90s2.78,5.62.28,6.31,2.07,0.61,2.07.61v-3Z" transform="translate(-10.55 -14.73)"/><path class="cls-3" d="M137.75,29.15s-3.23-3.82-5.68-3.52-8,2.35-8,3.52,4.6,3.13,8.62,2.45S139.12,30,137.75,29.15Z" transform="translate(-10.55 -14.73)"/><path class="cls-3" d="M150.5,26.3s-6.17-.91-7.48,0-0.3,2.43,2.63,3a8,8,0,0,0,6.27-1.21C152.73,27.41,151.92,26.51,150.5,26.3Z" transform="translate(-10.55 -14.73)"/><path class="cls-3" d="M145.58,31.93s-5.4.88-5.84,2.31,2.2,1.87,4.41,1.76S149.33,31.71,145.58,31.93Z" transform="translate(-10.55 -14.73)"/><path class="cls-3" d="M134.45,35.22s-2-1.57-3-1.28-1.48,1.21-.86,1.81S135.59,36.8,134.45,35.22Z" transform="translate(-10.55 -14.73)"/><path class="cls-3" d="M161.1,29.67s-2.94-1.48-4.48-.95,2.24,1.65,3.22,1.81S162.3,30.2,161.1,29.67Z" transform="translate(-10.55 -14.73)"/><path class="cls-3" d="M118.34,29.76a7.14,7.14,0,0,0-3.08,1c-1,.83-1.21,1.87-0.06,1.87s3.58-1.65,4.52-2.42S119.06,29.7,118.34,29.76Z" transform="translate(-10.55 -14.73)"/><path class="cls-6" d="M165.33,62.61s-11.48,2.81-11.07,4.87,4,3.8,7.52,3.06,5.62-4.63,6.28-5.78S169,61.29,165.33,62.61Z" transform="translate(-10.55 -14.73)"/><path class="cls-5" d="M158.22,64.84s-3.72.91-3.8,2.56,5.45-1.9,6.86-2.48S161.36,63.77,158.22,64.84Z" transform="translate(-10.55 -14.73)"/><path class="cls-3" d="M129.63,65.3c-1.32,4.76-6.53,8.32-12.76,8.32a13,13,0,0,1-13.08-10.67c-0.5-2.39-.32-4.64,1-6.3Z" transform="translate(-10.55 -14.73)"/><path class="cls-3" d="M108.62,58s-5.16-2.11-7.35-2a2.84,2.84,0,0,0-2.52,2.44s2.35-2.11,7.15,1.28S108.62,58,108.62,58Z" transform="translate(-10.55 -14.73)"/><path class="cls-3" d="M123.58,63.19s9.54,3.3,10.37,3.55-6.16.74-7.52,1.07S123.58,63.19,123.58,63.19Z" transform="translate(-10.55 -14.73)"/><path class="cls-4" d="M104.13,60.66s0.82-1.49,3.52-.83,20.49,7.11,20.49,7.11-2.83,6.66-12.5,6C105.52,72.25,103.37,61.7,104.13,60.66Z" transform="translate(-10.55 -14.73)"/><path class="cls-6" d="M112.88,62.61s11.48,2.81,11.07,4.87-4,3.8-7.52,3.06-5.62-4.63-6.28-5.78S109.24,61.29,112.88,62.61Z" transform="translate(-10.55 -14.73)"/><path class="cls-5" d="M120,64.84s3.72,0.91,3.8,2.56-5.45-1.9-6.86-2.48S116.84,63.77,120,64.84Z" transform="translate(-10.55 -14.73)"/><path class="cls-2" d="M105,68.31s9.27,3,16.41,5.23C121.37,73.55,112.89,77.13,105,68.31Z" transform="translate(-10.55 -14.73)"/><path class="cls-2" d="M173.59,68.31s-9.27,3-16.41,5.23C157.18,73.55,165.66,77.13,173.59,68.31Z" transform="translate(-10.55 -14.73)"/><path class="cls-2" d="M38.67,152.93a10,10,0,0,1-7.36,3.31,11,11,0,0,1-5-1.17,13.31,13.31,0,0,1-4.07-3.14,14.93,14.93,0,0,1-2.73-4.54,14.68,14.68,0,0,1-1-5.34,14.43,14.43,0,0,1,1-5.36,13.74,13.74,0,0,1,2.77-4.4,13.35,13.35,0,0,1,4.17-3,12.22,12.22,0,0,1,5.2-1.11,12.2,12.2,0,0,1,6.47,1.64,10.5,10.5,0,0,1,4.05,4.4l-4,3A7.45,7.45,0,0,0,35.38,134a7.33,7.33,0,0,0-3.91-1.09,6.46,6.46,0,0,0-3.1.74,7.18,7.18,0,0,0-2.36,2,10,10,0,0,0-1.52,3,11.35,11.35,0,0,0-.55,3.54,11.09,11.09,0,0,0,.58,3.64,9.11,9.11,0,0,0,1.64,2.94,7.85,7.85,0,0,0,2.47,2,6.83,6.83,0,0,0,3.14.72q3.82,0,6.89-3.78v-1.95H33.1v-3.93h10V156H38.67v-3.12Z" transform="translate(-10.55 -14.73)"/><path class="cls-2" d="M47,156V128.39H59.2a7.85,7.85,0,0,1,3.53.8,9.13,9.13,0,0,1,2.79,2.1,10,10,0,0,1,1.83,3,8.92,8.92,0,0,1,.66,3.33,9.19,9.19,0,0,1-1.34,4.89A7.71,7.71,0,0,1,63,145.64L69.52,156H63.44l-5.8-9.27h-5.3V156H47Zm5.38-14h6.74a2.84,2.84,0,0,0,1.38-.35,3.53,3.53,0,0,0,1.11-1,4.77,4.77,0,0,0,.74-1.42,5.52,5.52,0,0,0,.27-1.75,5,5,0,0,0-.31-1.79,4.69,4.69,0,0,0-.84-1.42,3.81,3.81,0,0,0-1.21-.93,3.15,3.15,0,0,0-1.38-.33H52.34v9Z" transform="translate(-10.55 -14.73)"/><path class="cls-2" d="M90.87,151.33V156H71.66V128.39H90.52v4.71H77v6.66H88.68v4.36H77v7.21H90.87Z" transform="translate(-10.55 -14.73)"/><path class="cls-2" d="M117,156V137.74l-7.13,13.63h-2.92l-7.13-13.63V156H94.41V128.39h5.76l8.18,15.74,8.26-15.74h5.73V156H117Z" transform="translate(-10.55 -14.73)"/><path class="cls-2" d="M128.1,156V128.39h5.38v22.94h14.1V156H128.1Z" transform="translate(-10.55 -14.73)"/><path class="cls-2" d="M151,156V128.43h5.38V156H151Z" transform="translate(-10.55 -14.73)"/><path class="cls-2" d="M167.56,138.32V156h-5.38V128.39h4.17l14.41,18.15V128.43h5.38V156h-4.36Z" transform="translate(-10.55 -14.73)"/><path class="cls-7" d="M198.91,156V128.43h2V156h-2Z" transform="translate(-10.55 -14.73)"/><path class="cls-7" d="M209.43,132.13V156h-2V128.39H209l19.4,24.34V128.43h2V156h-1.83Z" transform="translate(-10.55 -14.73)"/><path class="cls-7" d="M235.06,142a14.78,14.78,0,0,1,.88-5,13.77,13.77,0,0,1,2.55-4.42,13.16,13.16,0,0,1,4.11-3.17,12.16,12.16,0,0,1,5.55-1.23,11.34,11.34,0,0,1,6.31,1.69,10.41,10.41,0,0,1,3.86,4.34l-1.64.93a8.62,8.62,0,0,0-1.69-2.42,9.14,9.14,0,0,0-2.14-1.58,9.49,9.49,0,0,0-2.4-.88,11.5,11.5,0,0,0-2.45-.27,9.85,9.85,0,0,0-4.67,1.07,11.06,11.06,0,0,0-3.43,2.78,12.11,12.11,0,0,0-2.12,3.88,13.64,13.64,0,0,0-.72,4.34,12.86,12.86,0,0,0,.86,4.67,13,13,0,0,0,2.34,3.91,11.35,11.35,0,0,0,3.51,2.71,9.62,9.62,0,0,0,4.36,1,10.94,10.94,0,0,0,2.55-.31,10.36,10.36,0,0,0,2.53-1,10.08,10.08,0,0,0,2.28-1.69,9,9,0,0,0,1.75-2.43l1.68,0.82a9.45,9.45,0,0,1-1.89,2.77,11.61,11.61,0,0,1-2.67,2,12.8,12.8,0,0,1-3.14,1.23,13.54,13.54,0,0,1-3.25.41,10.94,10.94,0,0,1-5.2-1.25,13.76,13.76,0,0,1-4.07-3.25,15.07,15.07,0,0,1-2.67-4.56A14.72,14.72,0,0,1,235.06,142Z" transform="translate(-10.55 -14.73)"/><path class="cls-7" d="M44.61,186.28a2.71,2.71,0,0,1-.26,1.18,3,3,0,0,1-.69.93,3.12,3.12,0,0,1-1,.61,3.5,3.5,0,0,1-1.24.22H36V177.79h5.49a2.26,2.26,0,0,1,1.08.26,2.69,2.69,0,0,1,.82.67,3.07,3.07,0,0,1,.52.93,3.16,3.16,0,0,1,.18,1.05,3,3,0,0,1-.43,1.59,2.69,2.69,0,0,1-1.21,1.07A2.86,2.86,0,0,1,44,184.44,3,3,0,0,1,44.61,186.28Zm-7.47-7.5V183h3.93a1.75,1.75,0,0,0,.78-0.18,2.1,2.1,0,0,0,.63-0.47,2.08,2.08,0,0,0,.41-0.67,2.21,2.21,0,0,0,.14-0.8,2.45,2.45,0,0,0-.14-0.82,2,2,0,0,0-.39-0.67,1.91,1.91,0,0,0-.6-0.45,1.68,1.68,0,0,0-.75-0.17h-4Zm6.34,7.31a2.34,2.34,0,0,0-.14-0.81,2.12,2.12,0,0,0-1-1.18,1.69,1.69,0,0,0-.78-0.19H37.14v4.33h4.27a2,2,0,0,0,.82-0.18,2,2,0,0,0,.66-0.47,2.29,2.29,0,0,0,.43-0.69A2.13,2.13,0,0,0,43.49,186.08Z" transform="translate(-10.55 -14.73)"/><path class="cls-7" d="M50.7,181.8a3.45,3.45,0,0,0-1.93.61A3.08,3.08,0,0,0,47.61,184v5.22H46.51v-8.39h1v2a4.4,4.4,0,0,1,1.14-1.47,2.35,2.35,0,0,1,1.53-.59h0.27l0.21,0v1Z" transform="translate(-10.55 -14.73)"/><path class="cls-7" d="M55.83,189.38a4.08,4.08,0,0,1-3-1.3,4.41,4.41,0,0,1-.88-1.39,4.53,4.53,0,0,1-.31-1.69,4.44,4.44,0,0,1,.31-1.67,4.22,4.22,0,0,1,2.21-2.3,4.09,4.09,0,0,1,4.68.94A4.42,4.42,0,0,1,60,185c0,0.09,0,.17,0,0.26a0.86,0.86,0,0,1,0,.18H52.77a3.54,3.54,0,0,0,1,2.24,3,3,0,0,0,.95.65,2.87,2.87,0,0,0,1.15.23,3,3,0,0,0,.82-0.11,3.23,3.23,0,0,0,.74-0.31,2.58,2.58,0,0,0,.6-0.47,2.11,2.11,0,0,0,.41-0.62l0.95,0.26a2.8,2.8,0,0,1-.55.85,3.82,3.82,0,0,1-.82.66,4,4,0,0,1-1,.43A4.4,4.4,0,0,1,55.83,189.38Zm3.09-4.8a3.37,3.37,0,0,0-1-2.19,3,3,0,0,0-1-.63,3,3,0,0,0-3.28.63,3.09,3.09,0,0,0-.66,1,3.66,3.66,0,0,0-.3,1.22h6.18Z" transform="translate(-10.55 -14.73)"/><path class="cls-7" d="M63.83,189.38a3.29,3.29,0,0,1-1.18-.2,2.71,2.71,0,0,1-.91-0.56,2.52,2.52,0,0,1-.59-0.82,2.38,2.38,0,0,1-.21-1,2.17,2.17,0,0,1,.26-1.05,2.43,2.43,0,0,1,.72-0.81,3.55,3.55,0,0,1,1.12-.52,5.28,5.28,0,0,1,1.44-.19,7.69,7.69,0,0,1,1.29.11,5.68,5.68,0,0,1,1.18.32v-0.76a2.42,2.42,0,0,0-.64-1.76,2.29,2.29,0,0,0-1.71-.65,3.71,3.71,0,0,0-1.34.26,6.44,6.44,0,0,0-1.36.74l-0.39-.72a7.3,7.3,0,0,1,1.59-.82,4.78,4.78,0,0,1,1.61-.27,3.32,3.32,0,0,1,2.43.89A3.27,3.27,0,0,1,68,184v3.78a0.37,0.37,0,0,0,.39.45v1l-0.24,0H68a1,1,0,0,1-.59-0.19,0.75,0.75,0,0,1-.3-0.58l0-.66A3.66,3.66,0,0,1,65.64,189,4.3,4.3,0,0,1,63.83,189.38Zm0.27-.84a3.57,3.57,0,0,0,1.44-.31,2.82,2.82,0,0,0,1.14-.86,1.75,1.75,0,0,0,.19-0.31,0.74,0.74,0,0,0,.08-0.31v-1.37a6.7,6.7,0,0,0-1.14-.32,6.22,6.22,0,0,0-1.16-.11,3.45,3.45,0,0,0-1.91.47,1.48,1.48,0,0,0-.73,1.31,1.76,1.76,0,0,0,.13.66,1.66,1.66,0,0,0,.39.58,2.06,2.06,0,0,0,.65.42A2.38,2.38,0,0,0,64.11,188.55Z" transform="translate(-10.55 -14.73)"/><path class="cls-7" d="M76.42,189.22l-3.09-4.3-1.8,1.67v2.62H70.43V177.47h1.09v8l4.72-4.6h1.24l-3.43,3.43,3.56,4.94H76.42Z" transform="translate(-10.55 -14.73)"/><path class="cls-7" d="M78.91,179.08v-1.61H80v1.61H78.91Zm0,10.14v-8.39H80v8.39H78.91Z" transform="translate(-10.55 -14.73)"/><path class="cls-7" d="M89.41,189.22H88.32v-4.68a4.15,4.15,0,0,0-.43-2.17,1.49,1.49,0,0,0-1.35-.68,2.79,2.79,0,0,0-1,.18,3.38,3.38,0,0,0-.9.5,3.52,3.52,0,0,0-.73.76,3.39,3.39,0,0,0-.47,1v5.13H82.36v-8.39h1v1.9a3.9,3.9,0,0,1,.64-0.83,4.19,4.19,0,0,1,.85-0.65,4.14,4.14,0,0,1,1-.42,4.05,4.05,0,0,1,1.09-.14,2.46,2.46,0,0,1,1.18.26,2,2,0,0,1,.76.72,3.34,3.34,0,0,1,.42,1.14,8,8,0,0,1,.13,1.5v4.91Z" transform="translate(-10.55 -14.73)"/><path class="cls-7" d="M95.08,189.34a3.46,3.46,0,0,1-1.59-.36,4.09,4.09,0,0,1-1.24-1,4.39,4.39,0,0,1-.81-1.37,4.5,4.5,0,0,1-.29-1.59,5,5,0,0,1,.28-1.67,4.29,4.29,0,0,1,.8-1.39,3.88,3.88,0,0,1,1.23-.95,3.53,3.53,0,0,1,1.59-.35,3.23,3.23,0,0,1,1.87.54,5.18,5.18,0,0,1,1.35,1.36v-1.75h1v8.42a3.43,3.43,0,0,1-.33,1.54,3.31,3.31,0,0,1-.89,1.12,3.75,3.75,0,0,1-1.31.68,5.54,5.54,0,0,1-1.59.23,4.58,4.58,0,0,1-2.32-.52,4.12,4.12,0,0,1-1.43-1.38l0.68-.53a3,3,0,0,0,1.32,1.18,4.14,4.14,0,0,0,1.75.38,4,4,0,0,0,1.17-.17,2.86,2.86,0,0,0,1-.5,2.36,2.36,0,0,0,.65-0.84,2.72,2.72,0,0,0,.24-1.18V187.6a3.64,3.64,0,0,1-1.33,1.27A3.51,3.51,0,0,1,95.08,189.34Zm0.31-.92a2.65,2.65,0,0,0,.95-0.18,3.18,3.18,0,0,0,.85-0.47,3.12,3.12,0,0,0,.64-0.67,2.06,2.06,0,0,0,.34-0.76v-2.59a3.15,3.15,0,0,0-.49-0.84,3.53,3.53,0,0,0-.7-0.66,3.49,3.49,0,0,0-.83-0.43A2.69,2.69,0,0,0,94,182a3.06,3.06,0,0,0-.93.78,3.46,3.46,0,0,0-.59,1.09,3.93,3.93,0,0,0-.2,1.24,3.52,3.52,0,0,0,.9,2.36,3.08,3.08,0,0,0,1,.72A2.88,2.88,0,0,0,95.38,188.42Z" transform="translate(-10.55 -14.73)"/><path class="cls-7" d="M113.68,178.79h-4.07v10.43h-1.13V178.79h-4.07v-1h9.27v1Z" transform="translate(-10.55 -14.73)"/><path class="cls-7" d="M122.22,189.22h-1.09v-4.68a3.78,3.78,0,0,0-.49-2.14,1.64,1.64,0,0,0-1.44-.71,2.46,2.46,0,0,0-.93.18,3.44,3.44,0,0,0-.86.51,3.5,3.5,0,0,0-.7.76,3.19,3.19,0,0,0-.44.95v5.13h-1.09V177.47h1.09v5.26a3.92,3.92,0,0,1,1.4-1.5,3.55,3.55,0,0,1,1.9-.55,2.63,2.63,0,0,1,1.23.27,2.18,2.18,0,0,1,.82.74,3.33,3.33,0,0,1,.46,1.14,7,7,0,0,1,.14,1.47v4.91Z" transform="translate(-10.55 -14.73)"/><path class="cls-7" d="M124.49,179.08v-1.61h1.09v1.61h-1.09Zm0,10.14v-8.39h1.09v8.39h-1.09Z" transform="translate(-10.55 -14.73)"/><path class="cls-7" d="M135,189.22h-1.09v-4.68a4.15,4.15,0,0,0-.43-2.17,1.49,1.49,0,0,0-1.35-.68,2.79,2.79,0,0,0-1,.18,3.38,3.38,0,0,0-.9.5,3.52,3.52,0,0,0-.73.76,3.39,3.39,0,0,0-.47,1v5.13h-1.09v-8.39h1v1.9a3.9,3.9,0,0,1,.64-0.83,4.19,4.19,0,0,1,.85-0.65,4.14,4.14,0,0,1,1-.42,4.05,4.05,0,0,1,1.09-.14,2.46,2.46,0,0,1,1.18.26,2,2,0,0,1,.76.72,3.34,3.34,0,0,1,.42,1.14,8,8,0,0,1,.13,1.5v4.91Z" transform="translate(-10.55 -14.73)"/><path class="cls-7" d="M140.65,189.34a3.46,3.46,0,0,1-1.59-.36,4.09,4.09,0,0,1-1.24-1,4.39,4.39,0,0,1-.81-1.37,4.5,4.5,0,0,1-.29-1.59,5,5,0,0,1,.28-1.67,4.29,4.29,0,0,1,.8-1.39A3.88,3.88,0,0,1,139,181a3.53,3.53,0,0,1,1.59-.35,3.23,3.23,0,0,1,1.87.54,5.18,5.18,0,0,1,1.35,1.36v-1.75h1v8.42a3.43,3.43,0,0,1-.33,1.54,3.31,3.31,0,0,1-.89,1.12,3.75,3.75,0,0,1-1.31.68,5.54,5.54,0,0,1-1.59.23,4.58,4.58,0,0,1-2.32-.52,4.12,4.12,0,0,1-1.43-1.38l0.68-.53a3,3,0,0,0,1.32,1.18,4.14,4.14,0,0,0,1.75.38,4,4,0,0,0,1.17-.17,2.86,2.86,0,0,0,1-.5,2.36,2.36,0,0,0,.65-0.84,2.72,2.72,0,0,0,.24-1.18V187.6a3.64,3.64,0,0,1-1.33,1.27A3.51,3.51,0,0,1,140.65,189.34Zm0.31-.92a2.65,2.65,0,0,0,.95-0.18,3.18,3.18,0,0,0,.85-0.47,3.12,3.12,0,0,0,.64-0.67,2.06,2.06,0,0,0,.34-0.76v-2.59a3.15,3.15,0,0,0-.49-0.84,3.53,3.53,0,0,0-.7-0.66,3.49,3.49,0,0,0-.83-0.43,2.69,2.69,0,0,0-2.15.14,3.06,3.06,0,0,0-.93.78,3.46,3.46,0,0,0-.59,1.09,3.93,3.93,0,0,0-.2,1.24,3.52,3.52,0,0,0,.9,2.36,3.08,3.08,0,0,0,1,.72A2.88,2.88,0,0,0,141,188.42Z" transform="translate(-10.55 -14.73)"/><path class="cls-7" d="M150,189.38a5.84,5.84,0,0,1-1.92-.32,4.6,4.6,0,0,1-1.61-.93l0.5-.74a5.44,5.44,0,0,0,1.44.87,4.23,4.23,0,0,0,1.57.29,2.84,2.84,0,0,0,1.62-.41,1.33,1.33,0,0,0,.6-1.17,1,1,0,0,0-.16-0.59,1.4,1.4,0,0,0-.47-0.41,3.73,3.73,0,0,0-.79-0.31q-0.47-.14-1.1-0.28t-1.26-.35a3.85,3.85,0,0,1-.88-0.4,1.45,1.45,0,0,1-.51-0.56,1.81,1.81,0,0,1-.17-0.83,2.38,2.38,0,0,1,.25-1.11,2.27,2.27,0,0,1,.68-0.8,3.07,3.07,0,0,1,1-.47,4.46,4.46,0,0,1,1.22-.16,4.7,4.7,0,0,1,1.75.31,3.47,3.47,0,0,1,1.27.83l-0.53.64a3,3,0,0,0-1.14-.72,4.06,4.06,0,0,0-1.39-.24,3.46,3.46,0,0,0-.8.09,1.93,1.93,0,0,0-.65.28,1.39,1.39,0,0,0-.44.49,1.45,1.45,0,0,0-.16.7,1.15,1.15,0,0,0,.11.55,1,1,0,0,0,.37.36,3,3,0,0,0,.65.27q0.39,0.12,1,.25,0.8,0.19,1.42.39a4.48,4.48,0,0,1,1,.45,1.77,1.77,0,0,1,.62.63,1.8,1.8,0,0,1,.21.9,2.19,2.19,0,0,1-.89,1.83A3.83,3.83,0,0,1,150,189.38Z" transform="translate(-10.55 -14.73)"/><path class="cls-7" d="M162.75,189.38a4,4,0,0,1-1.68-.35,4.09,4.09,0,0,1-1.32-.94,4.26,4.26,0,0,1-.86-1.38,4.55,4.55,0,0,1-.31-1.66,4.5,4.5,0,0,1,.31-1.67,4.39,4.39,0,0,1,.87-1.38,4.19,4.19,0,0,1,1.32-.95,4.09,4.09,0,0,1,3.33,0,4.2,4.2,0,0,1,1.32.95,4.4,4.4,0,0,1,.87,1.38,4.48,4.48,0,0,1,.31,1.67,4.44,4.44,0,0,1-.31,1.66,4.39,4.39,0,0,1-.87,1.38,4.1,4.1,0,0,1-1.32.94A4,4,0,0,1,162.75,189.38Zm-3-4.31a3.61,3.61,0,0,0,.23,1.31,3.43,3.43,0,0,0,.64,1.06,3,3,0,0,0,1,.72,2.78,2.78,0,0,0,1.18.26,2.7,2.7,0,0,0,1.18-.27,3.15,3.15,0,0,0,1-.72,3.46,3.46,0,0,0,.66-1.07,3.71,3.71,0,0,0,0-2.63,3.45,3.45,0,0,0-.66-1.08,3.19,3.19,0,0,0-1-.72,2.66,2.66,0,0,0-1.18-.27,2.71,2.71,0,0,0-1.18.27,3,3,0,0,0-1,.73A3.64,3.64,0,0,0,159.71,185.07Z" transform="translate(-10.55 -14.73)"/><path class="cls-7" d="M175.75,189.22h-1.09v-4.68a4.15,4.15,0,0,0-.43-2.17,1.49,1.49,0,0,0-1.35-.68,2.79,2.79,0,0,0-1,.18,3.38,3.38,0,0,0-.9.5,3.52,3.52,0,0,0-.73.76,3.39,3.39,0,0,0-.47,1v5.13H168.7v-8.39h1v1.9a3.9,3.9,0,0,1,.64-0.83,4.19,4.19,0,0,1,.85-0.65,4.14,4.14,0,0,1,1-.42,4.05,4.05,0,0,1,1.09-.14,2.46,2.46,0,0,1,1.18.26,2,2,0,0,1,.76.72,3.34,3.34,0,0,1,.42,1.14,8,8,0,0,1,.13,1.5v4.91Z" transform="translate(-10.55 -14.73)"/><path class="cls-7" d="M182.42,189.22V177.79h4.73a3,3,0,0,1,1.36.31,3.6,3.6,0,0,1,1.07.82,3.79,3.79,0,0,1,.7,1.15,3.59,3.59,0,0,1,.25,1.3,4,4,0,0,1-.23,1.36,3.56,3.56,0,0,1-.67,1.15,3.41,3.41,0,0,1-1,.8,2.93,2.93,0,0,1-1.34.31h-3.72v4.22h-1.11Zm1.11-5.22h3.65a1.91,1.91,0,0,0,.91-0.22,2.21,2.21,0,0,0,.7-0.58,2.73,2.73,0,0,0,.45-0.84,3.06,3.06,0,0,0,.16-1,2.79,2.79,0,0,0-.68-1.84A2.29,2.29,0,0,0,188,179a2.07,2.07,0,0,0-.89-0.2h-3.56V184Z" transform="translate(-10.55 -14.73)"/><path class="cls-7" d="M194.73,189.38a2.33,2.33,0,0,1-2-.91,4.52,4.52,0,0,1-.68-2.71v-4.93h1.09v4.73q0,2.85,1.95,2.85a2.89,2.89,0,0,0,.95-0.16,3,3,0,0,0,.86-0.47,3.79,3.79,0,0,0,.71-0.72,3.64,3.64,0,0,0,.51-0.95v-5.28h1.09v7a0.38,0.38,0,0,0,.4.45v1l-0.45,0a1,1,0,0,1-.64-0.23,0.71,0.71,0,0,1-.27-0.56v-1.16A4,4,0,0,1,194.73,189.38Z" transform="translate(-10.55 -14.73)"/><path class="cls-7" d="M205.89,181.8a3.45,3.45,0,0,0-1.93.61A3.08,3.08,0,0,0,202.8,184v5.22H201.7v-8.39h1v2a4.4,4.4,0,0,1,1.14-1.47,2.35,2.35,0,0,1,1.53-.59h0.27l0.21,0v1Z" transform="translate(-10.55 -14.73)"/><path class="cls-7" d="M211.65,189.38a3.35,3.35,0,0,1-1.88-.54,4.25,4.25,0,0,1-1.32-1.36v5.17h-1.09V180.84h1v1.63a4.07,4.07,0,0,1,1.34-1.28,3.42,3.42,0,0,1,1.79-.49,3.56,3.56,0,0,1,1.6.36,4.06,4.06,0,0,1,1.26,1,4.49,4.49,0,0,1,.83,1.39,4.58,4.58,0,0,1,.3,1.63,5.08,5.08,0,0,1-.27,1.67,4.28,4.28,0,0,1-.78,1.38,3.76,3.76,0,0,1-1.21.94A3.42,3.42,0,0,1,211.65,189.38Zm-0.31-1a2.57,2.57,0,0,0,1.22-.29,3.1,3.1,0,0,0,.94-0.76,3.42,3.42,0,0,0,.6-1.08,3.79,3.79,0,0,0,.21-1.25,3.47,3.47,0,0,0-.24-1.29,3.56,3.56,0,0,0-.66-1.08,3.14,3.14,0,0,0-1-.74,2.82,2.82,0,0,0-1.23-.27,2.48,2.48,0,0,0-.87.17,3.83,3.83,0,0,0-.85.45,3,3,0,0,0-.68.66,1.78,1.78,0,0,0-.35.8v2.58a3.81,3.81,0,0,0,.49.84,3.46,3.46,0,0,0,.68.67,3.18,3.18,0,0,0,.82.44A2.64,2.64,0,0,0,211.34,188.42Z" transform="translate(-10.55 -14.73)"/><path class="cls-7" d="M220.87,189.38a4,4,0,0,1-1.68-.35,4.09,4.09,0,0,1-1.32-.94,4.26,4.26,0,0,1-.86-1.38,4.55,4.55,0,0,1-.31-1.66,4.5,4.5,0,0,1,.31-1.67,4.39,4.39,0,0,1,.87-1.38,4.19,4.19,0,0,1,1.32-.95,4.09,4.09,0,0,1,3.33,0,4.2,4.2,0,0,1,1.32.95,4.4,4.4,0,0,1,.87,1.38,4.48,4.48,0,0,1,.31,1.67,4.44,4.44,0,0,1-.31,1.66,4.39,4.39,0,0,1-.87,1.38,4.1,4.1,0,0,1-1.32.94A4,4,0,0,1,220.87,189.38Zm-3-4.31a3.61,3.61,0,0,0,.23,1.31,3.43,3.43,0,0,0,.64,1.06,3,3,0,0,0,1,.72,2.78,2.78,0,0,0,1.18.26,2.7,2.7,0,0,0,1.18-.27,3.15,3.15,0,0,0,1-.72,3.46,3.46,0,0,0,.66-1.07,3.71,3.71,0,0,0,0-2.63,3.45,3.45,0,0,0-.66-1.08,3.19,3.19,0,0,0-1-.72,2.66,2.66,0,0,0-1.18-.27,2.71,2.71,0,0,0-1.18.27,3,3,0,0,0-1,.73A3.64,3.64,0,0,0,217.83,185.07Z" transform="translate(-10.55 -14.73)"/><path class="cls-7" d="M229.63,189.38a5.84,5.84,0,0,1-1.92-.32,4.6,4.6,0,0,1-1.61-.93l0.5-.74a5.44,5.44,0,0,0,1.44.87,4.23,4.23,0,0,0,1.57.29,2.84,2.84,0,0,0,1.62-.41,1.33,1.33,0,0,0,.6-1.17,1,1,0,0,0-.16-0.59,1.4,1.4,0,0,0-.47-0.41,3.73,3.73,0,0,0-.79-0.31q-0.47-.14-1.1-0.28t-1.26-.35a3.85,3.85,0,0,1-.88-0.4,1.45,1.45,0,0,1-.51-0.56,1.81,1.81,0,0,1-.17-0.83,2.38,2.38,0,0,1,.25-1.11,2.27,2.27,0,0,1,.68-0.8,3.07,3.07,0,0,1,1-.47,4.46,4.46,0,0,1,1.22-.16,4.7,4.7,0,0,1,1.75.31,3.47,3.47,0,0,1,1.27.83l-0.53.64a3,3,0,0,0-1.14-.72,4.06,4.06,0,0,0-1.39-.24,3.46,3.46,0,0,0-.8.09,1.93,1.93,0,0,0-.65.28,1.39,1.39,0,0,0-.44.49,1.45,1.45,0,0,0-.16.7,1.15,1.15,0,0,0,.11.55,1,1,0,0,0,.37.36,3,3,0,0,0,.65.27q0.39,0.12,1,.25,0.8,0.19,1.42.39a4.48,4.48,0,0,1,1,.45,1.77,1.77,0,0,1,.62.63,1.8,1.8,0,0,1,.21.9,2.19,2.19,0,0,1-.89,1.83A3.83,3.83,0,0,1,229.63,189.38Z" transform="translate(-10.55 -14.73)"/><path class="cls-7" d="M238.32,189.38a4.08,4.08,0,0,1-3-1.3,4.41,4.41,0,0,1-.88-1.39,4.53,4.53,0,0,1-.31-1.69,4.44,4.44,0,0,1,.31-1.67,4.22,4.22,0,0,1,2.21-2.3,4.09,4.09,0,0,1,4.68.94,4.42,4.42,0,0,1,1.16,3c0,0.09,0,.17,0,0.26a0.86,0.86,0,0,1,0,.18h-7.16a3.54,3.54,0,0,0,1,2.24,3,3,0,0,0,.95.65,2.87,2.87,0,0,0,1.15.23,3,3,0,0,0,.82-0.11,3.23,3.23,0,0,0,.74-0.31,2.58,2.58,0,0,0,.6-0.47,2.11,2.11,0,0,0,.41-0.62l0.95,0.26a2.8,2.8,0,0,1-.55.85,3.82,3.82,0,0,1-.82.66,4,4,0,0,1-1,.43A4.4,4.4,0,0,1,238.32,189.38Zm3.09-4.8a3.37,3.37,0,0,0-1-2.19,3,3,0,0,0-1-.63,3,3,0,0,0-3.28.63,3.09,3.09,0,0,0-.66,1,3.66,3.66,0,0,0-.3,1.22h6.18Z" transform="translate(-10.55 -14.73)"/></svg>