<svg id="Layer_1" data-name="Layer 1" xmlns="http://www.w3.org/2000/svg" viewBox="0 0 236.04 46.02"><defs><style>.cls-1{fill:#e24939;}.cls-2{fill:#f3de2c;}.cls-3{fill:#f3a712;}.cls-4{fill:#0e0f0f;}</style></defs><title>hadean_logo_black</title><polygon class="cls-1" points="26.18 0 13.06 22.73 39.3 22.73 26.18 0"/><polygon class="cls-2" points="13.12 22.63 0 45.36 26.25 45.36 13.12 22.63"/><polygon class="cls-2" points="39.24 22.63 26.11 45.36 52.36 45.36 39.24 22.63"/><polygon class="cls-3" points="26.18 45.36 39.3 22.63 13.06 22.63 26.18 45.36"/><path class="cls-4" d="M71.32,27h6V48.35a10.38,10.38,0,0,1,7.1-2.9,9.19,9.19,0,0,1,7.07,2.87q2.25,2.49,2.25,8v16h-6V56.84a7.37,7.37,0,0,0-1.11-4.54,4.28,4.28,0,0,0-3.58-1.41c-2.1,0-3.59.65-4.44,2s-1.26,3.59-1.26,6.8V72.27h-6Z" transform="translate(-5.88 -27)"/><path class="cls-4" d="M118.44,46.18h6V72.27h-6V69.53a11.57,11.57,0,0,1-17-.42,14.58,14.58,0,0,1-3.51-10,14.11,14.11,0,0,1,3.51-9.78,11.34,11.34,0,0,1,8.79-3.91,11.1,11.1,0,0,1,8.17,3.75Zm-14.31,13a9.09,9.09,0,0,0,2,6.11,6.59,6.59,0,0,0,5.2,2.38,6.94,6.94,0,0,0,5.41-2.3,9,9,0,0,0,2.06-6,9,9,0,0,0-2.06-6.06,6.84,6.84,0,0,0-5.36-2.33,6.65,6.65,0,0,0-5.19,2.36A8.66,8.66,0,0,0,104.13,59.14Z" transform="translate(-5.88 -27)"/><path class="cls-4" d="M149.13,27h6.06V72.27h-6.06V69.53A11.21,11.21,0,0,1,141.07,73a11.5,11.5,0,0,1-8.89-3.91,14.58,14.58,0,0,1-3.51-10,14.07,14.07,0,0,1,3.51-9.75,11.26,11.26,0,0,1,16.95-.19Zm-14.3,32.11a9.09,9.09,0,0,0,2,6.11,6.57,6.57,0,0,0,5.2,2.38,6.94,6.94,0,0,0,5.41-2.3,9,9,0,0,0,2.06-6,9,9,0,0,0-2.06-6.06,6.84,6.84,0,0,0-5.36-2.33,6.69,6.69,0,0,0-5.2,2.36A8.7,8.7,0,0,0,134.83,59.14Z" transform="translate(-5.88 -27)"/><path class="cls-4" d="M184.36,60.64h-18.7a8,8,0,0,0,2.09,5.12,6.36,6.36,0,0,0,4.74,1.87,6.23,6.23,0,0,0,3.73-1.07,15.33,15.33,0,0,0,3.29-4l5.09,2.84a21.35,21.35,0,0,1-2.49,3.44,13.3,13.3,0,0,1-2.81,2.35,11.25,11.25,0,0,1-3.25,1.36,16.05,16.05,0,0,1-3.77.43,12.3,12.3,0,0,1-9.38-3.75q-3.53-3.78-3.53-10a14.43,14.43,0,0,1,3.43-10,13.05,13.05,0,0,1,18.26-.11q3.33,3.65,3.32,10.1Zm-6.19-4.93q-1.26-4.82-6.08-4.82a6.06,6.06,0,0,0-2.06.34,5.91,5.91,0,0,0-1.76,1,6.32,6.32,0,0,0-1.35,1.51,7.3,7.3,0,0,0-.86,2Z" transform="translate(-5.88 -27)"/><path class="cls-4" d="M208,46.18h6V72.27h-6V69.53a11.57,11.57,0,0,1-17-.42,14.58,14.58,0,0,1-3.51-10A14.11,14.11,0,0,1,191,49.36a11.34,11.34,0,0,1,8.79-3.91A11.12,11.12,0,0,1,208,49.2Zm-14.31,13a9.09,9.09,0,0,0,2,6.11,6.59,6.59,0,0,0,5.2,2.38,6.94,6.94,0,0,0,5.41-2.3,9,9,0,0,0,2.06-6,9,9,0,0,0-2.06-6.06,6.84,6.84,0,0,0-5.36-2.33,6.69,6.69,0,0,0-5.2,2.36A8.7,8.7,0,0,0,193.68,59.14Z" transform="translate(-5.88 -27)"/><path class="cls-4" d="M219.45,46.18h6.05v2.41a9.9,9.9,0,0,1,7.13-3.14,9,9,0,0,1,7.1,2.87q2.19,2.45,2.19,8v16h-6V57.69c0-2.57-.36-4.34-1.07-5.33s-2-1.5-3.8-1.5a4.66,4.66,0,0,0-4.26,2c-.82,1.3-1.24,3.58-1.24,6.83V72.27h-6.05Z" transform="translate(-5.88 -27)"/></svg>