<?xml version="1.0" encoding="UTF-8"?>
<svg width="162px" height="162px" viewBox="0 0 162 162" version="1.1" xmlns="http://www.w3.org/2000/svg" xmlns:xlink="http://www.w3.org/1999/xlink">
    <!-- Generator: Sketch 50.2 (55047) - http://www.bohemiancoding.com/sketch -->
    <title>Fill-1-Copy Copy</title>
    <desc>Created with Sketch.</desc>
    <defs>
        <linearGradient x1="73.5852024%" y1="7.7758521%" x2="35.3946013%" y2="100%" id="linearGradient-1">
            <stop stop-color="#5DAEFF" offset="0%"/>
            <stop stop-color="#1B8DFF" offset="100%"/>
        </linearGradient>
    </defs>
    <g id="Page-1" stroke="none" stroke-width="1" fill="none" fill-rule="evenodd">
        <path d="M124.201852,63.9045708 C121.545734,66.5610235 118.272149,68.2241788 114.843092,68.8960652 C119.621327,81.756878 116.522133,96.4741655 106.712188,106.283437 C99.94161,113.054012 90.8305889,116.637518 81.6066811,116.637518 C77.4543693,116.637518 73.2814416,115.901079 69.287298,114.410965 C68.6221722,117.85827 66.9552987,121.151122 64.2856674,123.821093 C57.1750929,130.931328 45.6469001,130.931328 38.5363257,123.821093 C31.426091,116.710858 31.426091,105.181989 38.5363257,98.0717541 C41.1907544,95.4176673 44.4616345,93.7551884 47.8876478,93.0822877 C43.0164712,80.1809186 46.0964041,65.3757588 55.9502853,55.521875 C65.7953828,45.6757641 80.5836427,42.5927924 93.4769,47.4457188 C94.1572374,44.041674 95.8143081,40.7944485 98.4525105,38.1552323 C105.563085,31.0449971 117.091613,31.0449971 124.201852,38.1552323 C131.312422,45.2658054 131.312422,56.7943361 124.201852,63.9045708 Z M81.3312365,0.565078002 C36.8941269,0.565078002 0.870468873,36.5887365 0.870468873,81.0261845 C0.870468873,125.463294 36.8941269,161.486953 81.3312365,161.486953 C125.768686,161.486953 161.792344,125.463294 161.792344,81.0261845 C161.792344,36.5887365 125.768686,0.565078002 81.3312365,0.565078002 Z M90.8376873,90.4085985 C85.6359727,95.6109873 77.20157,95.6109873 71.9995156,90.4085985 C66.7978053,85.2068865 66.7978053,76.7728186 71.9995156,71.5707682 C77.20157,66.3690562 85.6359727,66.3690562 90.8376873,71.5707682 C96.0397373,76.7728186 96.0397373,85.2068865 90.8376873,90.4085985 Z M102.719059,42.421779 C99.9804771,45.1600202 98.7249154,49.0794705 99.360302,52.9063165 C99.5823474,54.1588376 99.4481743,55.447521 98.8911969,56.6500218 C98.1726718,58.2016475 96.8937899,59.3152617 95.4067153,59.8627747 C93.9162658,60.4109645 92.2169443,60.3903482 90.6632927,59.6704695 C81.9412735,55.6313774 71.5138533,57.4878526 64.7148907,64.2868161 C57.9169383,71.0847658 56.0614778,81.5108351 60.0975281,90.2315022 C60.8272104,91.8081369 60.8353191,93.532127 60.2631345,95.0367742 C59.7075115,96.4971469 58.6060639,97.7510198 57.0764076,98.4594073 C56.2341827,98.8490876 55.3483614,99.0342957 54.4767326,99.0342957 C54.0627164,99.0342957 53.6554633,98.9781926 53.2536146,98.8970794 C49.272993,98.351932 45.5509147,99.5885683 42.8505294,102.289971 C40.579363,104.560799 39.3285307,107.58057 39.3285307,110.792985 C39.3285307,114.004386 40.579363,117.023819 42.8505294,119.295999 C47.5395381,123.982643 55.1678831,123.982643 59.8558815,119.295999 C62.5937839,116.556067 63.8496853,112.636955 63.213959,108.811799 C63.1794859,108.601919 63.1872593,108.397784 63.213959,108.198043 C63.1412983,107.185482 63.3143385,106.141151 63.7712761,105.154952 C64.4867571,103.609072 65.7595598,102.498499 67.2395314,101.949296 C68.7337044,101.394686 70.439445,101.41226 71.9991803,102.134504 C80.7218745,106.174611 91.1486197,104.316107 97.9475823,97.5184957 C104.74587,90.7202081 106.60133,80.2938013 102.564605,71.5734722 C101.852164,70.0346898 101.826814,68.3539601 102.358782,66.8746602 C102.900212,65.3686613 104.018896,64.0711906 105.586065,63.3455666 C106.686498,62.8355686 107.859261,62.6828054 108.97997,62.828471 C109.15369,62.8081926 109.33011,62.8017714 109.511263,62.8274572 C113.302622,63.3675352 117.022667,62.1288708 119.723732,59.4267922 C124.41207,54.7384577 124.41207,47.1101131 119.723732,42.421779 C115.035738,37.7327685 107.407053,37.7327685 102.719059,42.421779 Z" id="Fill-1-Copy-Copy" fill="url(#linearGradient-1)" fill-rule="nonzero"/>
    </g>
</svg>