<?xml version="1.0" encoding="UTF-8"?>
<!-- Generator: Adobe Illustrator 18.1.1, SVG Export Plug-In . SVG Version: 6.00 Build 0)  -->
<svg version="1.1" id="Livello_1" xmlns="http://www.w3.org/2000/svg" xmlns:xlink="http://www.w3.org/1999/xlink" x="0px" y="0px" viewBox="0 0 430.7 108.7" enable-background="new 0 0 430.7 108.7" xml:space="preserve">
<g>
	<g>
		<path fill="#FFBE0F" d="M85,61.6c-0.5-6.8-2.1-13.4-4.5-19.5c-0.7-1.6-1.4-3.2-2.1-4.7c2.8-1.6,4.7-4.7,4.7-8.1    c0-5.2-4.2-9.5-9.5-9.5H65h-2.8H27h-2.8h-8.5c-5.2,0-9.5,4.2-9.5,9.5c0,3.5,1.9,6.5,4.6,8.1c-0.8,1.5-1.5,3.1-2.1,4.7    c-2.5,6.1-4.1,12.6-4.6,19.5c0,0.8-0.1,1.6-0.1,2.5c0,5.9,1,11.6,2.7,16.9c0.5,1.5,1.5,4.1,2.8,5.8c0.1,0.2,0.3,0.4,0.4,0.5    c0,0,0,0,0.1,0.1c0.5,0.7,1.2,1.4,2,2.1c0.8,0.7,1.7,1.4,2.8,2c1,0.6,2.3,1,3.5,1.2c1.3,0.2,2.6,0,3.6-0.7c1-0.7,1.8-1.9,2.2-3.3    c0.9-2.8,0.8-6,0.5-8.8c-0.3-2.9-0.8-5.6-1.3-7.8c-1.1-4.6-2.1-7.5-2.1-7.5s1.2,2.9,2.6,7.4c0.7,2.3,1.4,4.9,1.9,7.8    c0.5,2.9,0.8,6.1,0.1,9.4c-0.4,1.6-1.2,3.3-2.6,4.5c-1.5,1.2-3.3,1.5-4.9,1.6c-1.7,0-3.3-0.4-4.6-0.9c-0.2-0.1-0.3-0.1-0.5-0.2    c2.5,3.8,5.6,7.3,9,10.4c1.8,1,4.8,1.7,8.7-0.3c6.8-3.5,13.7-3.9,13.7-3.9s6.8,0.4,13.7,3.9c4.6,2.4,7.9,1,9.5-0.2    c3.2-2.9,6-6.2,8.4-9.8c-0.2,0.1-0.3,0.1-0.4,0.2c-1.4,0.5-2.9,0.9-4.6,0.9c-1.6,0-3.5-0.4-4.9-1.6c-1.5-1.2-2.3-2.9-2.6-4.5    c-0.7-3.3-0.4-6.5,0.1-9.4c0.5-2.9,1.2-5.6,1.9-7.8c1.4-4.5,2.6-7.4,2.6-7.4s-1,3-2.1,7.5c-0.5,2.3-1,5-1.3,7.8    c-0.3,2.9-0.4,6,0.5,8.8c0.4,1.4,1.2,2.6,2.2,3.3c1,0.7,2.3,0.9,3.6,0.7c1.2-0.2,2.4-0.6,3.5-1.2c1.1-0.6,2-1.3,2.8-2    c1.1-0.9,1.9-1.9,2.5-2.7c1-1.4,1.8-3.3,2.4-4.8c2-5.6,3-11.6,3-17.9C85,63.3,85,62.4,85,61.6z"/>
		<circle fill="#FFFFFF" cx="27.5" cy="36.1" r="8.6"/>
		<path fill="#1F2228" d="M15.7,24.5c-2.6,0-4.7,2.1-4.7,4.7c0,1.7,0.9,3.2,2.2,4c1.6-2.7,3.5-5.3,5.5-7.7    C17.9,25,16.9,24.5,15.7,24.5z"/>
		<path fill="#1F2228" d="M73.5,24.5c-1.1,0-2.2,0.4-3,1.1c2,2.4,3.8,5,5.5,7.7c1.3-0.8,2.3-2.3,2.3-4    C78.2,26.7,76.1,24.5,73.5,24.5z"/>
		<path fill="#1F2228" d="M27.5,32.2c-0.3,0-0.5,0-0.8,0.1c0.2,0.3,0.2,0.6,0.2,1c0,1.2-0.9,2.1-2.1,2.1c-0.4,0-0.8-0.1-1.1-0.3    c-0.1,0.3-0.1,0.6-0.1,1c0,2.1,1.7,3.8,3.8,3.8c2.1,0,3.8-1.7,3.8-3.8C31.3,33.9,29.6,32.2,27.5,32.2z"/>
		<circle fill="#FFFFFF" cx="61.7" cy="36.1" r="8.6"/>
		<path fill="#1F2228" d="M61.7,32.2c-0.3,0-0.5,0-0.8,0.1c0.2,0.3,0.2,0.6,0.2,1c0,1.2-0.9,2.1-2.1,2.1c-0.4,0-0.8-0.1-1.1-0.3    c-0.1,0.3-0.1,0.6-0.1,1c0,2.1,1.7,3.8,3.8,3.8s3.8-1.7,3.8-3.8C65.6,33.9,63.8,32.2,61.7,32.2z"/>
		<circle fill="#FFFFFF" cx="44.5" cy="52.7" r="11.7"/>
		<path fill="#1F2228" d="M50.6,46.3c0-0.2,0-0.3-0.1-0.5c0-0.1,0-0.1,0-0.1h0c-0.1-0.1-0.1-0.3-0.2-0.4l0,0c0,0-0.7-1.4-5.7-1.4v0    c0,0,0,0,0,0c0,0,0,0,0,0v0c-2.9,0-4.4,0.5-5.1,0.9c-0.4,0.2-0.8,0.5-0.9,0.9h0c0,0,0,0.1,0,0.1c0,0.1-0.1,0.3-0.1,0.4    c0,0,0,0,0,0c0,0.7,0.2,2,1.9,3.4c1.5,1.2,2.7,1.7,3.4,1.8v12.9c0.3,0,0.5,0,0.8,0c0.3,0,0.5,0,0.8,0V51.6    c0.7-0.2,1.9-0.6,3.4-1.8C50.3,48.4,50.6,47.1,50.6,46.3C50.6,46.3,50.6,46.3,50.6,46.3z"/>
		<path fill="#FFBE0F" d="M25.6,17.3h37.9c-4.5-3.1-9.9-5.2-15.6-5.7l2.3-6.3c0,0-1.5-1.2-5.6-1.2s-5.6,1.2-5.6,1.2l2.3,6.3    C35.4,12.1,30.1,14.2,25.6,17.3z"/>
		<path fill="#FFFFFF" d="M10.5,82.9c0,0-0.6-0.8-1.3-2.2c-0.7-1.4-1.4-3.3-1.9-5.3c-0.5-2-0.7-4-0.7-5.6c0-1.5,0.1-2.6,0.1-2.6    s0.1,0.2,0.2,0.7C7,68.4,7.1,69,7.3,69.8c0.3,1.5,0.7,3.4,1.2,5.4c0.4,2,0.9,3.9,1.3,5.3c0.2,0.7,0.4,1.3,0.5,1.8    C10.5,82.7,10.5,82.9,10.5,82.9z"/>
		<path fill="#FFFFFF" d="M69.1,70.6c0,0,0,0.7-0.1,1.7c-0.1,1-0.3,2.3-0.6,3.6c-0.3,1.3-0.6,2.6-0.9,3.5c-0.1,0.5-0.3,0.9-0.4,1.2    C67,80.8,67,81,67,81s-0.1-0.7-0.1-1.7c0-1,0.1-2.4,0.4-3.7c0.3-1.3,0.7-2.6,1.1-3.5C68.7,71.2,69.1,70.6,69.1,70.6z"/>
		<path fill="#FFFFFF" d="M15.6,21c0,0-0.7,0.3-1.6,0.8c-0.5,0.3-1,0.6-1.5,1c-0.5,0.4-1,0.9-1.5,1.4c-0.5,0.5-0.9,1.1-1.3,1.6    c-0.4,0.6-0.7,1.1-0.9,1.6c-0.3,0.5-0.5,0.9-0.6,1.2c-0.1,0.3-0.2,0.5-0.2,0.5s0-0.2,0-0.5c0-0.3,0-0.8,0.2-1.4    c0.1-0.6,0.4-1.2,0.7-1.8c0.3-0.6,0.8-1.3,1.3-1.8c1.1-1.1,2.5-1.9,3.6-2.2C14.8,20.9,15.6,21,15.6,21z"/>
	</g>
	<g>
		<path fill="#1F2228" d="M174.5,45.5c-5.4,0-10,1.7-13.7,5.2c-3.7,3.5-5.6,7.9-5.6,13.3s1.9,9.8,5.6,13.3c3.7,3.5,8.3,5.2,13.7,5.2    c5.5,0,10.1-1.7,13.8-5.2c3.7-3.5,5.6-7.9,5.6-13.3s-1.9-9.8-5.6-13.3C184.5,47.2,179.9,45.5,174.5,45.5z M182,71.9    c-2,2.1-4.5,3.1-7.5,3.1c-2.9,0-5.4-1-7.4-3.1c-2-2-3-4.7-3-7.9c0-3.2,1-5.8,3-7.9c2-2.1,4.5-3.1,7.4-3.1c2.9,0,5.4,1,7.4,3.1    c2.1,2.1,3.1,4.7,3.1,7.9C185,67.2,184,69.8,182,71.9z"/>
		<path fill="#1F2228" d="M260.7,45.5c-5.3,0-9.6,1.7-12.9,5.2c-3.3,3.4-5,7.9-5,13.3c0,5.2,1.7,9.5,5.2,13.1    c3.5,3.6,8.1,5.4,13.7,5.4c1.7,0,3.3-0.2,4.9-0.6c1.6-0.4,2.9-0.8,3.9-1.3c1-0.5,2-1,2.9-1.6c0.9-0.6,1.6-1,1.8-1.3    c0.3-0.3,0.5-0.5,0.6-0.6l-3.7-6.1l-1.2,1c-0.8,0.6-2,1.3-3.7,2c-1.7,0.7-3.3,1-5,1c-2.8,0-5.1-0.8-7.1-2.5c-2-1.7-3.1-4-3.5-7    h24.4l0.2-3.3c0-4.8-1.4-8.8-4.2-12C269.4,47.1,265.6,45.5,260.7,45.5z M252.1,59.4c0.5-2.2,1.5-4,3-5.2c1.5-1.3,3.4-1.9,5.6-1.9    c1.8,0,3.4,0.7,4.7,2c1.3,1.3,1.9,3,2,5.1H252.1z"/>
		<path fill="#1F2228" d="M342.4,45.5c-1.5,0-3,0.2-4.3,0.6c-1.4,0.4-2.4,0.9-3.2,1.3c-0.8,0.5-1.5,1.1-2.1,1.7    c-0.6,0.6-1.1,1.1-1.2,1.3c-0.2,0.3-0.3,0.5-0.4,0.6h-0.1v-1.4c0-2.3-1.5-3.4-4.4-3.4h-2.2h-5.6h-8.2c-2.4,0-4,1.1-4.7,3.3    l-0.2,0.6l-7,20.3l-8.3-20.9c-0.5-1.2-1-2.1-1.7-2.6c-0.7-0.5-1.7-0.8-2.9-0.8h-2.6H280h-1l1,2.2l2.9,6.5l11.8,26.5l-1.2,2.7    c-1.2,3-3.2,4.5-5.8,4.5c-1.9,0-3.6-0.8-5.1-2.4l-3.4,6.2l1,0.9c0.6,0.6,1.7,1.2,3.2,1.8c1.5,0.6,3,0.9,4.7,0.9    c2.8,0,5.3-0.8,7.5-2.3c2.3-1.5,4-3.8,5.2-6.9L313.5,55c0.3-0.8,1-1.2,2-1.2h3.3h1.1h1.7c1,0,1.5,0.5,1.5,1.5v40.1h8.7V80.8    c0-1.2,0-2.2-0.1-3h0.1l1,1.2c0.6,0.7,1.8,1.5,3.5,2.3c1.7,0.8,3.6,1.2,5.6,1.2c4.7,0,8.6-1.7,11.6-5.1c3-3.4,4.6-7.9,4.6-13.4    c0-5.5-1.4-9.9-4.3-13.4C351,47.2,347.2,45.5,342.4,45.5z M346.7,72.1c-1.7,2-3.8,2.9-6.4,2.9c-2.8,0-4.9-1.1-6.4-3.2    c-1.5-2.1-2.3-4.7-2.3-7.6c0-3.7,0.9-6.5,2.6-8.3c1.7-1.9,3.8-2.8,6.3-2.8c2.6,0,4.7,1,6.4,3c1.6,2,2.4,4.7,2.4,8    C349.3,67.5,348.4,70.1,346.7,72.1z"/>
		<path fill="#1F2228" d="M381.9,45.5c-5.4,0-10,1.7-13.7,5.2c-3.7,3.5-5.6,7.9-5.6,13.3s1.9,9.8,5.6,13.3c3.7,3.5,8.3,5.2,13.7,5.2    c5.5,0,10.1-1.7,13.8-5.2c3.7-3.5,5.6-7.9,5.6-13.3s-1.9-9.8-5.6-13.3C391.9,47.2,387.3,45.5,381.9,45.5z M389.4,71.9    c-2,2.1-4.5,3.1-7.5,3.1c-2.9,0-5.4-1-7.4-3.1c-2-2-3-4.7-3-7.9c0-3.2,1-5.8,3-7.9c2-2.1,4.5-3.1,7.4-3.1c2.9,0,5.4,1,7.4,3.1    c2.1,2.1,3.1,4.7,3.1,7.9C392.4,67.2,391.4,69.8,389.4,71.9z"/>
		<path fill="#1F2228" d="M425.1,74.2c-1.8,0-3.4-0.5-4.8-1.4c-1.5-0.9-2.2-2.7-2.2-5.2V53.3h8v-7h-8v-9.6h-8.6v9.6h-4.8v7h4.6v15.4    c0,2.3,0.4,4.2,1.1,5.9c0.7,1.7,1.6,3,2.6,3.9c1,0.9,2.3,1.6,3.7,2.2c1.4,0.6,2.7,0.9,3.8,1.1c1.1,0.2,2.3,0.2,3.5,0.2    c1.1,0,2-0.1,2.7-0.2v-7.7L425.1,74.2z"/>
		<path fill="#1F2228" d="M139.3,37.2v16.1h-21.7V37.2c0-1.6-0.4-2.8-1.1-3.6c-0.7-0.8-1.9-1.1-3.6-1.1h-4.4v9.2v14v25.9h9.1V61    h21.7v20.6h9.1V61.3V41.7v-9.2H144C140.9,32.5,139.3,34,139.3,37.2z"/>
		<path fill="#1F2228" d="M222.7,45.5c-3.2,0-5.8,0.7-7.9,2.2c-2.1,1.5-3.6,3.2-4.6,5.1h-0.1l0.1-1.5v-1c0-2.6-1.5-3.9-4.6-3.9h-3.8    v9v13.2v13h8.7V65.4c0-1.8,0.2-3.3,0.7-4.7c0.6-2.2,1.8-3.9,3.5-5.2c1.7-1.3,3.7-2,6-2c2.1,0,3.5,0.6,4.3,1.8    c0.8,1.2,1.2,3,1.2,5.4v16.2c0,1.7,0.4,2.9,1.1,3.6c0.7,0.7,1.9,1.1,3.6,1.1h4.1v-8.9v-5.6v-8.2C235.1,50,230.9,45.5,222.7,45.5z"/>
	</g>
</g>
</svg>