<?xml version="1.0" encoding="UTF-8" standalone="no"?>
<!DOCTYPE svg PUBLIC "-//W3C//DTD SVG 1.1//EN" "http://www.w3.org/Graphics/SVG/1.1/DTD/svg11.dtd">
<svg width="100%" height="100%" viewBox="0 0 1024 1024" version="1.1" xmlns="http://www.w3.org/2000/svg" xmlns:xlink="http://www.w3.org/1999/xlink" xml:space="preserve" style="fill-rule:evenodd;clip-rule:evenodd;stroke-linejoin:round;stroke-miterlimit:1.41421;">
    <g transform="matrix(1,0,0,1,-2575,0)">
        <g id="Omnijar.-studio.-skunk.-works" transform="matrix(2.048,0,0,2.048,2575,0)">
            <rect x="0" y="0" width="500" height="500" style="fill:none;"/>
            <g transform="matrix(5.12094,0,0,5.12094,-19839.2,-10562.6)">
                <g transform="matrix(0.09535,0,0,0.09535,3628.62,2062.63)">
                    <path d="M2802.8,158.603L2802.8,158.599L2888.63,181.597L2901.42,196.18L2920.91,160.02L3246.74,160.02L3246.75,160.032L3246.77,160.032L3266.53,196.697L3279.78,181.597L3365.61,158.6L3365.61,158.603L3365.62,158.601L3421.19,194.337L3390.93,283.056L3330.84,316.017L3378.23,403.927L3183.84,836.598L3132.96,836.598L3124.27,851.177L3108.04,853.656L3083.83,864.994L3059.61,853.656L3043.38,851.177L3034.7,836.598L2983.86,836.598L2983.85,836.585L2983.84,836.585L2789.45,403.915L2837,315.704L2777.48,283.056L2747.22,194.337L2802.79,158.601L2802.8,158.603Z"/>
                </g>
                <g id="white" transform="matrix(0.09535,0,0,0.09535,3873.81,2062.63)">
                    <path d="M536.485,160.068L529.386,171.171L531.933,196.2L551.973,176.155L609.282,178.893L559.661,195.903L534.696,223.347L536.992,245.906L576.101,221.358L539.242,264.433L538.939,265.032L541.022,285.495L563.281,343.547L541.539,475.366L555.318,528.458L539.144,583.994L512.497,778.261L485.85,583.994L469.676,528.458L483.455,475.366L461.713,343.547L483.972,285.469L486.055,265.011L485.762,264.433L448.899,221.358L488,245.901L490.296,223.345L465.334,195.903L415.718,178.893L473.021,176.155L493.06,196.199L495.608,171.171L488.459,159.99L488.459,144.634L684.365,144.717L698.002,170.011L699.757,168.011L796.622,142.053L868,187.961L831.948,293.671L780.004,322.153L823.725,403.27L622.228,851.783L570.178,851.783L562.178,865.209L541.587,868.074L512.31,881.822L481.864,867.509L484.183,852.889L488.121,853.487L512.291,864.819L537.43,853.147L552.759,851.009L561.445,836.435L612.291,836.422L806.61,403.887L759.27,316.016L819.336,283.065L849.586,194.374L794.032,158.649L708.23,181.639L694.971,196.76L675.626,160.068L536.485,160.068ZM455.755,851.783L425.038,851.783L425.038,836.422L455.755,836.422L455.755,851.783ZM402.456,814.363L388.448,820.656L375.86,792.634L389.869,786.34L402.456,814.363ZM374.765,752.726L360.755,759.019L348.168,730.998L362.177,724.704L374.765,752.726ZM347.073,691.08L333.064,697.373L320.477,669.361L334.485,663.067L347.073,691.08ZM319.381,629.443L305.372,635.736L292.784,607.715L306.794,601.421L319.381,629.443ZM291.688,567.806L277.68,574.1L265.093,546.078L279.101,539.784L291.688,567.806ZM263.996,506.161L249.988,512.454L237.401,484.442L251.409,478.147L263.996,506.161ZM236.304,444.524L222.295,450.817L209.708,422.805L223.717,416.502L236.304,444.524ZM243.547,356.579L228.974,383.615L215.455,376.335L230.028,349.291L243.547,356.579ZM265.579,315.703L258.194,329.166L239.661,319.002L247.047,305.539L265.579,315.703ZM206.077,283.065L214.729,287.82L207.345,301.283L193.464,293.671L184.812,268.294L199.348,263.337L206.077,283.065ZM187.45,228.449L172.915,233.407L163,204.344L177.536,199.377L187.45,228.449ZM340.96,175.844L329.976,196.226L319.17,183.906L327.441,168.555L340.96,175.844ZM228.213,160.686L202.378,177.299L194.072,164.38L219.907,147.767L228.213,160.686ZM296.989,160.326L293.015,175.162L263.346,167.219L267.32,152.383L296.989,160.326ZM388.115,160.068L357.4,160.068L357.4,144.717L388.115,144.717L388.115,160.068ZM455.689,160.068L424.974,160.068L424.974,144.717L455.689,144.717L455.689,160.068Z" style="fill:white;"/>
                </g>
                <g id="outline" transform="matrix(0.09535,0,0,0.09535,3874.14,2062.63)">
                    <path d="M680.918,144.664L694.559,169.966L696.314,167.966L793.21,142L864.61,187.922L828.547,293.665L776.587,322.156L820.321,403.298L618.761,851.951L566.695,851.951L558.693,865.381L538.095,868.247L508.854,882L478.354,867.682L480.673,853.057L484.612,853.656L508.835,864.991L533.937,853.316L549.271,851.177L557.959,836.598L608.821,836.585L803.201,403.915L755.846,316.017L815.931,283.056L846.19,194.337L790.619,158.601L704.79,181.598L691.527,196.724L672.176,160.02L484.233,160.02L484.233,144.664L680.918,144.664ZM452.236,851.951L421.51,851.951L421.51,836.585L452.236,836.585L452.236,851.951ZM398.921,814.519L384.908,820.814L372.316,792.784L386.33,786.488L398.921,814.519ZM371.221,752.863L357.207,759.158L344.616,731.128L358.629,724.832L371.221,752.863ZM343.52,691.198L329.507,697.493L316.916,669.472L330.929,663.176L343.52,691.198ZM315.82,629.542L301.806,635.837L289.215,607.807L303.229,601.511L315.82,629.542ZM288.118,567.886L274.106,574.181L261.515,546.151L275.527,539.855L288.118,567.886ZM260.418,506.221L246.405,512.516L233.814,484.495L247.827,478.199L260.418,506.221ZM232.717,444.565L218.704,450.86L206.113,422.839L220.126,416.534L232.717,444.565ZM239.962,356.593L225.385,383.637L211.861,376.355L226.439,349.302L239.962,356.593ZM262.001,315.704L257.455,324.138L254.614,329.171L236.075,319.004L243.463,305.537L262.001,315.704ZM202.48,283.056L211.135,287.812L203.749,301.279L189.864,293.665L181.209,268.28L195.749,263.321L202.48,283.056ZM183.848,228.423L169.308,233.382L159.39,204.31L173.931,199.342L183.848,228.423ZM337.406,175.801L326.418,196.19L321.428,190.503L319.38,188.17L315.609,183.866L323.882,168.51L337.406,175.801ZM224.623,160.638L198.78,177.257L190.472,164.334L216.315,147.715L224.623,160.638ZM293.421,160.278L289.446,175.119L259.767,167.173L263.743,152.333L293.421,160.278ZM384.594,160.02L353.869,160.02L353.869,144.664L384.594,144.664L384.594,160.02ZM452.189,160.02L421.464,160.02L421.464,144.664L452.189,144.664L452.189,160.02Z" style="stroke:black;stroke-width:1px;"/>
                </g>
                <g id="ears">
                    <g transform="matrix(0.0439445,0,0,0.0439445,3877.65,2066.51)">
                        <path d="M573.801,356.785L725,449.134L599.06,305.544L412.831,255.644L292.255,333.181L420.874,307.978L573.801,356.785Z" style="fill:url(#_Linear1);fill-rule:nonzero;"/>
                    </g>
                    <g transform="matrix(0.0439445,0,0,0.0439445,3877.67,2066.51)">
                        <path d="M1474.2,356.785L1323,449.134L1448.94,305.544L1635.17,255.644L1755.75,333.181L1627.13,307.978L1474.2,356.785Z" style="fill:url(#_Linear2);fill-rule:nonzero;"/>
                    </g>
                </g>
                <g id="eyes" transform="matrix(0.0484566,0,0,0.0484565,3873.81,2062.63)">
                    <g id="Right" transform="matrix(0.906883,0,0,0.906883,82.4214,40.9629)">
                        <path d="M1208.3,1290.14L1266.2,1198.48L1437.03,1051L1228.5,1160.43L1208.3,1290.14Z" style="fill:white;fill-rule:nonzero;"/>
                    </g>
                    <g id="Left" transform="matrix(0.906883,0,0,0.906883,79.8201,40.9629)">
                        <path d="M843.332,1290.14L785.431,1198.48L614.602,1051L823.127,1160.43L843.332,1290.14Z" style="fill:white;fill-rule:nonzero;"/>
                    </g>
                    <g transform="matrix(0.906884,0,0,0.906884,82.4201,41.0072)">
                        <path d="M1191.69,1315.34L1196.44,1288.29L1219.16,1158.97L1220.04,1153.98L1224.28,1151.96L1400.27,1068.44L1437.03,1051L1406.65,1077.73L1267.62,1200.03L1267.98,1199.6L1208.3,1290.14L1191.69,1315.34ZM1223.92,1264.32L1264.42,1197.36L1264.55,1197.15L1264.78,1196.93L1398.97,1069.34L1405.35,1078.62L1232.72,1168.89L1237.85,1161.88L1223.92,1264.32Z" style="fill:url(#_Linear3);fill-rule:nonzero;"/>
                    </g>
                    <g transform="matrix(0.906884,0,0,0.906884,79.8187,41.0072)">
                        <path d="M827.713,1264.32L813.783,1161.88L818.908,1168.89L646.286,1078.62L652.659,1069.34L786.848,1196.93L787.082,1197.15L787.207,1197.36L827.713,1264.32ZM859.94,1315.34L783.656,1199.6L784.014,1200.03L644.985,1077.73L614.603,1051L651.359,1068.44L827.347,1151.96L831.596,1153.98L832.473,1158.97L859.94,1315.34Z" style="fill:url(#_Linear4);fill-rule:nonzero;"/>
                    </g>
                </g>
            </g>
        </g>
    </g>
    <defs>
        <linearGradient id="_Linear1" x1="0" y1="0" x2="1" y2="0" gradientUnits="userSpaceOnUse" gradientTransform="matrix(432.744,0,0,432.744,292.255,352.389)"><stop offset="0" style="stop-color:rgb(72,72,71);stop-opacity:1"/><stop offset="1" style="stop-color:rgb(29,29,27);stop-opacity:1"/></linearGradient>
        <linearGradient id="_Linear2" x1="0" y1="0" x2="1" y2="0" gradientUnits="userSpaceOnUse" gradientTransform="matrix(-432.744,5.29959e-14,-5.29959e-14,-432.744,1755.74,352.389)"><stop offset="0" style="stop-color:rgb(72,72,71);stop-opacity:1"/><stop offset="1" style="stop-color:rgb(29,29,27);stop-opacity:1"/></linearGradient>
        <linearGradient id="_Linear3" x1="0" y1="0" x2="1" y2="0" gradientUnits="userSpaceOnUse" gradientTransform="matrix(-286.579,3.50958e-14,-3.50958e-14,-286.579,1474.11,1183.17)"><stop offset="0" style="stop-color:rgb(72,72,71);stop-opacity:1"/><stop offset="1" style="stop-color:rgb(29,29,27);stop-opacity:1"/></linearGradient>
        <linearGradient id="_Linear4" x1="0" y1="0" x2="1" y2="0" gradientUnits="userSpaceOnUse" gradientTransform="matrix(286.579,0,0,286.579,577.518,1183.17)"><stop offset="0" style="stop-color:rgb(72,72,71);stop-opacity:1"/><stop offset="1" style="stop-color:rgb(29,29,27);stop-opacity:1"/></linearGradient>
    </defs>
</svg>
