<?xml version="1.0" encoding="utf-8"?>
<!-- Generator: Adobe Illustrator 19.1.0, SVG Export Plug-In . SVG Version: 6.00 Build 0)  -->
<svg version="1.1" id="Layer_1" xmlns="http://www.w3.org/2000/svg" xmlns:xlink="http://www.w3.org/1999/xlink" x="0px" y="0px"
     viewBox="-345.3 184 160 34" enable-background="new -345.3 184 160 34" xml:space="preserve">
<g id="XMLID_1_">
    <path id="XMLID_2_" fill="#E44A49" d="M-290,211.1c-1.1,0-2.1-0.2-3-0.7c-0.9-0.4-1.7-1-2.3-1.8c-0.6-0.7-1.1-1.6-1.5-2.5
        c-0.4-1-0.5-1.9-0.5-2.9s0.2-2,0.6-3s0.9-1.8,1.6-2.5c0.7-0.7,1.4-1.3,2.3-1.7s1.9-0.6,2.9-0.6c1.1,0,2.1,0.2,3,0.7
        s1.7,1.1,2.3,1.8c0.6,0.7,1.1,1.6,1.5,2.5c0.4,0.9,0.5,1.9,0.5,2.9s-0.2,2-0.6,3s-0.9,1.8-1.5,2.5c-0.7,0.7-1.4,1.3-2.3,1.7
        C-288,210.9-289,211.1-290,211.1z M-295.8,203.2c0,0.9,0.1,1.7,0.4,2.5c0.3,0.8,0.7,1.5,1.2,2.1c0.5,0.6,1.1,1.1,1.8,1.5
        c0.7,0.4,1.5,0.5,2.4,0.5c0.9,0,1.7-0.2,2.4-0.6c0.7-0.4,1.3-0.9,1.8-1.5s0.9-1.3,1.2-2.1c0.3-0.8,0.4-1.6,0.4-2.4
        s-0.1-1.7-0.4-2.5c-0.3-0.8-0.7-1.5-1.2-2.1c-0.5-0.6-1.1-1.1-1.8-1.4c-0.7-0.4-1.5-0.5-2.3-0.5c-0.9,0-1.7,0.2-2.4,0.6
        c-0.7,0.4-1.3,0.9-1.8,1.5c-0.5,0.6-0.9,1.3-1.2,2.1C-295.7,201.6-295.8,202.4-295.8,203.2z"/>
    <path id="XMLID_5_" fill="#E44A49" d="M-269.8,211h-1.5v-6.4c0-1.4-0.2-2.4-0.6-3c-0.4-0.6-1-0.9-1.8-0.9c-0.4,0-0.9,0.1-1.3,0.2
        c-0.4,0.2-0.9,0.4-1.2,0.7c-0.4,0.3-0.7,0.6-1,1c-0.3,0.4-0.5,0.8-0.6,1.3v7h-1.5v-11.4h1.3v2.6c0.2-0.4,0.5-0.8,0.9-1.1
        c0.3-0.3,0.7-0.6,1.2-0.9c0.4-0.2,0.9-0.4,1.4-0.6c0.5-0.1,1-0.2,1.5-0.2c0.6,0,1.2,0.1,1.6,0.4c0.4,0.2,0.8,0.6,1,1
        c0.2,0.4,0.5,0.9,0.6,1.6c0.1,0.6,0.2,1.3,0.2,2v6.7H-269.8z"/>
    <path id="XMLID_7_" fill="#E44A49" d="M-261,211.2c-0.8,0-1.6-0.2-2.3-0.5s-1.3-0.7-1.8-1.3s-0.9-1.2-1.2-1.9
        c-0.3-0.7-0.4-1.5-0.4-2.3c0-0.8,0.1-1.6,0.4-2.3c0.3-0.7,0.7-1.3,1.2-1.9c0.5-0.5,1.1-1,1.8-1.3c0.7-0.3,1.5-0.5,2.3-0.5
        c0.8,0,1.6,0.2,2.3,0.5c0.7,0.3,1.3,0.7,1.8,1.3c0.5,0.5,0.9,1.2,1.2,1.9c0.3,0.7,0.4,1.5,0.4,2.2c0,0.1,0,0.2,0,0.4
        c0,0.1,0,0.2,0,0.2h-9.8c0,0.6,0.2,1.2,0.4,1.7c0.2,0.5,0.5,1,0.9,1.4c0.4,0.4,0.8,0.7,1.3,0.9c0.5,0.2,1,0.3,1.6,0.3
        c0.4,0,0.8-0.1,1.1-0.2c0.4-0.1,0.7-0.2,1-0.4c0.3-0.2,0.6-0.4,0.8-0.6c0.2-0.3,0.4-0.5,0.6-0.8l1.3,0.4c-0.2,0.4-0.4,0.8-0.7,1.2
        c-0.3,0.3-0.7,0.6-1.1,0.9c-0.4,0.3-0.9,0.5-1.4,0.6C-260,211.2-260.5,211.2-261,211.2z M-256.8,204.7c0-0.6-0.2-1.2-0.4-1.7
        c-0.2-0.5-0.5-0.9-0.9-1.3c-0.4-0.4-0.8-0.7-1.3-0.9c-0.5-0.2-1-0.3-1.6-0.3s-1.1,0.1-1.6,0.3c-0.5,0.2-0.9,0.5-1.3,0.9
        s-0.7,0.8-0.9,1.3c-0.2,0.5-0.4,1.1-0.4,1.7H-256.8z"/>
    <path id="XMLID_10_" fill="#515151" d="M-243.1,199.5c-0.1-0.1-0.3-0.2-0.6-0.4c-0.3-0.2-0.6-0.3-1-0.5c-0.4-0.2-0.8-0.3-1.3-0.4
        s-0.9-0.2-1.4-0.2c-0.8,0-1.5,0.2-1.9,0.5c-0.4,0.3-0.6,0.7-0.6,1.3c0,0.3,0.1,0.6,0.2,0.8c0.2,0.2,0.4,0.4,0.7,0.6
        c0.3,0.2,0.7,0.3,1.1,0.4c0.4,0.1,1,0.3,1.6,0.4c0.8,0.2,1.5,0.4,2.1,0.7c0.6,0.2,1.2,0.5,1.6,0.9c0.4,0.4,0.8,0.8,1,1.3
        s0.4,1.1,0.4,1.8c0,0.8-0.2,1.6-0.5,2.1c-0.3,0.6-0.7,1.1-1.3,1.4c-0.5,0.4-1.1,0.6-1.8,0.8c-0.7,0.2-1.4,0.3-2.2,0.3
        c-1.2,0-2.3-0.2-3.5-0.5c-1.1-0.4-2.2-0.9-3.1-1.5l1.3-2.6c0.1,0.1,0.4,0.3,0.7,0.5c0.3,0.2,0.8,0.4,1.2,0.6c0.5,0.2,1,0.4,1.6,0.5
        c0.6,0.1,1.2,0.2,1.8,0.2c1.7,0,2.5-0.5,2.5-1.6c0-0.4-0.1-0.6-0.3-0.9c-0.2-0.2-0.5-0.4-0.8-0.6c-0.4-0.2-0.8-0.3-1.3-0.5
        c-0.5-0.1-1.1-0.3-1.7-0.5c-0.7-0.2-1.4-0.4-1.9-0.7c-0.6-0.2-1-0.5-1.4-0.8c-0.4-0.3-0.6-0.7-0.8-1.1s-0.3-1-0.3-1.6
        c0-0.8,0.1-1.5,0.4-2.1s0.7-1.1,1.2-1.5s1.1-0.7,1.8-0.9c0.7-0.2,1.4-0.3,2.2-0.3c1.1,0,2.1,0.2,3,0.5c0.9,0.3,1.7,0.8,2.4,1.2
        L-243.1,199.5z"/>
    <path id="XMLID_12_" fill="#515151" d="M-238.6,197.9V195h2.9v2.9H-238.6z M-238.6,211v-11.5h2.9V211H-238.6z"/>
    <path id="XMLID_15_" fill="#515151" d="M-228,211.1c-0.8,0-1.5-0.2-2.1-0.5c-0.6-0.3-1.2-0.7-1.6-1.3c-0.5-0.5-0.8-1.2-1.1-1.9
        c-0.2-0.7-0.4-1.5-0.4-2.2c0-0.8,0.1-1.6,0.4-2.3s0.6-1.3,1.1-1.9c0.5-0.5,1-1,1.7-1.3c0.7-0.3,1.4-0.5,2.2-0.5
        c0.9,0,1.7,0.2,2.4,0.6s1.2,0.9,1.7,1.6v-2h2.6v11c0,0.9-0.2,1.6-0.5,2.3c-0.3,0.7-0.8,1.2-1.3,1.7s-1.2,0.8-2,1.1
        c-0.8,0.2-1.6,0.4-2.6,0.4c-1.3,0-2.3-0.2-3.2-0.6s-1.6-1-2.2-1.8l1.6-1.6c0.4,0.5,1,1,1.7,1.3c0.7,0.3,1.4,0.5,2.1,0.5
        c0.5,0,0.9-0.1,1.3-0.2c0.4-0.1,0.8-0.3,1.1-0.6s0.6-0.6,0.7-1c0.2-0.4,0.3-0.9,0.3-1.5V209c-0.4,0.7-0.9,1.2-1.6,1.5
        S-227.2,211.1-228,211.1z M-226.9,208.7c0.3,0,0.6-0.1,0.9-0.2c0.3-0.1,0.6-0.2,0.8-0.4c0.2-0.2,0.5-0.4,0.6-0.6
        c0.2-0.2,0.3-0.5,0.4-0.7V204c-0.3-0.7-0.7-1.2-1.2-1.6c-0.6-0.4-1.1-0.6-1.8-0.6c-0.5,0-0.9,0.1-1.2,0.3c-0.3,0.2-0.7,0.5-1,0.8
        s-0.5,0.7-0.6,1.1c-0.1,0.4-0.2,0.9-0.2,1.3c0,0.5,0.1,0.9,0.2,1.3c0.2,0.4,0.4,0.8,0.7,1.1c0.3,0.3,0.6,0.5,1,0.7
        C-227.8,208.6-227.4,208.7-226.9,208.7z"/>
    <path id="XMLID_18_" fill="#515151" d="M-207.3,211h-2.9v-6.5c0-0.9-0.2-1.6-0.5-2s-0.8-0.6-1.3-0.6c-0.3,0-0.6,0.1-0.9,0.2
        c-0.3,0.1-0.6,0.3-0.9,0.5c-0.3,0.2-0.5,0.5-0.7,0.8c-0.2,0.3-0.4,0.6-0.5,1v6.7h-3v-11.6h2.7v2.1c0.4-0.7,1-1.3,1.8-1.7
        s1.7-0.6,2.7-0.6c0.7,0,1.3,0.1,1.8,0.4c0.5,0.3,0.8,0.6,1.1,1c0.3,0.4,0.4,0.9,0.5,1.5c0.1,0.5,0.1,1.1,0.1,1.7L-207.3,211
        L-207.3,211z"/>
    <path id="XMLID_20_" fill="#515151" d="M-201,211.2c-0.6,0-1.1-0.1-1.6-0.3c-0.5-0.2-0.9-0.4-1.3-0.8c-0.4-0.3-0.6-0.7-0.8-1.2
        c-0.2-0.4-0.3-0.9-0.3-1.5c0-0.5,0.1-1,0.4-1.5c0.2-0.5,0.6-0.9,1-1.2s1-0.6,1.6-0.8c0.6-0.2,1.3-0.3,2-0.3c0.5,0,1,0,1.5,0.1
        c0.5,0.1,0.9,0.2,1.3,0.4v-0.7c0-0.8-0.2-1.3-0.6-1.8s-1.1-0.6-1.9-0.6c-0.6,0-1.2,0.1-1.8,0.3c-0.6,0.2-1.2,0.5-1.8,1l-0.9-1.9
        c1.5-1,3.1-1.5,4.8-1.5s2.9,0.4,3.9,1.2c0.9,0.8,1.4,2,1.4,3.5v3.6c0,0.3,0.1,0.5,0.2,0.7c0.1,0.1,0.3,0.2,0.6,0.2v2.5
        c-0.3,0.1-0.5,0.1-0.8,0.1s-0.5,0-0.6,0c-0.6,0-1-0.1-1.3-0.4c-0.3-0.3-0.5-0.6-0.5-1l-0.1-0.6c-0.5,0.7-1.1,1.2-1.9,1.5
        C-199.4,211-200.2,211.2-201,211.2z M-200.2,209.1c0.5,0,1-0.1,1.4-0.3c0.4-0.2,0.8-0.4,1-0.7c0.3-0.2,0.5-0.5,0.5-0.8V206
        c-0.4-0.1-0.7-0.2-1.1-0.3c-0.4-0.1-0.8-0.1-1.2-0.1c-0.8,0-1.4,0.2-1.9,0.5s-0.7,0.8-0.7,1.3s0.2,0.9,0.6,1.2
        C-201.2,208.9-200.7,209.1-200.2,209.1z"/>
    <path id="XMLID_23_" fill="#515151" d="M-191,194.9h2.9v12.2c0,0.9,0.4,1.3,1.2,1.3c0.2,0,0.3,0,0.6-0.1c0.2-0.1,0.4-0.1,0.6-0.2
        l0.4,2.4c-0.4,0.2-0.9,0.3-1.4,0.4s-1,0.2-1.4,0.2c-0.9,0-1.6-0.2-2.1-0.7s-0.8-1.2-0.8-2.1V194.9z"/>
</g>
<path id="XMLID_8438_" fill="#E44A49" d="M-326.8,184c-10.2,0-18.5,8.3-18.5,18.5c0,6.5,3.4,12.2,8.4,15.5c0.3-0.2,0.6-0.4,0.9-0.6
    c0.2-0.1,0.5-0.3,0.7-0.4c0.3-0.1,0.6-0.3,0.8-0.4c0.3-0.1,0.6-0.2,0.9-0.4c0.2-0.1,0.5-0.2,0.7-0.3c0.3-0.1,0.7-0.2,1-0.3
    c0.3-0.1,0.5-0.1,0.8-0.2c0.3-0.1,0.5-0.1,0.8-0.2s0.6-0.1,0.9-0.1l0,0c0.3,0,0.7-0.1,1-0.1l0,0v-1.2v-1v-4.1v-1V204h-1v-2h1h3h1
    v5.4v1.1v4.2v1v1.5l0,0c2.8,0.4,5.3,1.4,7.6,2.8l0,0c5.1-3.3,8.4-9,8.4-15.5C-308.3,192.3-316.6,184-326.8,184z M-321.3,202.5
    c0-3-2.5-5.5-5.5-5.5s-5.5,2.5-5.5,5.5c0,2.1,1.2,4,3,4.9v1.1c-2.3-1-4-3.3-4-6c0-3.6,2.9-6.5,6.5-6.5s6.5,2.9,6.5,6.5
    c0,2.3-1.2,4.3-3,5.5v-1.2C-322.1,205.7-321.3,204.2-321.3,202.5z M-323.3,213.4v-1.1c4.1-1.4,7-5.3,7-9.9c0-5.7-4.7-10.4-10.5-10.4
    s-10.5,4.7-10.5,10.5c0,4.9,3.4,9.1,8,10.2v1c-5.1-1.1-9-5.7-9-11.2c0-6.4,5.1-11.5,11.5-11.5s11.5,5.1,11.5,11.5
    C-315.3,207.6-318.7,212-323.3,213.4z"/>
</svg>
