<?xml version="1.0" encoding="UTF-8" standalone="no"?>
<svg width="1378px" height="492px" viewBox="0 0 1378 492" version="1.1" xmlns="http://www.w3.org/2000/svg" xmlns:xlink="http://www.w3.org/1999/xlink">
    <!-- Generator: Sketch 3.7.2 (28276) - http://www.bohemiancoding.com/sketch -->
    <title>pingcap-tshirt-black@1x</title>
    <desc>Created with Sketch.</desc>
    <defs></defs>
    <g id="Page-1" stroke="none" stroke-width="1" fill="none" fill-rule="evenodd">
        <text id="PingCAP" font-family="AvenirNext-UltraLight, Avenir Next" font-size="225" font-weight="300" letter-spacing="5.4092308">
            <tspan x="428" y="319" fill="#000000">Ping</tspan>
            <tspan x="893.336923" y="319" letter-spacing="5.55742893" fill="#5395E2">CAP</tspan>
        </text>
        <g id="Rectangle-1-+-Rectangle-1" transform="translate(58.000000, 18.000000)" fill-opacity="0.771484375" fill="#4990E2">
            <path d="M2.74991132,444.259393 C2.77804662,449.232749 6.59746832,451.910467 11.2786505,450.241021 L208.482575,379.912354 C213.164732,378.24256 216.960371,372.854014 216.960371,367.891771 L216.960371,122.294806 C216.960371,117.325815 213.156668,111.979501 208.456381,110.350644 L8.95712548,41.2153352 C4.26050185,39.5877476 0.475900402,42.2922683 0.504079599,47.2733838 L2.74991132,444.259393 Z" id="Rectangle-1"></path>
            <path d="M58.993448,287.148279 C58.993448,292.117122 62.8841322,295.100528 67.6846088,293.811613 L301.202132,231.112782 C306.002128,229.823996 309.893293,224.746961 309.893293,219.769955 L309.893293,98.0199291 C309.893293,93.0442444 306.102397,87.628985 301.437686,85.9288351 L67.4490555,0.646870749 C62.7791524,-1.05517137 58.993448,1.58799097 58.993448,6.56193831 L58.993448,287.148279 Z" id="Rectangle-1"></path>
        </g>
    </g>
</svg>