<?xml version="1.0" encoding="utf-8"?>
<!-- Generator: Adobe Illustrator 18.0.0, SVG Export Plug-In . SVG Version: 6.00 Build 0)  -->
<!DOCTYPE svg PUBLIC "-//W3C//DTD SVG 1.1//EN" "http://www.w3.org/Graphics/SVG/1.1/DTD/svg11.dtd">
<svg version="1.1" id="Layer_1" xmlns="http://www.w3.org/2000/svg" xmlns:xlink="http://www.w3.org/1999/xlink" x="0px" y="0px"
	 viewBox="0 0 324 144" enable-background="new 0 0 324 144" xml:space="preserve">
<g>
	<path fill="#18394E" d="M139.1,64.6c0-2.3-1.3-3.6-5-3.6c-3.7,0-5,1.3-5,3.6v0.8c0,1.9,1.2,2.5,2.1,2.8l7.7,2.9
		c2.5,1,4.6,2.6,4.6,5.7v3.5c0,3.5-2.5,6.5-9.5,6.5c-7.1,0-9.5-3-9.5-6.5V78c0-0.6,0.3-0.8,0.9-0.8h2.5c0.5,0,0.7,0.2,0.7,0.8v1.9
		c0,2.3,1.6,3.6,5.4,3.6c3.8,0,5.4-1.3,5.4-3.6v-2c0-2.1-1.9-2.8-3.5-3.5l-7.1-2.7c-1.9-0.7-3.7-2.6-3.7-5.2v-2.4
		c0-3.5,2.2-6.5,9-6.5c6.9,0,9.1,3,9.1,6.5v1.9c0,0.5-0.2,0.8-0.7,0.8H140c-0.6,0-0.9-0.2-0.9-0.8V64.6z"/>
	<path fill="#18394E" d="M166.6,80.4c0,3.5-2.1,6.5-9.4,6.5c-7.3,0-9.4-3-9.4-6.5V64.1c0-3.5,2.1-6.5,9.4-6.5c7.3,0,9.4,3,9.4,6.5
		v2.1c0,0.6-0.2,0.8-0.8,0.8h-2.4c-0.6,0-0.9-0.2-0.9-0.8v-1.4c0-2.3-1.5-3.7-5.3-3.7c-3.8,0-5.3,1.4-5.3,3.7v15
		c0,2.3,1.5,3.7,5.3,3.7c3.8,0,5.3-1.4,5.3-3.7v-2c0-0.5,0.3-0.8,0.9-0.8h2.4c0.5,0,0.8,0.3,0.8,0.8V80.4z"/>
	<path fill="#18394E" d="M197.7,83.1h10.8c0.5,0,0.9,0.2,0.9,0.8v1.9c0,0.6-0.4,0.8-0.9,0.8h-14.3c-0.5,0-0.7-0.3-0.7-0.8v-27
		c0-0.6,0.2-0.9,0.8-0.9h2.6c0.5,0,0.8,0.3,0.8,0.9V83.1z"/>
	<path fill="#18394E" d="M240.7,57.9c0.5,0,0.7,0.2,0.7,0.8v1.9c0,0.6-0.1,0.8-0.7,0.8h-6.6v24.4c0,0.6-0.3,0.8-0.9,0.8h-2.6
		c-0.5,0-0.9-0.3-0.9-0.8V61.4h-6.6c-0.6,0-0.7-0.2-0.7-0.8v-1.9c0-0.6,0.1-0.8,0.7-0.8H240.7z"/>
	<path fill="#18394E" d="M139.1,64.6c0-2.3-1.3-3.6-5-3.6c-3.7,0-5,1.3-5,3.6v0.8c0,1.9,1.2,2.5,2.1,2.8l7.7,2.9
		c2.5,1,4.6,2.6,4.6,5.7v3.5c0,3.5-2.5,6.5-9.5,6.5c-7.1,0-9.5-3-9.5-6.5V78c0-0.6,0.3-0.8,0.9-0.8h2.5c0.5,0,0.7,0.2,0.7,0.8v1.9
		c0,2.3,1.6,3.6,5.4,3.6c3.8,0,5.4-1.3,5.4-3.6v-2c0-2.1-1.9-2.8-3.5-3.5l-7.1-2.7c-1.9-0.7-3.7-2.6-3.7-5.2v-2.4
		c0-3.5,2.2-6.5,9-6.5c6.9,0,9.1,3,9.1,6.5v1.9c0,0.5-0.2,0.8-0.7,0.8H140c-0.6,0-0.9-0.2-0.9-0.8V64.6z"/>
	<path fill="#18394E" d="M166.6,80.4c0,3.5-2.1,6.5-9.4,6.5c-7.3,0-9.4-3-9.4-6.5V64.1c0-3.5,2.1-6.5,9.4-6.5c7.3,0,9.4,3,9.4,6.5
		v2.1c0,0.6-0.2,0.8-0.8,0.8h-2.4c-0.6,0-0.9-0.2-0.9-0.8v-1.4c0-2.3-1.5-3.7-5.3-3.7c-3.8,0-5.3,1.4-5.3,3.7v15
		c0,2.3,1.5,3.7,5.3,3.7c3.8,0,5.3-1.4,5.3-3.7v-2c0-0.5,0.3-0.8,0.9-0.8h2.4c0.5,0,0.8,0.3,0.8,0.8V80.4z"/>
	<path fill="#18394E" d="M197.7,83.1h10.8c0.5,0,0.9,0.2,0.9,0.8v1.9c0,0.6-0.4,0.8-0.9,0.8h-14.3c-0.5,0-0.7-0.3-0.7-0.8v-27
		c0-0.6,0.2-0.9,0.8-0.9h2.6c0.5,0,0.8,0.3,0.8,0.9V83.1z"/>
	<path fill="#18394E" d="M217.9,85.8c0,0.6-0.2,0.8-0.8,0.8h-2.6c-0.5,0-0.7-0.3-0.7-0.8v-27c0-0.6,0.1-0.9,0.7-0.9h2.6
		c0.6,0,0.8,0.3,0.8,0.9V85.8z"/>
	<path fill="#18394E" d="M240.7,57.9c0.5,0,0.7,0.2,0.7,0.8v1.9c0,0.6-0.1,0.8-0.7,0.8h-6.6v24.4c0,0.6-0.3,0.8-0.9,0.8h-2.6
		c-0.5,0-0.9-0.3-0.9-0.8V61.4h-6.6c-0.6,0-0.7-0.2-0.7-0.8v-1.9c0-0.6,0.1-0.8,0.7-0.8H240.7z"/>
	<path fill="#18394E" d="M253,71.2l6.3-12.5c0.2-0.4,0.4-0.8,0.9-0.8h2.6c0.6,0,0.9,0.3,0.6,0.8l-8.3,16.5v10.6
		c0,0.5-0.2,0.8-0.8,0.8h-2.6c-0.6,0-0.7-0.3-0.7-0.8V75.2l-8.4-16.5c-0.3-0.5,0-0.8,0.6-0.8h2.5c0.6,0,0.7,0.3,1,0.8L253,71.2z"/>
	<path fill="#18394E" d="M180.7,57.9c0.5,0,0.8,0.3,1,0.8l8.2,27.1c0.2,0.5,0,0.8-0.6,0.8h-2.7c-0.5,0-0.8-0.3-0.9-0.8l-1.9-6.5H175
		l-1.9,6.5c-0.1,0.5-0.4,0.8-0.9,0.8h-2.7c-0.6,0-0.8-0.3-0.6-0.8l8.2-27.1c0.2-0.5,0.5-0.8,1-0.8H180.7z M179.4,64.1l-3.5,12h6.9
		L179.4,64.1z"/>
	<path fill="#3D9BD6" d="M82.6,49.1v8.2H87V49l5.7,3.3l2.2-3.8l-5.8-3.3c-1.3-0.8-2.8-1.1-4.4-1.1c-1.5,0-3,0.4-4.3,1.2l-5.8,3.3
		l2.2,3.8L82.6,49.1z"/>
	<path fill="#007664" d="M82.6,49.1v8.2H87V49l5.7,3.3l2.2-3.8l-5.8-3.3c-1.3-0.8-2.8-1.1-4.4-1.1c-1.5,0-3,0.4-4.3,1.2l-5.8,3.3
		l2.2,3.8L82.6,49.1z"/>
	<path fill="#EE4642" d="M82.6,94.6v-8.2H87v8.2l5.7-3.3l2.2,3.8l-5.7,3.3c-1.3,0.8-2.9,1.2-4.4,1.2c-1.5,0-3-0.4-4.3-1.2l-5.8-3.3
		l2.2-3.8L82.6,94.6z"/>
	<path fill="#2AAD8E" d="M103.4,58.5l-7.1,4.1l2.2,3.8l7.1-4.1l0,6.6l4.4,0l0-6.7c0-1.5-0.4-3-1.2-4.3c-0.8-1.3-1.9-2.4-3.2-3.2
		l-5.8-3.3l-2.2,3.8L103.4,58.5z"/>
	<path fill="#D71D4F" d="M64,81.3l7.1-4.1l2.2,3.8l-7.1,4.1l5.7,3.3l-2.2,3.8l-5.8-3.3c-1.3-0.8-2.4-1.9-3.1-3.2
		c-0.8-1.3-1.2-2.8-1.2-4.3l0-6.7l4.4,0L64,81.3z"/>
	<path fill="#9E2569" d="M64,62.4l7.1,4.1l2.2-3.8l-7.1-4.1l5.7-3.3l-2.2-3.8l-5.8,3.3c-1.3,0.8-2.4,1.9-3.2,3.2
		c-0.8,1.3-1.2,2.8-1.2,4.4l0,6.7l4.4,0L64,62.4z"/>
	<path fill="#F79836" d="M103.4,85.1L96.4,81l2.2-3.8l7.1,4.1l0-6.6l4.4,0l0,6.7c0,1.5-0.4,2.9-1.2,4.3c-0.8,1.3-1.9,2.4-3.2,3.2
		l-5.8,3.3l-2.2-3.8L103.4,85.1z"/>
	<polygon fill="#007664" points="85.4,61.5 85.4,70.8 93.5,66.2 	"/>
	<polygon fill="#9E2569" points="84.2,61.5 76.2,66.2 84.2,70.8 	"/>
	<polygon fill="#D71D4F" points="83.7,71.8 75.7,67.2 75.7,76.4 	"/>
	<polygon fill="#2AAD8E" points="86,71.8 94,76.4 94,67.3 	"/>
	<polygon fill="#EE4642" points="84.2,72.9 76.3,77.5 84.2,82.2 	"/>
	<polygon fill="#F79836" points="85.4,72.9 85.4,82.2 93.4,77.5 	"/>
</g>
</svg>
