<?xml version="1.0" encoding="UTF-8"?>
<!-- Generator: Adobe Illustrator 18.1.1, SVG Export Plug-In . SVG Version: 6.00 Build 0)  -->
<!DOCTYPE svg PUBLIC "-//W3C//DTD SVG 1.1//EN" "http://www.w3.org/Graphics/SVG/1.1/DTD/svg11.dtd">
<svg version="1.1" id="Layer_1" xmlns="http://www.w3.org/2000/svg" xmlns:xlink="http://www.w3.org/1999/xlink" x="0px" y="0px" viewBox="0 0 792 612" enable-background="new 0 0 792 612" xml:space="preserve">
<path d="M491,330.9l-58.7-75.7h-14.6v101.5h14.8V279l60.3,77.8h12.9V255.2H491V330.9z M343.3,312.1h52.6V299h-52.6v-30.6h59.3v-13.1  h-74.4v101.5h75.2v-13.1h-60.1V312.1z M281.5,299.2c-20.5-4.9-26.1-8.8-26.1-18.2c0-8.5,7.5-14.2,18.7-14.2  c9.3,0,18.5,3.3,28.1,10.1l8-11.3c-10.5-8.1-22-11.8-35.8-11.8c-20.1,0-34.1,11.9-34.1,28.9c0,18.3,11.8,24.6,33.6,29.8  c19.1,4.4,25,8.6,25,17.8c0,9.1-7.9,15-20.2,15c-12,0-22.2-4-32.9-12.9l-9,10.7c11.8,10,26,15.3,41.4,15.3  c21.7,0,35.8-11.7,35.8-29.8C314,313.1,304.9,304.9,281.5,299.2z M774.5,255.2l-30.6,47.9l-30.3-47.9h-17.7l40.2,61.4v40.2h15.2  v-40.6l40.2-60.9H774.5z M517.8,269H551v87.8h15.2V269h33.3v-13.7h-81.8V269z M670.1,317.1c15.3-4.2,23.8-15,23.8-30.3  c0-19.5-14.3-31.6-37.3-31.6h-45.1v101.5h15.1v-36.5h25.6l25.8,36.5h17.6l-27.8-39L670.1,317.1z M626.6,307.2v-38.5h28.5  c14.9,0,23.4,7,23.4,19.2c0,11.8-9.1,19.3-23.2,19.3H626.6z M114.4,227.7c-3.3-5.7-9.1-9.1-15.7-9.1c-6.6,0-12.4,3.4-15.7,9.1  l-25.8,44.8l6.6,3.8c19.2,11,35.2,27.1,46.3,46.3c9.9,17.1,15.6,36.2,16.8,55.7l-18.1,0c-1.1-16.4-6-32.4-14.3-46.7  c-9.5-16.5-23.3-30.3-39.7-39.7l-6.6-3.8L24,329.9l6.6,3.8c16,9.2,27.3,26.3,29.6,44.5l-41.4,0c-1.5,0-2.3-0.9-2.6-1.5  c-0.3-0.6-0.8-1.7,0-3l11.6-20c-3.9-3.3-8.4-5.8-13.1-7.5L3,366.2c-3.3,5.7-3.3,12.5,0,18.1c3.3,5.7,9.1,9.1,15.7,9.1l57,0l0-7.6  c0-13.2-3.5-26.2-10.1-37.7c-5.3-9.3-12.6-17.3-21.2-23.5l9.1-15.7c11.3,7.8,20.8,18.1,27.8,30.1c8.2,14.2,12.5,30.4,12.5,46.7  l0,7.6l48.3,0l0-7.6c0-24.8-6.5-49.3-19-70.8c-11.2-19.4-26.8-35.8-45.4-47.9l18.4-31.8c0.8-1.3,1.9-1.5,2.6-1.5  c0.6,0,1.8,0.2,2.6,1.5l80,138.5c0.8,1.3,0.3,2.4,0,3c-0.3,0.6-1.1,1.5-2.6,1.5l-18.8,0c0.2,5.1,0.3,10.1,0,15.1l18.8,0  c6.6,0,12.4-3.4,15.7-9.1c3.3-5.7,3.3-12.4,0-18.1L114.4,227.7z"/>
</svg>