<svg fill="#ef3226" xmlns="http://www.w3.org/2000/svg" id="simpleweb-logo" viewBox="0 0 80 90">
  <path d="M36.360555 75.3434025L36.360555 75.2198887 38.2512659 75.2198887 38.2512659 83.6568296C38.2512659 84.5499292 38.583803 84.7684536 39.1348644 84.7684536 39.3628898 84.7684536 39.5814142 84.7684536 39.5814142 84.7684536L39.5814142 86.5451517C39.5814142 86.5451517 39.2488771 86.6591644 38.91634 86.6591644 37.8047161 86.6591644 36.360555 86.3266273 36.360555 83.9988678L36.360555 75.3434025zM70.4408557 82.117658C70.4408557 82.3361823 70.326843 82.8872438 70.326843 82.7732311L64.6642115 82.7732311C64.7782242 84.2173921 65.8803471 84.8824663 67.1059838 84.8824663 68.4361322 84.8824663 69.5477561 83.9988678 69.5477561 83.9988678L70.326843 85.4430288C70.326843 85.4430288 69.1012063 86.6686655 66.9919711 86.6686655 64.2176617 86.6686655 62.5549763 84.7779546 62.5549763 82.450195 62.5549763 80.0084227 64.3316744 78.2317246 66.7734467 78.2317246 69.1107074 78.2317246 70.4408557 79.89441 70.4408557 82.117658zM64.6642115 81.5570954L68.3221194 81.5570954C68.3221194 80.4454715 67.5430326 79.89441 66.659434 79.89441 65.6618228 79.89441 64.8827359 80.4454715 64.6642115 81.5570954zM48.2368795 82.117658C48.2368795 82.3361823 48.2368795 82.8872438 48.2368795 82.7732311L42.4602353 82.7732311C42.574248 84.2173921 43.6763709 84.8824663 44.9020076 84.8824663 46.2321559 84.8824663 47.3437799 83.9988678 47.3437799 83.9988678L48.1228668 85.4430288C48.1228668 85.4430288 46.8972301 86.6686655 44.7879949 86.6686655 42.0136855 86.6686655 40.351 84.7779546 40.351 82.450195 40.351 80.0084227 42.1276982 78.2317246 44.5694705 78.2317246 46.9067311 78.2317246 48.2368795 79.89441 48.2368795 82.117658zM42.574248 81.5570954L46.2321559 81.5570954C46.2321559 80.4454715 45.453069 79.89441 44.5694705 79.89441 43.5718592 79.89441 42.7927724 80.4454715 42.574248 81.5570954zM58.1179815 84.6639419C58.1179815 84.6639419 58.2319942 84.2268932 58.3365058 83.7803434L59.7806669 78.450249 61.8899021 78.450249 59.3341171 86.7731772 57.0063575 86.7731772 55.5621964 82.0036452C55.4576848 81.5570954 55.3436721 81.006034 55.3436721 81.006034 55.3436721 81.006034 55.2391604 81.5570954 55.1251477 82.0036452L53.6809866 86.7731772 51.343726 86.7731772 48.7879409 78.450249 51.0111889 78.450249 52.4553499 83.7803434C52.5598616 84.2173921 52.6738743 84.6639419 52.6738743 84.6639419 52.6738743 84.6639419 52.778386 84.3314048 52.8923987 83.884855L54.4505725 78.6687733 56.3412833 78.6687733 57.8994571 83.884855C58.0039687 84.3314048 58.1179815 84.6639419 58.1179815 84.6639419zM26.5934658 78.3362362L28.4746756 78.3362362 28.4746756 79.0013104C28.4746756 79.3338475 28.4746756 79.6663846 28.4746756 79.6663846 28.4746756 79.6663846 29.1397497 78.2222235 31.1349722 78.2222235 33.3582202 78.2222235 34.8023812 79.884909 34.8023812 82.440694 34.8023812 85.1104917 33.2537085 86.7731772 31.0304606 86.7731772 29.4817879 86.7731772 28.702701 85.6615532 28.702701 85.6615532 28.702701 85.6615532 28.702701 85.8800775 28.702701 86.3266273L28.702701 89.6614993 26.5934658 89.6614993 26.5934658 78.3362362zM30.6979235 80.0084227C29.7003122 80.0084227 28.5886883 80.7780086 28.5886883 82.5642078 28.5886883 83.8943561 29.3677752 85.1199928 30.6979235 85.1199928 31.8095475 85.1199928 32.8071587 84.2268932 32.8071587 82.5642078 32.8071587 81.006034 31.9235602 80.0084227 30.6979235 80.0084227zM8.05689852 75.3434025L10.1661338 75.3434025 10.1661338 77.0060879 8.05689852 77.0060879 8.05689852 75.3434025zM8.05689852 78.3362362L10.1661338 78.3362362 10.1661338 86.6591644 8.05689852 86.6591644 8.05689852 78.3362362zM76.3220116 78.3362362C78.6497712 78.3362362 80.0939323 80.0084227 79.9894206 82.5737088 80.1034333 85.1294938 78.4407479 86.7921793 76.2175 86.7921793 74.5548145 86.7921793 73.7757276 85.5665426 73.7757276 85.5665426 73.7757276 85.5665426 73.7757276 85.785067 73.7757276 86.117604L73.7757276 86.6686655 71.8850168 86.6686655 71.8850168 75.3434025 73.994252 75.3434025 73.994252 78.782786C73.994252 79.2293358 73.8802393 79.5618729 73.8802393 79.5618729 73.8802393 79.5618729 74.5453135 78.3362362 76.3220116 78.3362362zM75.8754618 85.1104917C77.1010985 85.1104917 77.984697 84.2268932 77.984697 82.5547067 77.984697 80.9965329 77.1010985 79.9989217 75.8754618 79.9989217 74.7638378 79.9989217 73.7662266 80.7780086 73.7662266 82.5547067 73.7662266 83.884855 74.4313008 85.1104917 75.8754618 85.1104917zM3.27786556 85.1104917C3.83842807 85.1104917 4.38948953 84.7779546 4.38948953 84.4549186 4.38948953 83.2292819.285031787 83.4478063.285031787 80.7875096.285031787 79.2293358 1.72919284 78.3457373 3.50589099 78.3457373 5.39660184 78.3457373 6.28020038 79.2293358 6.28020038 79.2293358L5.5011135 80.6734969C5.5011135 80.6734969 4.73152767 80.0084227 3.50589099 80.0084227 2.94532847 80.0084227 2.39426701 80.2364482 2.39426701 80.7875096 2.39426701 82.0131463 6.49872475 81.7946219 6.49872475 84.4549186 6.49872475 85.785067 5.27308807 86.8966909 3.27786556 86.8966909 1.16863033 86.8966909.0570063575 85.6710542.0570063575 85.6710542L1.05461761 84.2268932C1.05461761 84.2268932 1.94771721 85.1104917 3.27786556 85.1104917zM24.7027549 86.6686655L24.7027549 86.6496634 22.8215451 86.6496634 22.8215451 81.652106C22.8215451 80.6544948 22.7075324 79.9894206 21.7099211 79.9894206 20.7123099 79.9894206 19.933223 80.8825202 19.7146986 81.8801315 19.6006859 82.2126686 19.6006859 82.6592184 19.6006859 82.9917554L19.6006859 86.6591644 17.4914507 86.6591644 17.4914507 81.7756198C17.4914507 80.8920213 17.377438 80.1129344 16.3798267 80.1129344 15.3822155 80.1129344 14.6031286 81.006034 14.3846042 82.0036452 14.2705915 82.2221696 14.2705915 82.6687194 14.2705915 83.0012565L14.2705915 86.6686655 12.1613563 86.6686655 12.1613563 78.450249 14.0520671 78.450249 14.0520671 79.4478602C14.0520671 79.6758856 14.0520671 79.89441 14.0520671 79.89441 14.4986169 79.1153231 15.4962282 78.2317246 16.8263765 78.2317246 18.1565249 78.2317246 18.9356117 78.782786 19.2681488 79.89441 19.7146986 79.1153231 20.7123099 78.2317246 22.0424582 78.2317246 23.7051437 78.2317246 24.7027549 79.2293358 24.7027549 81.3385711L24.7027549 86.6686655zM40.018463.0760084766C21.7004201.0760084766 6.71724912 14.9546678 6.71724912 33.3772223 6.71724912 51.7997768 21.5959084 66.6784361 40.018463 66.6784361 58.3365058 66.6784361 73.3196768 51.7997768 73.3196768 33.3772223 73.2151651 14.9546678 58.3365058.0760084766 40.018463.0760084766zM40.018463 56.5788098C27.2490389 56.5788098 16.8168755 46.1466464 16.8168755 33.3772223 16.8168755 20.6077982 27.2490389 10.1756348 40.018463 10.1756348 52.787887 10.1756348 63.2200504 20.5032866 63.2200504 33.3772223 63.2200504 46.1466464 52.787887 56.5788098 40.018463 56.5788098z"/>
</svg>