<?xml version="1.0" encoding="UTF-8" standalone="no"?>
<!-- Created with Inkscape (http://www.inkscape.org/) -->

<svg
   xmlns:dc="http://purl.org/dc/elements/1.1/"
   xmlns:cc="http://creativecommons.org/ns#"
   xmlns:rdf="http://www.w3.org/1999/02/22-rdf-syntax-ns#"
   xmlns:svg="http://www.w3.org/2000/svg"
   xmlns="http://www.w3.org/2000/svg"
   xmlns:sodipodi="http://sodipodi.sourceforge.net/DTD/sodipodi-0.dtd"
   xmlns:inkscape="http://www.inkscape.org/namespaces/inkscape"
   version="1.1"
   id="svg2"
   xml:space="preserve"
   width="176"
   height="78.666664"
   viewBox="0 0 176 78.666664"
   sodipodi:docname="tdo_schauspiel_s.svg"
   inkscape:version="0.92.2 5c3e80d, 2017-08-06"><metadata
     id="metadata8"><rdf:RDF><cc:Work
         rdf:about=""><dc:format>image/svg+xml</dc:format><dc:type
           rdf:resource="http://purl.org/dc/dcmitype/StillImage" /><dc:title></dc:title></cc:Work></rdf:RDF></metadata><defs
     id="defs6" /><sodipodi:namedview
     pagecolor="#ffffff"
     bordercolor="#666666"
     borderopacity="1"
     objecttolerance="10"
     gridtolerance="10"
     guidetolerance="10"
     inkscape:pageopacity="0"
     inkscape:pageshadow="2"
     inkscape:window-width="601"
     inkscape:window-height="1042"
     id="namedview4"
     showgrid="false"
     inkscape:zoom="2.0909091"
     inkscape:cx="42.804348"
     inkscape:cy="39.333332"
     inkscape:window-x="1920"
     inkscape:window-y="18"
     inkscape:window-maximized="0"
     inkscape:current-layer="g10" /><g
     id="g10"
     inkscape:groupmode="layer"
     inkscape:label="ink_ext_XXXXXX"
     transform="matrix(1.3333333,0,0,-1.3333333,0,78.666667)"><g
       id="g12"
       transform="scale(0.1)"><path
         d="m 687.227,524.531 c 166.523,108.25 326.253,30.821 370.473,-2.633 -78.423,-66.328 -111.919,-150.96 -111.919,-150.96 0,0 -81.426,143.246 -258.554,153.593"
         style="fill:#231f20;fill-opacity:1;fill-rule:nonzero;stroke:none"
         id="path14"
         inkscape:connector-curvature="0" /><path
         d="m 40.2188,204.914 c 0.4023,-8.398 3,-14.199 7.8007,-17.402 4.7969,-3.196 11.1993,-4.797 19.1993,-4.797 2.8007,0 5.5625,0.265 8.3007,0.801 2.7266,0.527 5.1641,1.367 7.2969,2.5 2.1328,1.132 3.8672,2.629 5.2031,4.504 1.3321,1.863 2,4.128 2,6.793 0,3.207 -1.1718,5.8 -3.5,7.804 -2.3359,1.992 -5.4336,3.731 -9.3007,5.196 -3.8672,1.464 -8.2344,2.761 -13.1016,3.906 -4.8672,1.125 -9.8984,2.422 -15.0977,3.894 -5.0703,1.469 -10.1015,3.203 -15.1015,5.2 -5,2 -9.4688,4.57 -13.3985,7.703 -3.9375,3.125 -7.1367,7.004 -9.6015,11.601 -2.47269,4.602 -3.69925,10.164 -3.69925,16.699 0,7.727 1.76563,14.368 5.30075,19.903 3.5313,5.527 8.1016,10.031 13.6953,13.496 5.6016,3.469 11.8711,5.996 18.8047,7.598 6.9297,1.601 13.7305,2.402 20.4024,2.402 7.0625,0 14.0273,-0.899 20.8945,-2.703 6.8672,-1.797 12.9649,-4.563 18.3046,-8.293 5.328,-3.739 9.66,-8.504 12.996,-14.305 3.328,-5.805 5,-12.695 5,-20.695 H 85.4219 c 0.125,3.195 -0.4727,5.898 -1.8047,8.094 -1.332,2.199 -3.0977,3.964 -5.2969,5.304 -2.2031,1.328 -4.7031,2.297 -7.5,2.903 -2.8008,0.593 -5.6015,0.898 -8.4023,0.898 -1.9961,0 -4.0664,-0.207 -6.2032,-0.605 -2.1328,-0.403 -4.0664,-1.067 -5.7929,-1.997 -1.7383,-0.933 -3.1719,-2.175 -4.3047,-3.699 -1.1328,-1.531 -1.6992,-3.508 -1.6992,-5.898 0,-2.801 1.1679,-5.078 3.5039,-6.805 2.3281,-1.73 5.4609,-3.273 9.3984,-4.601 3.9297,-1.329 8.3633,-2.532 13.3008,-3.594 4.9258,-1.074 10,-2.344 15.1992,-3.809 5.1953,-1.465 10.2656,-3.23 15.1957,-5.293 4.929,-2.07 9.336,-4.668 13.203,-7.804 3.867,-3.133 6.996,-7 9.398,-11.598 2.399,-4.602 3.602,-10.102 3.602,-16.496 0,-9.074 -1.77,-16.668 -5.301,-22.801 -3.535,-6.137 -8.203,-11.035 -13.996,-14.699 -5.801,-3.672 -12.4376,-6.309 -19.9025,-7.903 -7.4726,-1.597 -15.1328,-2.398 -23,-2.398 -8.2695,0 -16.1015,0.926 -23.5,2.801 -7.4023,1.867 -13.9687,4.863 -19.7031,8.996 -5.7305,4.129 -10.2969,9.402 -13.69531,15.801 -3.40234,6.394 -5.10156,14.199 -5.10156,23.398 H 40.2188"
         style="fill:#231f20;fill-opacity:1;fill-rule:nonzero;stroke:none"
         id="path16"
         inkscape:connector-curvature="0" /><path
         d="m 192.816,222.715 c 0,2.129 -0.468,4.133 -1.398,5.996 -0.934,1.863 -2.168,3.469 -3.699,4.805 -1.535,1.328 -3.301,2.363 -5.301,3.093 -1.996,0.735 -4.066,1.106 -6.195,1.106 -4.805,0 -8.641,-0.938 -11.504,-2.801 -2.867,-1.867 -5.071,-4.23 -6.598,-7.101 -1.539,-2.872 -2.57,-6.133 -3.101,-9.793 -0.54,-3.672 -0.801,-7.305 -0.801,-10.911 0,-3.332 0.367,-6.629 1.097,-9.89 0.735,-3.274 1.934,-6.172 3.602,-8.703 1.668,-2.539 3.77,-4.598 6.301,-6.203 2.531,-1.598 5.601,-2.399 9.199,-2.399 6.004,0 10.531,1.57 13.602,4.695 3.066,3.137 5,7.5 5.796,13.106 h 33 c -0.796,-6.934 -2.668,-13.133 -5.593,-18.606 -2.938,-5.464 -6.707,-10.066 -11.305,-13.796 -4.602,-3.731 -9.898,-6.563 -15.898,-8.497 -6,-1.933 -12.473,-2.898 -19.399,-2.898 -7.871,0 -15.105,1.27 -21.699,3.797 -6.606,2.531 -12.336,6.133 -17.203,10.801 -4.867,4.668 -8.668,10.261 -11.403,16.797 -2.734,6.535 -4.097,13.796 -4.097,21.796 0,8.274 1.265,15.871 3.801,22.805 2.527,6.934 6.168,12.899 10.898,17.899 4.73,5 10.434,8.906 17.098,11.699 6.668,2.801 14.207,4.199 22.605,4.199 6.399,0 12.563,-0.867 18.5,-2.598 5.926,-1.738 11.231,-4.297 15.899,-7.695 4.664,-3.406 8.464,-7.676 11.402,-12.805 2.93,-5.133 4.73,-11.101 5.398,-17.898 h -33.004"
         style="fill:#231f20;fill-opacity:1;fill-rule:nonzero;stroke:none"
         id="path18"
         inkscape:connector-curvature="0" /><path
         d="m 229.813,299.719 h 34 v -53.203 h 0.402 c 1.328,2.664 3.129,5.066 5.398,7.195 2.266,2.141 4.828,3.934 7.7,5.398 2.867,1.465 5.902,2.61 9.097,3.403 3.203,0.801 6.336,1.199 9.406,1.199 8.661,0 15.497,-1.398 20.497,-4.199 5,-2.793 8.73,-6.231 11.203,-10.293 2.464,-4.074 4.027,-8.438 4.695,-13.106 0.672,-4.668 1.004,-8.867 1.004,-12.597 v -66.602 h -34 v 50.195 c 0,3.606 0,7.071 0,10.403 0,3.465 -0.504,6.531 -1.5,9.207 -1,2.656 -2.672,4.824 -5,6.496 -2.332,1.668 -5.836,2.5 -10.504,2.5 -3.195,0 -5.965,-0.637 -8.301,-1.899 -2.332,-1.265 -4.23,-2.937 -5.695,-5 -1.473,-2.066 -2.57,-4.441 -3.301,-7.097 -0.734,-2.676 -1.101,-5.403 -1.101,-8.203 v -56.602 h -34 v 142.805"
         style="fill:#231f20;fill-opacity:1;fill-rule:nonzero;stroke:none"
         id="path20"
         inkscape:connector-curvature="0" /><path
         d="m 336.41,228.711 c 0.266,6.809 1.867,12.473 4.801,17.004 2.93,4.531 6.734,8.133 11.402,10.801 4.66,2.664 9.828,4.531 15.496,5.593 5.664,1.075 11.5,1.602 17.5,1.602 6.133,0 12.102,-0.43 17.903,-1.297 5.801,-0.871 10.965,-2.57 15.496,-5.101 4.531,-2.54 8.172,-6.063 10.906,-10.594 2.727,-4.539 4.094,-10.469 4.094,-17.801 v -45.402 c 0,-4.407 0.168,-8.907 0.504,-13.504 0.332,-4.602 1.5,-8.965 3.5,-13.098 h -34.199 c -0.668,1.602 -1.102,3.203 -1.301,4.805 -0.203,1.594 -0.438,3.261 -0.699,5 -4.399,-4.676 -9.633,-7.969 -15.7,-9.903 -6.07,-1.933 -12.234,-2.898 -18.5,-2.898 -4.937,0 -9.57,0.633 -13.902,1.895 -4.336,1.269 -8.102,3.203 -11.297,5.796 -3.203,2.61 -5.703,5.871 -7.5,9.809 -1.805,3.926 -2.703,8.562 -2.703,13.895 0,5.605 0.934,10.261 2.801,14.003 1.863,3.731 4.398,6.797 7.601,9.2 3.2,2.402 6.864,4.265 11,5.593 4.133,1.34 8.43,2.407 12.895,3.204 4.469,0.8 8.937,1.464 13.406,2.003 4.461,0.528 8.699,1.204 12.699,2 2.93,0.664 5.164,1.633 6.7,2.903 1.531,1.261 2.296,3.496 2.296,6.699 0,1.992 -0.531,3.664 -1.597,5 -1.071,1.328 -2.399,2.434 -4,3.301 -1.602,0.859 -3.371,1.496 -5.297,1.894 -1.942,0.403 -3.774,0.606 -5.504,0.606 -9.731,0 -15.402,-4.336 -16.996,-13.008 z m 29.801,-41.992 c 0,-4.278 1.402,-7.305 4.199,-9.102 2.805,-1.804 6.133,-2.703 10,-2.703 8.129,0 13.731,2.399 16.801,7.195 3.066,4.805 4.398,12.61 4,23.411 -2.398,-1.477 -5.566,-2.5 -9.5,-3.106 -3.934,-0.598 -7.77,-1.437 -11.5,-2.5 -3.867,-0.93 -7.168,-2.336 -9.898,-4.199 -2.735,-1.867 -4.102,-4.863 -4.102,-8.996"
         style="fill:#231f20;fill-opacity:1;fill-rule:nonzero;stroke:none"
         id="path22"
         inkscape:connector-curvature="0" /><path
         d="m 544.609,156.914 h -33 v 14.199 h -0.398 c -3.203,-5.332 -7.77,-9.531 -13.699,-12.597 -5.934,-3.067 -11.903,-4.598 -17.903,-4.598 -7.468,0 -13.668,1.031 -18.597,3.094 -4.938,2.07 -8.871,5.031 -11.801,8.906 -2.938,3.855 -5,8.523 -6.203,13.996 -1.195,5.469 -1.797,11.602 -1.797,18.399 v 62.402 h 34 V 200.52 c 0,-6.934 1.43,-11.77 4.301,-14.504 2.863,-2.735 7.031,-4.102 12.5,-4.102 1.867,0 3.863,0.332 5.996,0.996 2.133,0.676 4.133,1.903 6,3.699 1.867,1.809 3.433,4.172 4.703,7.102 1.266,2.93 1.898,6.738 1.898,11.406 v 55.598 h 34 V 156.914"
         style="fill:#231f20;fill-opacity:1;fill-rule:nonzero;stroke:none"
         id="path24"
         inkscape:connector-curvature="0" /><path
         d="m 579.805,191.113 c 0,-2.668 0.504,-4.929 1.504,-6.797 0.996,-1.875 2.363,-3.464 4.097,-4.804 1.602,-1.199 3.5,-2.098 5.703,-2.696 2.196,-0.605 4.496,-0.898 6.899,-0.898 1.597,0 3.332,0.195 5.199,0.598 1.867,0.398 3.602,1.035 5.199,1.902 1.598,0.859 2.934,1.992 4,3.398 1.067,1.399 1.602,3.098 1.602,5.098 0,2.004 -0.602,3.633 -1.801,4.902 -1.199,1.258 -2.637,2.293 -4.301,3.098 -1.668,0.801 -3.468,1.402 -5.402,1.805 -1.934,0.39 -3.633,0.793 -5.098,1.191 -5.336,1.34 -10.836,2.539 -16.5,3.606 -5.668,1.062 -10.867,2.703 -15.597,4.902 -4.739,2.195 -8.598,5.223 -11.602,9.102 -3,3.855 -4.496,9.324 -4.496,16.394 0,6.27 1.496,11.438 4.496,15.5 3.004,4.07 6.832,7.305 11.5,9.695 4.668,2.403 9.797,4.102 15.398,5.11 5.602,0.996 10.934,1.492 16,1.492 5.735,0 11.368,-0.496 16.903,-1.492 5.531,-1.008 10.562,-2.739 15.105,-5.207 4.532,-2.469 8.223,-5.867 11.094,-10.196 2.871,-4.336 4.434,-9.902 4.707,-16.699 h -31.406 c 0,4.133 -1.469,7.129 -4.399,8.992 -2.671,1.743 -6.269,2.61 -10.8,2.61 -1.469,0 -3.039,-0.078 -4.704,-0.203 -1.664,-0.137 -3.23,-0.469 -4.699,-0.996 -1.468,-0.54 -2.699,-1.34 -3.699,-2.407 -1,-1.07 -1.5,-2.468 -1.5,-4.195 0,-2.402 1.266,-4.406 3.801,-6.008 2.527,-1.594 5.699,-2.898 9.5,-3.894 3.801,-0.996 7.965,-1.907 12.5,-2.7 4.531,-0.796 8.73,-1.597 12.594,-2.398 5.207,-1.074 9.511,-2.734 12.91,-5 3.398,-2.277 6.093,-4.738 8.093,-7.402 2.004,-2.668 3.403,-5.403 4.204,-8.203 0.796,-2.793 1.199,-5.266 1.199,-7.395 0,-6.934 -1.504,-12.773 -4.5,-17.5 -3,-4.734 -6.867,-8.535 -11.594,-11.406 -4.746,-2.871 -10.078,-4.93 -16.008,-6.199 -5.933,-1.262 -11.836,-1.895 -17.699,-1.895 -6.137,0 -12.199,0.562 -18.203,1.695 -5.996,1.137 -11.367,3.137 -16.098,5.996 -4.73,2.871 -8.597,6.704 -11.601,11.504 -2.996,4.797 -4.633,10.805 -4.899,18 h 32.399"
         style="fill:#231f20;fill-opacity:1;fill-rule:nonzero;stroke:none"
         id="path26"
         inkscape:connector-curvature="0" /><path
         d="m 650.605,260.715 h 32.403 v -12.004 h 0.398 c 6.809,10 16.34,15 28.606,15 8.125,0 15.129,-1.602 20.996,-4.793 5.871,-3.203 10.664,-7.473 14.394,-12.805 3.743,-5.332 6.504,-11.433 8.301,-18.3 1.809,-6.868 2.703,-13.965 2.703,-21.297 0,-6.797 -0.894,-13.332 -2.703,-19.602 -1.797,-6.269 -4.531,-11.863 -8.191,-16.797 -3.672,-4.941 -8.235,-8.867 -13.703,-11.804 -5.469,-2.93 -11.875,-4.395 -19.2,-4.395 -12.675,0 -22.539,4.727 -29.597,14.195 h -0.403 v -46.004 h -34.004 z m 53.606,-23 c -2.277,0 -4.641,-0.442 -7.102,-1.297 -2.468,-0.871 -4.707,-2.375 -6.699,-4.504 -2.004,-2.141 -3.672,-5 -5,-8.601 -1.34,-3.594 -2.004,-8.067 -2.004,-13.399 0,-9.062 1.496,-16.328 4.504,-21.801 2.996,-5.468 8.36,-8.199 16.094,-8.199 3.73,0 6.902,0.899 9.512,2.703 2.597,1.797 4.687,4.133 6.289,6.992 1.601,2.871 2.773,6.075 3.508,9.61 0.73,3.527 1.101,7.097 1.101,10.695 0,3.328 -0.344,6.629 -1.008,9.899 -0.672,3.261 -1.797,6.234 -3.394,8.898 -1.606,2.668 -3.703,4.836 -6.301,6.504 -2.598,1.66 -5.773,2.5 -9.5,2.5"
         style="fill:#231f20;fill-opacity:1;fill-rule:nonzero;stroke:none"
         id="path28"
         inkscape:connector-curvature="0" /><path
         d="m 797.805,273.711 h -34.004 v 26.008 h 34.004 z m -34.004,-12.996 h 34.004 V 156.914 h -34.004 v 103.801"
         style="fill:#231f20;fill-opacity:1;fill-rule:nonzero;stroke:none"
         id="path30"
         inkscape:connector-curvature="0" /><path
         d="m 836.797,200.52 c 0.266,-7.207 2.402,-12.942 6.406,-17.207 3.992,-4.27 9.59,-6.399 16.797,-6.399 4.121,0 7.988,0.93 11.582,2.805 3.613,1.863 6.211,4.722 7.813,8.594 h 31.796 c -1.601,-6 -4.101,-11.165 -7.5,-15.5 -3.398,-4.336 -7.402,-7.899 -11.992,-10.704 -4.609,-2.793 -9.668,-4.863 -15.215,-6.191 -5.527,-1.336 -11.152,-2 -16.894,-2 -8.399,0 -16.094,1.227 -23.094,3.699 -7.004,2.461 -13,6.067 -18,10.801 -5,4.727 -8.867,10.527 -11.601,17.395 -2.735,6.863 -4.102,14.636 -4.102,23.296 0,8 1.465,15.332 4.402,22.004 2.934,6.668 6.965,12.403 12.102,17.2 5.137,4.8 11.094,8.562 17.898,11.296 6.801,2.735 13.996,4.102 21.606,4.102 9.324,0 17.449,-1.629 24.383,-4.895 6.933,-3.269 12.675,-7.769 17.207,-13.503 4.531,-5.731 7.871,-12.43 10,-20.098 2.129,-7.664 3.007,-15.899 2.597,-24.695 z m 42.187,18.992 c -0.254,5.871 -2.265,10.871 -5.996,15 -3.73,4.133 -8.457,6.203 -14.187,6.203 -6.008,0 -10.91,-1.938 -14.699,-5.801 -3.809,-3.867 -6.243,-8.996 -7.305,-15.402 h 42.187"
         style="fill:#231f20;fill-opacity:1;fill-rule:nonzero;stroke:none"
         id="path32"
         inkscape:connector-curvature="0" /><path
         d="m 911.191,299.719 h 34.004 V 156.914 h -34.004 v 142.805"
         style="fill:#231f20;fill-opacity:1;fill-rule:nonzero;stroke:none"
         id="path34"
         inkscape:connector-curvature="0" /><path
         d="m 438.199,149.719 h 61.403 c 10.929,0 20.73,-1.606 29.398,-4.805 8.668,-3.195 16,-7.871 22,-13.996 6.004,-6.145 10.602,-13.574 13.801,-22.305 3.199,-8.7302 4.801,-18.6325 4.801,-29.695 0,-11.7383 -1.602,-22.0703 -4.801,-31.0078 -3.199,-8.9258 -7.832,-16.4258 -13.903,-22.5 C 544.836,19.3477 537.465,14.7461 528.801,11.6094 520.133,8.47656 510.398,6.91406 499.602,6.91406 H 438.199 Z M 475.398,38.918 H 493 c 7.066,0.125 13.098,0.9648 18.098,2.5 5,1.5312 9.07,3.8945 12.203,7.0976 3.129,3.2032 5.429,7.2969 6.898,12.2969 1.465,5 2.203,11.1016 2.203,18.2969 0,13.0703 -3.371,22.7656 -10.101,29.1056 -6.735,6.328 -16.5,9.5 -29.301,9.5 H 475.398 V 38.918"
         style="fill:#231f20;fill-opacity:1;fill-rule:nonzero;stroke:none"
         id="path36"
         inkscape:connector-curvature="0" /><path
         d="m 561.598,58.7109 c 0,7.7344 1.328,14.9727 4,21.6993 2.664,6.7382 6.398,12.5703 11.199,17.5 4.801,4.9338 10.566,8.8088 17.301,11.6018 6.726,2.801 14.093,4.199 22.097,4.199 8.004,0 15.368,-1.398 22.106,-4.199 6.719,-2.793 12.519,-6.668 17.39,-11.6018 4.875,-4.9297 8.633,-10.7618 11.301,-17.5 2.676,-6.7266 4.004,-13.9649 4.004,-21.6993 0,-7.8593 -1.328,-15.125 -4.004,-21.7968 -2.668,-6.668 -6.426,-12.4336 -11.301,-17.3047 C 650.82,14.7461 645.02,10.918 638.301,8.11328 631.563,5.3125 624.199,3.91797 616.195,3.91797 c -8.004,0 -15.371,1.39453 -22.097,4.19531 -6.735,2.80472 -12.5,6.63282 -17.301,11.49612 -4.801,4.8711 -8.535,10.6367 -11.199,17.3047 -2.672,6.6718 -4,13.9375 -4,21.7968 z m 34,0 c 0,-3.3281 0.332,-6.6992 1,-10.0976 0.664,-3.3985 1.797,-6.5039 3.398,-9.2969 1.602,-2.8008 3.699,-5.0664 6.297,-6.8047 2.602,-1.7304 5.902,-2.5976 9.902,-2.5976 4,0 7.328,0.8672 9.996,2.5976 2.676,1.7383 4.805,4.0039 6.407,6.8047 1.601,2.793 2.734,5.8984 3.398,9.2969 0.664,3.3984 0.996,6.7695 0.996,10.0976 0,3.3321 -0.332,6.6993 -0.996,10.1055 -0.664,3.4024 -1.797,6.4961 -3.398,9.2969 -1.602,2.8047 -3.731,5.1015 -6.407,6.8984 -2.668,1.8047 -5.996,2.7031 -9.996,2.7031 -4,0 -7.3,-0.8984 -9.902,-2.7031 -2.598,-1.7969 -4.695,-4.0937 -6.297,-6.8984 -1.601,-2.8008 -2.734,-5.8945 -3.398,-9.2969 -0.668,-3.4062 -1,-6.7734 -1,-10.1055"
         style="fill:#231f20;fill-opacity:1;fill-rule:nonzero;stroke:none"
         id="path38"
         inkscape:connector-curvature="0" /><path
         d="m 675.996,110.715 h 33 V 92.5117 h 0.399 c 2.531,6.668 6.523,11.7073 11.992,15.1053 5.468,3.399 11.875,5.098 19.211,5.098 1.328,0 2.664,-0.07 3.992,-0.203 1.328,-0.129 2.676,-0.332 4.004,-0.598 V 80.918 c -2.266,0.664 -4.434,1.164 -6.504,1.4961 -2.07,0.332 -4.231,0.4961 -6.492,0.4961 -4.27,0 -7.969,-0.6641 -11.106,-1.9922 -3.137,-1.336 -5.801,-3.1367 -7.996,-5.3985 -2.199,-2.2773 -3.84,-4.9062 -4.902,-7.9023 C 710.527,64.6094 710,61.5156 710,58.3125 V 6.91406 H 675.996 V 110.715"
         style="fill:#231f20;fill-opacity:1;fill-rule:nonzero;stroke:none"
         id="path40"
         inkscape:connector-curvature="0" /><path
         d="M 816.594,88.7109 H 795.586 V 41.5156 c 0,-4.1328 1.113,-6.8359 3.301,-8.0976 2.207,-1.2696 5.176,-1.9024 8.906,-1.9024 1.465,0 2.93,0.0664 4.395,0.2032 1.464,0.1289 2.929,0.1953 4.406,0.1953 V 6.91406 c -3.071,-0.125 -6.164,-0.33203 -9.297,-0.59765 -3.137,-0.26953 -6.242,-0.39844 -9.309,-0.39844 -7.195,0 -13.164,0.59766 -17.89,1.79687 -4.746,1.20313 -8.477,3.20316 -11.211,5.99606 -2.735,2.8047 -4.629,6.5352 -5.696,11.2032 -1.062,4.6679 -1.597,10.5351 -1.597,17.5976 v 46.1992 h -17.199 v 22.0041 h 17.199 v 31.394 h 33.992 v -31.394 h 21.008 V 88.7109"
         style="fill:#231f20;fill-opacity:1;fill-rule:nonzero;stroke:none"
         id="path42"
         inkscape:connector-curvature="0" /><path
         d="m 825.801,110.715 h 33 V 96.5156 h 0.398 c 3.067,5.2034 7.207,9.3634 12.403,12.5004 5.195,3.132 10.996,4.695 17.402,4.695 6.523,0 12.5,-1.231 17.891,-3.699 5.41,-2.461 9.511,-6.828 12.304,-13.0979 4.141,5.5979 8.809,9.8049 14.004,12.5979 5.195,2.801 11.328,4.199 18.399,4.199 8.261,0 14.824,-1.398 19.707,-4.199 4.863,-2.793 8.515,-6.399 10.996,-10.8011 2.461,-4.3945 4.062,-9.2304 4.785,-14.4921 0.742,-5.2735 1.113,-10.3711 1.113,-15.3008 V 6.91406 H 954.199 V 67.9102 c 0,5.6054 -1.269,9.9726 -3.808,13.1054 -2.52,3.125 -5.996,4.6992 -10.391,4.6992 -3.594,0 -6.465,-0.664 -8.594,-2.0039 -2.148,-1.3281 -3.769,-3.2304 -4.902,-5.6914 -1.133,-2.4726 -1.836,-5.4414 -2.109,-8.9101 -0.274,-3.4649 -0.391,-7.2617 -0.391,-11.3946 V 6.91406 H 890 V 65.918 c 0,6.125 -0.977,10.957 -2.91,14.4922 -1.934,3.5351 -5.235,5.3046 -9.883,5.3046 -6.133,0 -10.586,-2.0703 -13.301,-6.2031 -2.734,-4.1289 -4.101,-11.4648 -4.101,-22 V 6.91406 H 825.801 V 110.715"
         style="fill:#231f20;fill-opacity:1;fill-rule:nonzero;stroke:none"
         id="path44"
         inkscape:connector-curvature="0" /><path
         d="m 1100.2,6.91406 h -33.01 V 21.1133 h -0.39 c -3.21,-5.332 -7.78,-9.5313 -13.71,-12.59767 -5.94,-3.06641 -11.9,-4.59766 -17.89,-4.59766 -7.49,0 -13.68,1.03125 -18.62,3.09375 -4.92,2.07031 -8.87,5.03128 -11.79,8.90628 -2.93,3.8554 -5.005,8.5234 -6.196,13.9961 -1.211,5.4687 -1.797,11.6015 -1.797,18.3984 v 62.4025 h 33.983 V 50.5195 c 0,-6.9336 1.45,-11.7695 4.32,-14.5039 2.85,-2.7343 7.03,-4.1015 12.5,-4.1015 1.85,0 3.86,0.332 5.99,0.9961 2.13,0.6757 4.12,1.9023 6,3.6992 1.87,1.8086 3.44,4.1719 4.71,7.1015 1.25,2.9297 1.89,6.7383 1.89,11.4063 v 55.5978 h 34.01 V 6.91406"
         style="fill:#231f20;fill-opacity:1;fill-rule:nonzero;stroke:none"
         id="path46"
         inkscape:connector-curvature="0" /><path
         d="m 1108.98,110.715 h 33.01 V 96.5156 h 0.41 c 1.58,2.6641 3.6,5.0664 6,7.1954 2.4,2.141 5.06,3.934 7.99,5.398 2.93,1.465 6.01,2.61 9.2,3.403 3.2,0.801 6.34,1.199 9.41,1.199 8.65,0 15.49,-1.398 20.49,-4.199 5,-2.793 8.73,-6.231 11.21,-10.2932 2.46,-4.0743 4.02,-8.4375 4.69,-13.1055 0.66,-4.668 1.01,-8.8672 1.01,-12.5977 V 6.91406 h -34 V 57.1094 c 0,3.6054 0,7.0703 0,10.4023 0,3.4649 -0.51,6.5313 -1.51,9.2071 -0.99,2.6562 -2.67,4.8242 -5,6.496 -2.34,1.668 -5.84,2.5 -10.5,2.5 -3.21,0 -5.96,-0.6367 -8.3,-1.8984 -2.33,-1.2656 -4.22,-2.9375 -5.69,-5 -1.48,-2.0664 -2.58,-4.4414 -3.3,-7.0976 -0.74,-2.6758 -1.11,-5.4024 -1.11,-8.2032 V 6.91406 h -34.01 V 110.715"
         style="fill:#231f20;fill-opacity:1;fill-rule:nonzero;stroke:none"
         id="path48"
         inkscape:connector-curvature="0" /><path
         d="m 1315.78,6.91406 h -32.4 V 18.918 h -0.39 c -6.8,-10.00003 -16.33,-15.00003 -28.6,-15.00003 -8.14,0 -15.13,1.60156 -21.01,4.79297 -5.86,3.20316 -10.67,7.47266 -14.4,12.80466 -3.73,5.3321 -6.5,11.4336 -8.3,18.2969 -1.79,6.8672 -2.69,13.9648 -2.69,21.3008 0,6.7969 0.9,13.3281 2.69,19.6015 1.8,6.2657 4.53,11.8633 8.21,16.7969 3.67,4.9293 8.22,8.8673 13.69,11.8043 5.47,2.93 11.87,4.395 19.2,4.395 12.67,0 22.54,-4.727 29.61,-14.1993 h 0.39 v 50.2073 h 34 z m -52.99,80.80074 c -3.86,0 -7.15,-0.8398 -9.8,-2.5 -2.68,-1.6679 -4.81,-3.8359 -6.41,-6.5039 -1.6,-2.664 -2.77,-5.6367 -3.49,-8.8984 -0.75,-3.2695 -1.1,-6.5703 -1.1,-9.8984 0,-3.5977 0.35,-7.168 1.1,-10.6953 0.72,-3.5352 1.89,-6.7383 3.49,-9.6094 1.6,-2.8594 3.73,-5.1953 6.41,-6.9922 2.65,-1.8047 5.94,-2.7031 9.8,-2.7031 4.12,0 7.5,0.8984 10.1,2.7031 2.6,1.7969 4.67,4.1016 6.19,6.8945 1.55,2.8008 2.58,5.8985 3.11,9.3047 0.52,3.4024 0.8,6.7578 0.8,10.1016 0,3.7265 -0.37,7.332 -1.1,10.8008 -0.74,3.4648 -1.91,6.5312 -3.51,9.1992 -1.6,2.664 -3.65,4.7929 -6.19,6.3945 -2.54,1.6016 -5.67,2.4023 -9.4,2.4023"
         style="fill:#231f20;fill-opacity:1;fill-rule:nonzero;stroke:none"
         id="path50"
         inkscape:connector-curvature="0" /></g></g></svg>