<?xml version="1.0" encoding="UTF-8" standalone="no"?>
<svg
   xmlns:dc="http://purl.org/dc/elements/1.1/"
   xmlns:cc="http://creativecommons.org/ns#"
   xmlns:rdf="http://www.w3.org/1999/02/22-rdf-syntax-ns#"
   xmlns:svg="http://www.w3.org/2000/svg"
   xmlns="http://www.w3.org/2000/svg"
   xmlns:sodipodi="http://sodipodi.sourceforge.net/DTD/sodipodi-0.dtd"
   xmlns:inkscape="http://www.inkscape.org/namespaces/inkscape"
   width="155.12498pt"
   height="93.226555pt"
   viewBox="0 0 155.12499 93.22656"
   version="1.1"
   id="svg2"
   inkscape:version="0.91 r13725"
   sodipodi:docname="out.svg">
  <metadata
     id="metadata15">
    <rdf:RDF>
      <cc:Work
         rdf:about="">
        <dc:format>image/svg+xml</dc:format>
        <dc:type
           rdf:resource="http://purl.org/dc/dcmitype/StillImage" />
        <dc:title></dc:title>
      </cc:Work>
    </rdf:RDF>
  </metadata>
  <defs
     id="defs13" />
  <sodipodi:namedview
     pagecolor="#ffffff"
     bordercolor="#666666"
     borderopacity="1"
     objecttolerance="10"
     gridtolerance="10"
     guidetolerance="10"
     inkscape:pageopacity="0"
     inkscape:pageshadow="2"
     inkscape:window-width="1610"
     inkscape:window-height="887"
     id="namedview11"
     showgrid="false"
     fit-margin-top="1"
     fit-margin-left="1"
     fit-margin-right="1"
     fit-margin-bottom="1"
     inkscape:zoom="4.5307594"
     inkscape:cx="11.600269"
     inkscape:cy="57.109453"
     inkscape:window-x="2301"
     inkscape:window-y="227"
     inkscape:window-maximized="0"
     inkscape:current-layer="svg2" />
  <g
     id="surface1"
     transform="translate(-349.98048,-228.65625)">
    <path
       style="fill:#211e1e;fill-opacity:1;fill-rule:nonzero;stroke:none"
       d="m 362.375,304.17578 6.37109,0 c 0.63282,0 0.89844,0.21094 0.89844,0.66016 l 0.37109,0 0,-4.41407 -0.37109,0 c 0,0.42188 -0.26562,0.63282 -0.89844,0.63282 l -16.5,0 c -0.63281,0 -0.89843,-0.21094 -0.89843,-0.63282 l -0.36719,0 0,4.41407 0.36719,0 c 0,-0.44922 0.26562,-0.66016 0.89843,-0.66016 l 6.375,0 0,14.96094 c 0,0.58203 -0.10937,0.79687 -0.79687,0.79687 l 0,0.36719 5.36719,0 0,-0.36719 c -0.6875,0 -0.81641,-0.21484 -0.81641,-0.79687 z m 15.22656,4.38672 0,-6.34375 c 0,-0.58203 0.13281,-0.79297 0.76563,-0.79297 l 0,-0.37109 -5.3125,0 0,0.37109 c 0.6875,0 0.79297,0.21094 0.79297,0.79297 l 0,16.91797 c 0,0.58203 -0.10547,0.79687 -0.79297,0.79687 l 0,0.36719 5.3125,0 0,-0.36719 c -0.63282,0 -0.76563,-0.21484 -0.76563,-0.79687 l 0,-7.24219 11.89844,0 0,7.24219 c 0,0.58203 -0.10547,0.79687 -0.79297,0.79687 l 0,0.36719 5.28516,0 0,-0.36719 c -0.60547,0 -0.73828,-0.21484 -0.73828,-0.79687 l 0,-16.91797 c 0,-0.58203 0.13281,-0.79297 0.73828,-0.79297 l 0,-0.37109 -5.28516,0 0,0.37109 c 0.6875,0 0.79297,0.21094 0.79297,0.79297 l 0,6.34375 z m 24.64063,3.54297 5.44531,0 4.83984,6.90234 c 0.26172,0.36719 0.33985,0.5 0.33985,0.71094 0,0.10547 -0.0508,0.21484 -0.36719,0.21484 l 0,0.36719 5.86719,0 0,-0.36719 c -0.55469,0 -0.76563,-0.26562 -1.13672,-0.79687 l -4.89063,-6.92578 c 3.25391,-0.5 5.1836,-2.48438 5.1836,-5.62891 0,-3.09375 -2.4336,-5.52734 -7.03516,-5.52734 l -12.74219,0 0,0.37109 c 0.63672,0 0.74219,0.21094 0.74219,0.79297 l 0,16.91797 c 0,0.58203 -0.10547,0.79687 -0.74219,0.79687 l 0,0.36719 5.23438,0 0,-0.36719 c -0.63281,0 -0.73828,-0.21484 -0.73828,-0.79687 z m 0.0781,-7.92969 8.01172,0 c 1.90234,0 3.4375,0.73828 3.4375,2.40625 0,1.66406 -1.53516,2.40625 -3.4375,2.40625 l -8.01172,0 z m 19.19531,16.125 17.39454,0 c 0.63281,0 0.89843,0.21094 0.89843,0.58203 l 0.3711,0 0,-4.33594 -0.3711,0 c 0,0.42188 -0.26562,0.63672 -0.89843,0.63672 l -12.95313,0 0,-5.18359 8.30078,0 c 0.31641,0 0.55469,0.0547 0.6875,0.16016 0.15625,0.10546 0.21094,0.26171 0.21094,0.47656 l 0.37109,0 0,-4.44141 -0.37109,0 c 0,0.47266 -0.26563,0.6875 -0.89844,0.6875 l -8.30078,0 0,-4.70703 12.71484,0 c 0.63282,0 0.89844,0.21094 0.89844,0.6875 l 0.3711,0 0,-4.39062 -0.3711,0 c 0,0.37109 -0.26562,0.58203 -0.89844,0.58203 l -17.15625,0 0,0.37109 c 0.57813,0 0.6875,0.21094 0.6875,0.79297 l 0,16.91797 c 0,0.58203 -0.10937,0.79687 -0.6875,0.79687 z m 28.17969,-8.08984 3.1211,-6.92578 3.17187,6.92578 z m -2.77344,8.08984 0,-0.36719 c -0.23828,-0.0273 -0.39843,-0.16015 -0.39843,-0.39843 0,-0.34375 0.39843,-0.8711 1.92968,-4.3086 l 9.07032,0 c 1.76953,3.78125 2.00781,4.14844 2.00781,4.44141 0,0.13281 -0.13281,0.26562 -0.47656,0.26562 l 0,0.36719 5.26172,0 0,-0.36719 c -0.55469,0 -0.66016,-0.1875 -1.03125,-1.00781 l -7.66797,-16.41797 c -0.12891,-0.26172 -0.23828,-0.47265 -0.23828,-0.6875 0,-0.18359 0.16015,-0.34375 0.55859,-0.39453 l 0,-0.37109 -5.76563,0 0,0.37109 c 0.34375,0.0508 0.55469,0.18359 0.55469,0.47656 0,0.23828 -0.15625,0.52735 -0.28906,0.79297 l -7.21875,16.23047 c -0.37109,0.84766 -0.52734,0.98047 -1.00391,1.00781 l 0,0.36719 z m 26.99219,-16.125 6.3711,0 c 0.63281,0 0.89843,0.21094 0.89843,0.66016 l 0.3711,0 0,-4.41407 -0.3711,0 c 0,0.42188 -0.26562,0.63282 -0.89843,0.63282 l -16.4961,0 c -0.63672,0 -0.90234,-0.21094 -0.90234,-0.63282 l -0.36719,0 0,4.41407 0.36719,0 c 0,-0.44922 0.26562,-0.66016 0.90234,-0.66016 l 6.3711,0 0,14.96094 c 0,0.58203 -0.10547,0.79687 -0.79297,0.79687 l 0,0.36719 5.36718,0 0,-0.36719 c -0.6875,0 -0.82031,-0.21484 -0.82031,-0.79687 z m 0,0"
       id="path5"
       inkscape:connector-curvature="0" />
    <path
       style="fill:#eb1923;fill-opacity:1;fill-rule:nonzero;stroke:none"
       d="m 489.24609,320.30078 0,-0.36719 c -0.34375,0 -0.55468,-0.13281 -0.55468,-0.34375 0,-0.23828 0.10546,-0.32031 0.23828,-0.5039 l 4.67968,-6.02735 3.85938,5.10157 c 0.50391,0.66015 0.95312,1.1914 0.95312,1.42968 0,0.26172 -0.10546,0.34375 -0.5039,0.34375 l 0,0.36719 6.1875,0 0,-0.36719 c -0.71485,-0.0273 -0.89844,-0.39843 -1.42969,-1.11328 l -6.66016,-8.85547 5.76172,-7.42968 c 0.50391,-0.63282 0.84766,-1.08204 1.71875,-1.10938 l 0,-0.37109 -5.86718,0 0,0.37109 c 0.23828,0 0.44921,0.13281 0.44921,0.34375 0,0.15625 -0.16015,0.37109 -0.37109,0.66016 l -3.75391,4.83984 -3.59765,-4.8125 c -0.26172,-0.34375 -0.39453,-0.55469 -0.39453,-0.66016 0,-0.26562 0.21093,-0.37109 0.55468,-0.37109 l 0,-0.37109 -6.23828,0 0,0.37109 c 0.66016,0 0.89844,0.39453 1.0586,0.60938 l 6.23828,8.30078 -6.60938,8.48437 c -0.5039,0.66016 -0.6875,1.0586 -1.34765,1.11328 l 0,0.36719 z m 0,0"
       id="path7"
       inkscape:connector-curvature="0" />
    <path
       style="fill:#eb1923;fill-opacity:1;fill-rule:evenodd;stroke:none"
       d="m 434.44922,292.40234 c -14.75391,-9.33203 -27.16406,-23.10156 -26.44531,-46.7539 2.17578,4.32812 5.41406,7.85547 7.71484,10.07422 -3.86328,-5 -5.91016,-18.28516 -6.05078,-26.06641 5.58203,13.73437 13.48828,23.76953 24.08203,31.01562 4.10156,2.80079 10.08594,5.4961 12.11328,10.21094 0.6875,1.58985 0.70703,3.22656 -0.42578,4.74219 0.27344,2.76172 -1.05078,3.85156 -2.80469,4.22656 0.26172,-0.38672 0.84375,-0.0391 0.57813,-2.07422 -1.15625,-6.73828 -18.58203,-6.38281 -8.76172,14.625"
       id="path9"
       inkscape:connector-curvature="0" />
  </g>
</svg>
