<?xml version="1.0" encoding="UTF-8" standalone="no"?>
<!-- Generator: Adobe Illustrator 21.1.0, SVG Export Plug-In . SVG Version: 6.00 Build 0)  -->

<svg
   xmlns:dc="http://purl.org/dc/elements/1.1/"
   xmlns:cc="http://creativecommons.org/ns#"
   xmlns:rdf="http://www.w3.org/1999/02/22-rdf-syntax-ns#"
   xmlns:svg="http://www.w3.org/2000/svg"
   xmlns="http://www.w3.org/2000/svg"
   xmlns:sodipodi="http://sodipodi.sourceforge.net/DTD/sodipodi-0.dtd"
   xmlns:inkscape="http://www.inkscape.org/namespaces/inkscape"
   version="1.1"
   id="Ebene_1"
   x="0px"
   y="0px"
   viewBox="0 0 360 66"
   xml:space="preserve"
   sodipodi:docname="logo_li_red.svg"
   width="360"
   height="66"
   inkscape:version="0.92.1 r15371"><metadata
     id="metadata67"><rdf:RDF><cc:Work
         rdf:about=""><dc:format>image/svg+xml</dc:format><dc:type
           rdf:resource="http://purl.org/dc/dcmitype/StillImage" /><dc:title></dc:title></cc:Work></rdf:RDF></metadata><defs
     id="defs65" /><sodipodi:namedview
     pagecolor="#ffffff"
     bordercolor="#666666"
     borderopacity="1"
     objecttolerance="10"
     gridtolerance="10"
     guidetolerance="10"
     inkscape:pageopacity="0"
     inkscape:pageshadow="2"
     inkscape:window-width="853"
     inkscape:window-height="480"
     id="namedview63"
     showgrid="false"
     inkscape:zoom="1.1211401"
     inkscape:cx="212.77661"
     inkscape:cy="25.305543"
     inkscape:window-x="12"
     inkscape:window-y="108"
     inkscape:window-maximized="0"
     inkscape:current-layer="Ebene_1" /><style
     type="text/css"
     id="style2">
	.st0{fill:#B32C2E;}
</style><g
     id="g60"
     transform="translate(-54.129086,-362.53845)"><g
       id="g46"><path
         class="st0"
         d="m 72.2,420 c 0,0.3 -0.1,0.3 -0.3,0.3 h -4.1 c -0.3,0 -0.3,0 -0.3,-0.3 v -0.8 c 0,-0.3 0.1,-0.3 0.3,-0.3 h 1 v -7.5 h -1.1 v 1.5 c 0,0.2 -0.1,0.3 -0.3,0.3 h -0.9 c -0.2,0 -0.3,0 -0.3,-0.3 V 410 c 0,-0.2 0,-0.3 0.3,-0.3 h 6.7 c 0.2,0 0.3,0 0.3,0.3 v 2.9 c 0,0.2 -0.1,0.3 -0.3,0.3 h -0.9 c -0.2,0 -0.3,0 -0.3,-0.3 v -1.5 h -1.1 v 7.5 h 1 c 0.3,0 0.3,0 0.3,0.3 z"
         id="path4"
         inkscape:connector-curvature="0"
         style="fill:#b32c2e" /><path
         class="st0"
         d="m 88.3,420 c 0,0.3 0,0.3 -0.3,0.3 h -6.2 c -0.3,0 -0.3,0 -0.3,-0.3 v -0.8 c 0,-0.3 0.1,-0.3 0.3,-0.3 h 0.8 v -7.6 h -0.8 c -0.3,0 -0.3,0 -0.3,-0.3 v -1 c 0,-0.3 0.1,-0.3 0.3,-0.3 H 88 c 0.2,0 0.3,0 0.3,0.3 v 2.4 c 0,0.3 -0.1,0.3 -0.3,0.3 h -1 c -0.3,0 -0.3,0 -0.3,-0.3 v -0.9 h -2 v 2.6 h 2.6 c 0.3,0 0.3,0 0.3,0.3 v 1 c 0,0.3 -0.1,0.3 -0.3,0.3 h -2.6 v 3 h 2 v -1.1 c 0,-0.3 0,-0.3 0.3,-0.3 h 1 c 0.3,0 0.3,0 0.3,0.3 z"
         id="path6"
         inkscape:connector-curvature="0"
         style="fill:#b32c2e" /><path
         class="st0"
         d="m 103.6,419.6 c 0,0.5 -1.4,0.9 -2.7,0.9 -2.9,0 -4.2,-1.8 -4.2,-5.5 0,-3.6 1.4,-5.7 4.2,-5.7 1.1,0 2.6,0.4 2.6,1 v 2.1 c 0,0.2 -0.1,0.3 -0.3,0.3 h -1.1 c -0.2,0 -0.3,0 -0.3,-0.3 v -1.3 c -0.3,-0.1 -0.5,-0.1 -0.8,-0.1 -1.4,0 -2.1,0.9 -2.1,3.6 0,2.7 0.4,4.2 2.2,4.2 0.3,0 0.5,0 0.8,-0.1 v -1.4 c 0,-0.2 0,-0.3 0.3,-0.3 h 1.1 c 0.2,0 0.3,0.1 0.3,0.3 z"
         id="path8"
         inkscape:connector-curvature="0"
         style="fill:#b32c2e" /><path
         class="st0"
         d="m 121.1,420 c 0,0.3 -0.1,0.3 -0.3,0.3 h -3.6 c -0.3,0 -0.3,0 -0.3,-0.3 v -0.8 c 0,-0.3 0.1,-0.3 0.3,-0.3 h 0.7 v -3.2 h -3 v 3.2 h 0.7 c 0.3,0 0.3,0 0.3,0.3 v 0.8 c 0,0.3 -0.1,0.3 -0.3,0.3 H 112 c -0.3,0 -0.3,0 -0.3,-0.3 v -0.8 c 0,-0.3 0.1,-0.3 0.3,-0.3 h 0.8 v -7.6 H 112 c -0.3,0 -0.3,0 -0.3,-0.3 v -1 c 0,-0.3 0.1,-0.3 0.3,-0.3 h 3.6 c 0.3,0 0.3,0 0.3,0.3 v 0.8 c 0,0.3 -0.1,0.3 -0.3,0.3 H 115 v 2.8 h 3 v -2.8 h -0.7 c -0.3,0 -0.3,0 -0.3,-0.3 V 410 c 0,-0.3 0.1,-0.3 0.3,-0.3 h 3.6 c 0.3,0 0.3,0 0.3,0.3 v 0.8 c 0,0.3 -0.1,0.3 -0.3,0.3 H 120 v 7.6 h 0.8 c 0.3,0 0.3,0 0.3,0.3 z"
         id="path10"
         inkscape:connector-curvature="0"
         style="fill:#b32c2e" /><path
         class="st0"
         d="m 137.7,420 c 0,0.3 0,0.3 -0.3,0.3 h -1 c -0.2,0 -0.3,0 -0.4,-0.2 l -2.9,-5.3 c -0.5,-0.9 -0.6,-1.2 -0.9,-2.1 v 0 c 0,0.5 0.1,1 0.1,1.7 v 4.4 h 0.8 c 0.3,0 0.3,0 0.3,0.3 v 0.8 c 0,0.3 -0.1,0.3 -0.3,0.3 h -3.3 c -0.3,0 -0.3,0 -0.3,-0.3 v -0.8 c 0,-0.3 0.1,-0.3 0.3,-0.3 h 0.8 v -7.6 h -0.8 c -0.3,0 -0.3,0 -0.3,-0.3 V 410 c 0,-0.3 0.1,-0.3 0.3,-0.3 h 2.4 c 0.2,0 0.3,0 0.4,0.2 l 2.6,4.8 c 0.4,0.8 0.7,1.6 0.9,2.2 v 0 c 0,-0.5 -0.1,-1.5 -0.1,-2 v -3.8 h -0.8 c -0.3,0 -0.3,0 -0.3,-0.3 V 410 c 0,-0.3 0.1,-0.3 0.3,-0.3 h 3.3 c 0.3,0 0.3,0 0.3,0.3 v 0.8 c 0,0.3 -0.1,0.3 -0.3,0.3 h -0.8 z"
         id="path12"
         inkscape:connector-curvature="0"
         style="fill:#b32c2e" /><path
         class="st0"
         d="m 150.6,420.5 c -2.4,0 -3.9,-1.8 -3.9,-5.6 0,-3.8 1.5,-5.6 3.9,-5.6 2.4,0 3.9,1.8 3.9,5.6 0,3.8 -1.5,5.6 -3.9,5.6 z m 1.7,-5.5 c 0,-2.4 -0.5,-4 -1.7,-4 -1.2,0 -1.7,1.5 -1.7,4 0,2.4 0.5,3.9 1.7,3.9 1.2,0 1.7,-1.5 1.7,-3.9 z"
         id="path14"
         inkscape:connector-curvature="0"
         style="fill:#b32c2e" /><path
         class="st0"
         d="m 163.9,411.2 h -0.8 c -0.3,0 -0.3,0 -0.3,-0.3 V 410 c 0,-0.3 0.1,-0.3 0.3,-0.3 h 3.7 c 0.3,0 0.3,0 0.3,0.3 v 0.8 c 0,0.3 -0.1,0.3 -0.3,0.3 H 166 v 7.5 h 2.3 l 0.3,-1.2 c 0,-0.2 0.1,-0.3 0.2,-0.3 0.1,0 0.2,0 0.2,0 l 1,0.2 c 0.2,0 0.3,0.1 0.3,0.2 0,0.1 0,0.1 0,0.2 l -0.5,2.2 c 0,0.2 -0.1,0.3 -0.3,0.3 h -6.3 c -0.3,0 -0.3,0 -0.3,-0.3 v -0.8 c 0,-0.3 0.1,-0.3 0.3,-0.3 h 0.8 v -7.6 z"
         id="path16"
         inkscape:connector-curvature="0"
         style="fill:#b32c2e" /><path
         class="st0"
         d="m 182.1,420.5 c -2.4,0 -3.9,-1.8 -3.9,-5.6 0,-3.8 1.5,-5.6 3.9,-5.6 2.4,0 3.9,1.8 3.9,5.6 -0.1,3.8 -1.5,5.6 -3.9,5.6 z m 1.6,-5.5 c 0,-2.4 -0.5,-4 -1.7,-4 -1.2,0 -1.7,1.5 -1.7,4 0,2.4 0.5,3.9 1.7,3.9 1.2,0 1.7,-1.5 1.7,-3.9 z"
         id="path18"
         inkscape:connector-curvature="0"
         style="fill:#b32c2e" /><path
         class="st0"
         d="m 201.7,419.3 c 0,0.7 -1.8,1.2 -3.1,1.2 -2.7,0 -4.2,-1.8 -4.2,-5.5 0,-3.7 1.4,-5.6 4.2,-5.6 1.2,0 2.9,0.4 2.9,1.1 v 2 c 0,0.2 0,0.3 -0.3,0.3 H 200 c -0.2,0 -0.3,0 -0.3,-0.3 v -1.2 c -0.3,-0.1 -0.7,-0.2 -1.1,-0.2 -1.6,0 -2.1,1.5 -2.1,3.8 0,2.4 0.4,4 2.1,4 0.6,0 1,-0.2 1.1,-0.2 v -2.4 h -1.2 c -0.3,0 -0.3,0 -0.3,-0.3 v -1 c 0,-0.3 0.1,-0.3 0.3,-0.3 h 3.8 c 0.3,0 0.3,0 0.3,0.3 v 0.8 c 0,0.3 -0.1,0.3 -0.3,0.3 h -0.8 v 3.2 z"
         id="path20"
         inkscape:connector-curvature="0"
         style="fill:#b32c2e" /><path
         class="st0"
         d="m 216.9,420 c 0,0.3 -0.1,0.3 -0.3,0.3 h -4.2 c -0.3,0 -0.3,0 -0.3,-0.3 v -0.8 c 0,-0.3 0.1,-0.3 0.3,-0.3 h 1.1 V 416 l -2.5,-4.8 h -0.4 c -0.2,0 -0.3,0 -0.3,-0.3 v -1 c 0,-0.2 0,-0.3 0.3,-0.3 h 1.8 c 0.2,0 0.2,0 0.3,0.2 l 1.2,2.5 c 0.2,0.5 0.5,1.2 0.6,1.8 v 0 c 0.1,-0.6 0.4,-1.2 0.6,-1.8 l 1.2,-2.5 c 0.1,-0.2 0.1,-0.2 0.3,-0.2 h 1.7 c 0.2,0 0.3,0 0.3,0.3 v 1 c 0,0.2 0,0.3 -0.3,0.3 h -0.5 l -2.4,4.8 v 2.9 h 1.1 c 0.3,0 0.3,0 0.3,0.3 v 0.8 z"
         id="path22"
         inkscape:connector-curvature="0"
         style="fill:#b32c2e" /><path
         class="st0"
         d="m 248.4,420 c 0,0.3 -0.1,0.3 -0.3,0.3 h -3.2 c -0.3,0 -0.3,0 -0.3,-0.3 v -0.8 c 0,-0.3 0.1,-0.3 0.3,-0.3 h 0.7 l -0.1,-4.1 c 0,-0.6 0,-1.9 0,-2.5 v 0 c -0.1,0.6 -0.4,1.9 -0.5,2.4 l -0.9,3 c -0.1,0.2 -0.1,0.3 -0.3,0.3 h -1 c -0.3,0 -0.3,0 -0.3,-0.3 l -0.9,-3 c -0.2,-0.6 -0.4,-1.9 -0.5,-2.4 v 0 c 0,0.6 0,1.9 0,2.5 l -0.1,4.1 h 0.7 c 0.3,0 0.3,0 0.3,0.3 v 0.8 c 0,0.3 -0.1,0.3 -0.3,0.3 h -3.2 c -0.3,0 -0.3,0 -0.3,-0.3 v -0.8 c 0,-0.3 0.1,-0.3 0.3,-0.3 h 0.7 l 0.3,-7.6 h -0.7 c -0.3,0 -0.3,0 -0.3,-0.3 v -1 c 0,-0.3 0.1,-0.3 0.3,-0.3 h 2.6 c 0.2,0 0.3,0 0.3,0.2 l 1.3,3.9 c 0.2,0.7 0.3,1.3 0.4,1.9 v 0 c 0.1,-0.6 0.2,-1.1 0.4,-1.9 l 1.3,-3.9 c 0.1,-0.2 0.1,-0.2 0.3,-0.2 h 2.6 c 0.3,0 0.3,0 0.3,0.3 v 0.8 c 0,0.3 -0.1,0.3 -0.3,0.3 h -0.7 l 0.3,7.6 h 0.7 c 0.3,0 0.3,0 0.3,0.3 v 1 z"
         id="path24"
         inkscape:connector-curvature="0"
         style="fill:#b32c2e" /><path
         class="st0"
         d="m 263.5,420 c 0,0.3 0,0.3 -0.3,0.3 H 257 c -0.3,0 -0.3,0 -0.3,-0.3 v -0.8 c 0,-0.3 0.1,-0.3 0.3,-0.3 h 0.8 v -7.6 H 257 c -0.3,0 -0.3,0 -0.3,-0.3 v -1 c 0,-0.3 0.1,-0.3 0.3,-0.3 h 6.2 c 0.2,0 0.3,0 0.3,0.3 v 2.4 c 0,0.3 -0.1,0.3 -0.3,0.3 h -1 c -0.3,0 -0.3,0 -0.3,-0.3 v -0.9 h -2 v 2.6 h 2.6 c 0.3,0 0.3,0 0.3,0.3 v 1 c 0,0.3 -0.1,0.3 -0.3,0.3 h -2.6 v 3 h 2 v -1.1 c 0,-0.3 0,-0.3 0.3,-0.3 h 1 c 0.3,0 0.3,0 0.3,0.3 z"
         id="path26"
         inkscape:connector-curvature="0"
         style="fill:#b32c2e" /><path
         class="st0"
         d="m 278.8,420 c 0,0.3 0,0.3 -0.3,0.3 h -6.2 c -0.3,0 -0.3,0 -0.3,-0.3 v -0.8 c 0,-0.3 0.1,-0.3 0.3,-0.3 h 0.8 v -7.6 h -0.8 c -0.3,0 -0.3,0 -0.3,-0.3 v -1 c 0,-0.3 0.1,-0.3 0.3,-0.3 h 6.2 c 0.2,0 0.3,0 0.3,0.3 v 2.4 c 0,0.3 -0.1,0.3 -0.3,0.3 h -1 c -0.3,0 -0.3,0 -0.3,-0.3 v -0.9 h -2 v 2.6 h 2.6 c 0.3,0 0.3,0 0.3,0.3 v 1 c 0,0.3 -0.1,0.3 -0.3,0.3 h -2.6 v 3 h 2 v -1.1 c 0,-0.3 0,-0.3 0.3,-0.3 h 1 c 0.3,0 0.3,0 0.3,0.3 z"
         id="path28"
         inkscape:connector-curvature="0"
         style="fill:#b32c2e" /><path
         class="st0"
         d="m 293.1,420 c 0,0.3 -0.1,0.3 -0.3,0.3 h -4.1 c -0.3,0 -0.3,0 -0.3,-0.3 v -0.8 c 0,-0.3 0.1,-0.3 0.3,-0.3 h 1 v -7.5 h -1.1 v 1.5 c 0,0.2 -0.1,0.3 -0.3,0.3 h -0.9 c -0.2,0 -0.3,0 -0.3,-0.3 V 410 c 0,-0.2 0,-0.3 0.3,-0.3 h 6.7 c 0.2,0 0.3,0 0.3,0.3 v 2.9 c 0,0.2 -0.1,0.3 -0.3,0.3 h -0.9 c -0.2,0 -0.3,0 -0.3,-0.3 v -1.5 h -1.1 v 7.5 h 1 c 0.3,0 0.3,0 0.3,0.3 z"
         id="path30"
         inkscape:connector-curvature="0"
         style="fill:#b32c2e" /><path
         class="st0"
         d="m 306.6,411.3 c -0.2,-0.1 -0.5,-0.2 -1,-0.2 -0.7,0 -1.5,0.3 -1.5,1.2 0,1.2 1.8,1.4 3.2,2.4 0.8,0.6 1.3,1.4 1.3,2.6 0,2 -1.4,3.3 -3.3,3.3 -1.2,0 -3.2,-0.4 -3.2,-1.1 v -2.3 c 0,-0.2 0,-0.3 0.3,-0.3 h 1.1 c 0.2,0 0.3,0 0.3,0.3 v 1.4 c 0.2,0.1 0.8,0.3 1.5,0.3 0.9,0 1.4,-0.5 1.4,-1.4 0,-1.4 -1.6,-1.5 -3.2,-2.5 -0.8,-0.5 -1.3,-1.1 -1.3,-2.4 0,-2.2 1.6,-3.2 3.4,-3.2 1.1,0 2.8,0.4 2.8,1 v 2.1 c 0,0.2 -0.1,0.3 -0.3,0.3 H 307 c -0.2,0 -0.3,0 -0.3,-0.3 v -1.2 z"
         id="path32"
         inkscape:connector-curvature="0"
         style="fill:#b32c2e" /><path
         class="st0"
         d="m 332.9,411.3 c -0.2,-0.1 -0.5,-0.2 -1,-0.2 -0.7,0 -1.5,0.3 -1.5,1.2 0,1.2 1.8,1.4 3.2,2.4 0.8,0.6 1.3,1.4 1.3,2.6 0,2 -1.4,3.3 -3.3,3.3 -1.2,0 -3.2,-0.4 -3.2,-1.1 v -2.3 c 0,-0.2 0,-0.3 0.3,-0.3 h 1.1 c 0.2,0 0.3,0 0.3,0.3 v 1.4 c 0.2,0.1 0.8,0.3 1.5,0.3 0.9,0 1.4,-0.5 1.4,-1.4 0,-1.4 -1.6,-1.5 -3.2,-2.5 -0.8,-0.5 -1.3,-1.1 -1.3,-2.4 0,-2.2 1.6,-3.2 3.4,-3.2 1.1,0 2.8,0.4 2.8,1 v 2.1 c 0,0.2 -0.1,0.3 -0.3,0.3 h -1.1 c -0.2,0 -0.3,0 -0.3,-0.3 v -1.2 z"
         id="path34"
         inkscape:connector-curvature="0"
         style="fill:#b32c2e" /><path
         class="st0"
         d="m 347.5,420 c 0,0.3 -0.1,0.3 -0.3,0.3 h -3.9 c -0.3,0 -0.3,0 -0.3,-0.3 v -0.8 c 0,-0.3 0.1,-0.3 0.3,-0.3 h 0.8 v -7.6 h -0.8 c -0.3,0 -0.3,0 -0.3,-0.3 v -1 c 0,-0.3 0.1,-0.3 0.3,-0.3 h 3.6 c 1.3,0 3.6,0 3.6,2.9 0,2.6 -1.9,3.5 -3.5,3.5 h -0.8 v 2.8 h 1 c 0.3,0 0.3,0 0.3,0.3 z m -0.8,-5.6 c 0.9,0 1.8,-0.2 1.8,-1.7 0,-1.3 -0.8,-1.4 -1.6,-1.4 h -0.6 v 3.1 z"
         id="path36"
         inkscape:connector-curvature="0"
         style="fill:#b32c2e" /><path
         class="st0"
         d="m 363,420 c 0,0.3 -0.1,0.3 -0.3,0.3 H 359 c -0.3,0 -0.3,0 -0.3,-0.3 v -0.8 c 0,-0.3 0.1,-0.3 0.3,-0.3 h 0.8 v -7.6 H 359 c -0.3,0 -0.3,0 -0.3,-0.3 v -1 c 0,-0.3 0.1,-0.3 0.3,-0.3 h 3.7 c 0.3,0 0.3,0 0.3,0.3 v 0.8 c 0,0.3 -0.1,0.3 -0.3,0.3 h -0.8 v 7.6 h 0.8 c 0.3,0 0.3,0 0.3,0.3 z"
         id="path38"
         inkscape:connector-curvature="0"
         style="fill:#b32c2e" /><path
         class="st0"
         d="m 380,420 c 0,0.3 -0.1,0.3 -0.3,0.3 h -2 c -0.2,0 -0.2,0 -0.4,-0.2 l -2.1,-4.2 h -0.7 v 2.9 h 0.7 c 0.3,0 0.3,0 0.3,0.3 v 0.8 c 0,0.3 -0.1,0.3 -0.3,0.3 h -3.6 c -0.3,0 -0.3,0 -0.3,-0.3 v -0.8 c 0,-0.3 0.1,-0.3 0.3,-0.3 h 0.8 v -7.6 h -0.8 c -0.3,0 -0.3,0 -0.3,-0.3 V 410 c 0,-0.3 0.1,-0.3 0.3,-0.3 h 3.6 c 1.2,0 3.6,0.1 3.6,3 0,2 -1.2,2.6 -1.8,2.9 l 1.9,3.3 h 0.7 c 0.3,0 0.3,0 0.3,0.3 v 0.8 z m -5.1,-5.7 c 1,0 1.9,-0.2 1.9,-1.6 0,-1.3 -0.9,-1.4 -1.7,-1.4 h -0.6 v 3 z"
         id="path40"
         inkscape:connector-curvature="0"
         style="fill:#b32c2e" /><path
         class="st0"
         d="m 392.1,420 c 0,0.3 -0.1,0.3 -0.3,0.3 h -3.7 c -0.3,0 -0.3,0 -0.3,-0.3 v -0.8 c 0,-0.3 0.1,-0.3 0.3,-0.3 h 0.8 v -7.6 h -0.8 c -0.3,0 -0.3,0 -0.3,-0.3 v -1 c 0,-0.3 0.1,-0.3 0.3,-0.3 h 3.7 c 0.3,0 0.3,0 0.3,0.3 v 0.8 c 0,0.3 -0.1,0.3 -0.3,0.3 H 391 v 7.6 h 0.8 c 0.3,0 0.3,0 0.3,0.3 z"
         id="path42"
         inkscape:connector-curvature="0"
         style="fill:#b32c2e" /><path
         class="st0"
         d="m 406.3,420 c 0,0.3 -0.1,0.3 -0.3,0.3 h -4.1 c -0.3,0 -0.3,0 -0.3,-0.3 v -0.8 c 0,-0.3 0.1,-0.3 0.3,-0.3 h 1 v -7.5 h -1.1 v 1.5 c 0,0.2 -0.1,0.3 -0.3,0.3 h -0.9 c -0.2,0 -0.3,0 -0.3,-0.3 V 410 c 0,-0.2 0,-0.3 0.3,-0.3 h 6.7 c 0.2,0 0.3,0 0.3,0.3 v 2.9 c 0,0.2 -0.1,0.3 -0.3,0.3 h -0.9 c -0.2,0 -0.3,0 -0.3,-0.3 v -1.5 H 405 v 7.5 h 1 c 0.3,0 0.3,0 0.3,0.3 z"
         id="path44"
         inkscape:connector-curvature="0"
         style="fill:#b32c2e" /></g><g
       id="g58"><path
         class="st0"
         d="m 120.5,370.7 c -5.3,0 -9.7,4.3 -9.7,9.7 0,5.3 4.3,9.7 9.7,9.7 5.3,0 9.7,-4.3 9.7,-9.7 0,-5.4 -4.3,-9.7 -9.7,-9.7 m 0,13.6 c -2.2,0 -3.9,-1.8 -3.9,-3.9 0,-2.2 1.8,-3.9 3.9,-3.9 2.2,0 3.9,1.8 3.9,3.9 0.1,2.1 -1.7,3.9 -3.9,3.9 z"
         id="path48"
         inkscape:connector-curvature="0"
         style="fill:#b32c2e" /><path
         class="st0"
         d="m 157.2,382.1 c -0.7,1.3 -2,2.2 -3.5,2.2 -2.2,0 -3.9,-1.8 -3.9,-3.9 0,-2.2 1.8,-3.9 3.9,-3.9 1.5,0 2.9,0.9 3.5,2.2 h 6 c -0.8,-4.5 -4.8,-7.9 -9.5,-7.9 -5.3,0 -9.7,4.3 -9.7,9.7 0,5.3 4.3,9.7 9.7,9.7 4.7,0 8.7,-3.4 9.5,-7.9 h -6 z"
         id="path50"
         inkscape:connector-curvature="0"
         style="fill:#b32c2e" /><path
         class="st0"
         d="m 252.4,370.7 c -5.3,0 -9.7,4.3 -9.7,9.7 0,5.3 4.3,9.7 9.7,9.7 5.3,0 9.7,-4.3 9.7,-9.7 -0.1,-5.4 -4.4,-9.7 -9.7,-9.7 m 0,13.6 c -2.2,0 -3.9,-1.8 -3.9,-3.9 0,-2.2 1.8,-3.9 3.9,-3.9 2.2,0 3.9,1.8 3.9,3.9 0,2.1 -1.7,3.9 -3.9,3.9 z"
         id="path52"
         inkscape:connector-curvature="0"
         style="fill:#b32c2e" /><path
         class="st0"
         d="m 178.2,382.1 c -0.7,1.3 -2,2.2 -3.5,2.2 -2.2,0 -3.9,-1.8 -3.9,-3.9 0,-2.2 1.8,-3.9 3.9,-3.9 1.5,0 2.9,0.9 3.5,2.2 h 6 c -0.8,-4.5 -4.8,-7.9 -9.5,-7.9 -5.3,0 -9.7,4.3 -9.7,9.7 0,5.3 4.3,9.7 9.7,9.7 4.7,0 8.7,-3.4 9.5,-7.9 h -6 z"
         id="path54"
         inkscape:connector-curvature="0"
         style="fill:#b32c2e" /><polygon
         class="st0"
         points="67.3,376.7 67.3,389.6 73,389.6 73,376.7 79.4,376.7 79.4,371 60.9,371 60.9,376.7 "
         id="polygon56"
         style="fill:#b32c2e" /></g></g></svg>