<?xml version="1.0" encoding="UTF-8" standalone="no"?>
<!-- Generator: Adobe Illustrator 19.0.0, SVG Export Plug-In . SVG Version: 6.00 Build 0)  -->

<svg
   xmlns:dc="http://purl.org/dc/elements/1.1/"
   xmlns:cc="http://creativecommons.org/ns#"
   xmlns:rdf="http://www.w3.org/1999/02/22-rdf-syntax-ns#"
   xmlns:svg="http://www.w3.org/2000/svg"
   xmlns="http://www.w3.org/2000/svg"
   xmlns:sodipodi="http://sodipodi.sourceforge.net/DTD/sodipodi-0.dtd"
   xmlns:inkscape="http://www.inkscape.org/namespaces/inkscape"
   version="1.1"
   id="Layer_1"
   x="0px"
   y="0px"
   viewBox="0 0 478.29997 104.9"
   xml:space="preserve"
   sodipodi:docname="tvbeat.svg"
   width="478.29999"
   height="104.9"
   inkscape:version="0.92.1 r15371"><metadata
     id="metadata4587"><rdf:RDF><cc:Work
         rdf:about=""><dc:format>image/svg+xml</dc:format><dc:type
           rdf:resource="http://purl.org/dc/dcmitype/StillImage" /></cc:Work></rdf:RDF></metadata><defs
     id="defs4585" /><sodipodi:namedview
     pagecolor="#ffffff"
     bordercolor="#666666"
     borderopacity="1"
     objecttolerance="10"
     gridtolerance="10"
     guidetolerance="10"
     inkscape:pageopacity="0"
     inkscape:pageshadow="2"
     inkscape:window-width="2560"
     inkscape:window-height="1418"
     id="namedview4583"
     showgrid="false"
     inkscape:zoom="2.1238313"
     inkscape:cx="239.15001"
     inkscape:cy="90.217764"
     inkscape:window-x="0"
     inkscape:window-y="0"
     inkscape:window-maximized="0"
     inkscape:current-layer="Layer_1" /><style
     type="text/css"
     id="style4556">
	.st0{fill:#1C75BC;}
	.st1{opacity:0.8;fill:#1C75BC;}
	.st2{opacity:0.6;fill:#1C75BC;}
	.st3{opacity:0.4;fill:#1C75BC;}
	.st4{opacity:0.2;fill:#1C75BC;}
</style><g
     id="g4580"
     transform="translate(-44.299999,-231.1)"><path
       class="st0"
       d="m 176.8,258.9 h 20.5 l 7.9,53.8 30.2,-53.8 h 20.5 l -46.7,76.9 h -18.5 z"
       id="path4558"
       inkscape:connector-curvature="0"
       style="fill:#1c75bc" /><path
       d="m 263.1,231.1 h 19.4 l -9.2,46.1 c 8.3,-12.2 18.4,-18.3 30.4,-18.3 17,0 23.1,11.8 18.5,35.5 -5.6,27.6 -20.9,41.5 -45.9,41.5 -10.5,0 -21.7,-1 -33.4,-3.2 z m 2.1,86.9 c 4.2,1.4 9.2,2.1 15,2.1 11.7,0 19.3,-8.5 22.7,-25.6 2.6,-13 -0.4,-19.6 -9.1,-19.6 -8,0 -15.9,6.2 -23.7,18.6 z"
       id="path4560"
       inkscape:connector-curvature="0" /><path
       d="m 396.6,281.9 c -3.1,15.3 -14.9,23 -35.6,23 h -19.3 c -2.1,10.4 3.7,15.5 17.1,15.5 10.2,0 19.8,-3.2 28.9,-9.5 l -3.1,15.4 c -8.1,6.3 -18.2,9.5 -30.3,9.5 -25.4,0 -35.5,-13.1 -30.3,-39.3 5,-25 19.8,-37.6 44.4,-37.6 21.9,0 31.3,7.7 28.2,23 z m -52,8.8 H 364 c 8.1,0 12.6,-2.8 13.8,-8.3 1.1,-5.5 -3.1,-8.3 -12.5,-8.3 -10.7,0.1 -17.6,5.6 -20.7,16.6 z"
       id="path4562"
       inkscape:connector-curvature="0" /><path
       d="M 461.3,335.8 H 444 l 1.8,-19.8 c -8.4,13.2 -18.4,19.8 -29.9,19.8 -18,0 -24.5,-12.5 -19.5,-37.4 5.3,-26.3 21.2,-39.5 47.8,-39.5 8.9,0 19.5,1.1 31.7,3.1 z m -7.6,-59.4 c -2.9,-1.2 -7.8,-1.8 -14.6,-1.8 -12.5,0 -20.2,7.9 -23.4,23.7 -2.9,14.3 -0.5,21.5 7.2,21.5 9.5,0 18.2,-6.7 26.2,-20.1 z"
       id="path4564"
       inkscape:connector-curvature="0" /><path
       d="m 489.9,246.5 h 14.4 l 0.4,12.5 h 17.9 l -3.1,15.4 h -15.7 l -7.1,35.4 c -1.4,7.2 1,10.8 7.2,10.8 h 6.4 l -3.1,15.4 h -15.8 c -12.9,0 -17.9,-6.9 -15.2,-20.7 z"
       id="path4566"
       inkscape:connector-curvature="0" /><path
       class="st1"
       d="m 122.3,273.3 -12.5,62.6 c 0,0 4.3,0 9.7,0 5.4,0 11,-6.4 12.5,-14.3 l 9.6,-48.2 h -19.3 z"
       id="path4568"
       inkscape:connector-curvature="0"
       style="opacity:0.8;fill:#1c75bc" /><polygon
       class="st2"
       points="107.1,335.8 114.2,300.3 94.8,300.3 87.7,335.8 "
       id="polygon4570"
       style="opacity:0.6;fill:#1c75bc" /><polygon
       class="st3"
       points="85.4,335.8 89.4,315.7 70,315.7 66,335.8 "
       id="polygon4572"
       style="opacity:0.4;fill:#1c75bc" /><polygon
       class="st4"
       points="63.7,335.8 65.9,324.9 46.5,324.9 44.3,335.8 "
       id="polygon4574"
       style="opacity:0.2;fill:#1c75bc" /><line
       class="st4"
       x1="63.700001"
       y1="335.79999"
       x2="44.299999"
       y2="335.79999"
       id="line4576"
       style="opacity:0.2;fill:#1c75bc" /><path
       class="st0"
       d="m 149.9,246.5 h 14.4 l 0.4,12.5 h 17.9 l -3.1,15.4 h -15.7 l -7.1,35.4 c -1.4,7.2 1,10.8 7.2,10.8 h 6.4 l -3.1,15.4 h -15.8 c -12.9,0 -17.9,-6.9 -15.2,-20.7 z"
       id="path4578"
       inkscape:connector-curvature="0"
       style="fill:#1c75bc" /></g></svg>