<svg xmlns="http://www.w3.org/2000/svg" viewBox="0 0 249.57 341.26"><defs><style>.cls-1{fill:#f7941d;}.cls-2{fill:#fbb040;}.cls-3{fill:#231f20;}</style></defs><title>Asset 2</title><g id="Layer_2" data-name="Layer 2"><g id="Layer_2-2" data-name="Layer 2"><polygon class="cls-1" points="124.78 126.64 0 181.7 0 55.05 124.78 0 124.78 126.64"/><polygon class="cls-2" points="249.57 55.05 124.78 0 124.78 126.64 249.57 181.7 249.57 55.05"/><path class="cls-3" d="M40.44,223.85c0-1.08-.14-1.36-1.15-1.44l-4.52-.5V218h17.8v3.88l-4.81.57c-1.08.14-1.15.29-1.15,1.36v28.78c0,12.42-6.89,18.23-19.16,18.23-13.35,0-18.59-6.32-18.59-18.37V223.85c0-1.08-.14-1.36-1.15-1.44l-4.52-.5V218H21.42v3.88l-4.81.57c-1.08.14-1.15.29-1.15,1.36V251.7c0,9.69,4.09,13.57,12.42,13.57s12.56-3.37,12.56-13.35Z"/><path class="cls-3" d="M55.52,285.21v-3.95l2.94-.43c1-.14,1.22-.36,1.22-1.44V239.78c0-.79-.22-1.29-.93-1.51l-4.09-1.36.65-3.8h9.47l.65,4.16.22.07c3.95-2.94,8-5,12.85-5,8,0,13.49,5.17,13.49,17.8C92,261,88.31,270.86,77,270.86a15.46,15.46,0,0,1-10.91-3.95v12.42c0,1.15.07,1.36,1.15,1.44l6.75.57v3.88Zm10.62-24.4c2.44,2.37,6,4.67,9.83,4.67,6.82,0,9.4-5.67,9.4-14.71,0-9.76-3.8-12.85-8.25-12.85s-8.9,2.8-11,4.45Z"/><path class="cls-3" d="M121.33,268.63a27.14,27.14,0,0,1-10,2.23c-6.89,0-10-3.23-10-9.69V238.78c0-.43,0-.72-.57-.72H95.56V233.9c5.6-.72,7.18-2.94,8.11-10.26h4.23v8.76c0,.43,0,.72.57.72H119v5H107.9v21.17c0,4.52,1.08,6.24,5.17,6.24a18.83,18.83,0,0,0,6.68-1.44Z"/><path class="cls-3" d="M125.32,270v-3.95l4.74-.43c1-.07,1.15-.36,1.15-1.44v-24.4c0-.79-.22-1.29-.93-1.51l-4.09-1.36.65-3.8h10.91v31.08c0,1.15.07,1.29,1.15,1.44l4.59.5V270Zm8.18-44.86c-2.94,0-4.67-1.65-4.67-4.59s1.72-4.52,4.67-4.52,4.59,1.65,4.59,4.52S136.44,225.14,133.5,225.14Z"/><path class="cls-3" d="M191.76,270v-3.95l3.44-.43c.93-.07,1.29-.43,1.29-1.44v-17.3c0-4.52-1-8.83-6.1-8.83-3.88,0-7.25,1.94-9.47,3.52a40.41,40.41,0,0,1,.22,4.38v18.23c0,1.15.07,1.29,1.15,1.44l3.52.5V270H169.87v-3.95l3.44-.43c.93-.07,1.29-.43,1.29-1.44V246.82c0-4.09-.29-8.76-5.45-8.76-3.73,0-7.54,2.23-10.26,4.45v21.67c0,1.15.07,1.29,1.15,1.44l3.88.5V270H147.62v-3.95l3.59-.43c1-.14,1.15-.36,1.15-1.44v-24.4c0-.79-.22-1.29-.93-1.51l-4.09-1.36.65-3.8h9.4l.57,4.23.22.07c3.8-2.94,7.32-5,12.7-5,3.45,0,7,1.22,8.83,4.59a21.48,21.48,0,0,1,12.7-4.59c8.18,0,10.62,5,10.62,13.35v18.45c0,1.15.07,1.29,1.15,1.44l4.09.5V270Z"/><path class="cls-3" d="M241.08,267.63A26.25,26.25,0,0,1,228,270.86c-13,0-17.22-8.54-17.22-19.23,0-13.13,7.32-19.23,16.36-19.23,8.76,0,14.78,4.74,14.78,17.15,0,.93-.07,2.37-.14,3.59H217.69c.22,7.25,3.16,12.2,11,12.2A20.66,20.66,0,0,0,239,262.75Zm-5.67-19.45c-.14-8.18-3.88-10.55-8.25-10.55-4.81,0-8.83,2.58-9.4,10.55Z"/><path class="cls-3" d="M16.94,340.54,4.14,302c-.24-.72-.72-.84-1.44-1L0,300.3l.6-3.24H14.65v3.24l-4.92.54,11,35,11.23-35-4.87-.54.6-3.24H40.78v3.24l-2.52.66a1.78,1.78,0,0,0-1.5,1.14L24.38,340.54Z"/><path class="cls-3" d="M64.28,338.56a22,22,0,0,1-10.93,2.7c-10.87,0-14.41-7.15-14.41-16.1,0-11,6.13-16.1,13.69-16.1C60,309.07,65,313,65,323.43c0,.78-.06,2-.12,3H44.7c.18,6.07,2.64,10.21,9.19,10.21a17.29,17.29,0,0,0,8.65-2.16Zm-4.75-16.28c-.12-6.85-3.24-8.83-6.91-8.83-4,0-7.39,2.16-7.87,8.83Z"/><path class="cls-3" d="M88.59,340.54v-3.3l2.88-.36c.78-.06,1.08-.36,1.08-1.2V321.44c0-3.9-.78-7.69-5.22-7.69-3.42,0-6.67,1.68-9.31,3.84v18.08c0,1,.06,1.08,1,1.2l3.36.42v3.24H68.59v-3.3l3-.36c.84-.12,1-.3,1-1.2V315.26c0-.66-.18-1.08-.78-1.26l-3.42-1.14.54-3.18h7.87l.48,3.54.18.06c3.12-2.22,6.79-4.2,11.11-4.2,6.91,0,9.49,4.44,9.49,11v15.62c0,1,.06,1.08,1,1.2l3.42.42v3.24Z"/><path class="cls-3" d="M124.37,339.4a22.72,22.72,0,0,1-8.35,1.86c-5.77,0-8.35-2.7-8.35-8.11V314.42c0-.36,0-.6-.48-.6H102.8v-3.48c4.68-.6,6-2.46,6.79-8.59h3.54v7.33c0,.36,0,.6.48.6h8.83v4.14h-9.31v17.72c0,3.78.9,5.23,4.32,5.23a15.75,15.75,0,0,0,5.59-1.2Z"/><path class="cls-3" d="M151.8,340.54l-.48-4.08-.12-.06c-2.76,2.34-6.31,4.87-11.59,4.87-6.61,0-8.65-4-8.65-10.93V315.08c0-1-.06-1.2-1-1.38l-3.12-.78.48-3.24h9.07v19.4c0,5.22.9,7.75,4.68,7.75,4.08,0,7.57-2.82,9.67-5.23V315c0-1-.06-1.14-1-1.32l-3-.78.48-3.24h8.95v25.95c0,.9.18,1.2.84,1.26l3.18.42v3.24Z"/><path class="cls-3" d="M164.19,340.54v-3.3l3-.36c.84-.12,1-.3,1-1.2V315.26c0-.66-.18-1.08-.78-1.26l-3.42-1.14.54-3.18h7.87l.6,4.14.18.06c2-2.22,4.93-4.8,9-4.8a18.94,18.94,0,0,1,4.32.54v9.07l-4.26-.18-.72-4.14c-.06-.48-.18-.6-.72-.6-2.7,0-5.77,2.46-7.15,3.78v18.08c0,1,.06,1.14,1,1.2l5.53.48v3.24Z"/><path class="cls-3" d="M214.91,338.56a22,22,0,0,1-10.93,2.7c-10.87,0-14.41-7.15-14.41-16.1,0-11,6.13-16.1,13.69-16.1,7.33,0,12.37,4,12.37,14.35,0,.78-.06,2-.12,3H195.33c.18,6.07,2.64,10.21,9.19,10.21a17.29,17.29,0,0,0,8.65-2.16Zm-4.75-16.28c-.12-6.85-3.24-8.83-6.91-8.83-4,0-7.39,2.16-7.87,8.83Z"/><path class="cls-3" d="M237.58,318.26l-.72-3.72c-.06-.42-.12-.66-.6-.78a15.6,15.6,0,0,0-4.69-.66c-4.38,0-6.37,1.92-6.37,4.5,0,3.42,3.6,4.14,7.51,5.17,4.68,1.2,9.79,2.64,9.79,9.13,0,7-5.83,9.37-12.19,9.37-4.86,0-9.79-1.38-10.87-2v-8l4,.24.72,4.14a.88.88,0,0,0,.72.84,16.94,16.94,0,0,0,5.89,1c4,0,6.61-1.5,6.61-4.75,0-3.6-3.42-4.44-7.27-5.34-4.68-1.08-10-2.28-10-8.89,0-6.85,5.77-9.37,12-9.37a27.76,27.76,0,0,1,9.49,1.68v7.75Z"/></g></g></svg>