<?xml version="1.0" encoding="UTF-8" standalone="no"?>
<svg
   xmlns:dc="http://purl.org/dc/elements/1.1/"
   xmlns:cc="http://creativecommons.org/ns#"
   xmlns:rdf="http://www.w3.org/1999/02/22-rdf-syntax-ns#"
   xmlns:svg="http://www.w3.org/2000/svg"
   xmlns="http://www.w3.org/2000/svg"
   viewBox="0 0 1370 1050"
   height="1050"
   width="1370"
   xml:space="preserve"
   version="1.1"
   id="svg2"><metadata
     id="metadata8"><rdf:RDF><cc:Work
         rdf:about=""><dc:format>image/svg+xml</dc:format><dc:type
           rdf:resource="http://purl.org/dc/dcmitype/StillImage" /></cc:Work></rdf:RDF></metadata><defs
     id="defs6" /><g
     transform="matrix(1.25,0,0,-1.25,0,1050)"
     id="g10"><g
       transform="scale(0.1,0.1)"
       id="g12"><path
         id="path14"
         style="fill:#971a1f;fill-opacity:1;fill-rule:nonzero;stroke:none"
         d="m 8131.99,4969.98 0,-567.99 c 44.03,43.99 88.01,76 128.01,91.99 48.01,24.01 104.02,32 160,32 111.99,4 204.02,-27.99 280,-87.99 80,-68.01 120,-156 120,-264.01 l 0,-711.99 -188.01,0 0,611.99 c 0,83.99 -20,148.01 -63.98,196 -43.99,48.01 -96.02,76 -160,76 -96.02,0 -168.01,-36 -220,-100 -36.02,-56 -56.02,-132 -56.02,-235.98 l 0,-548.01 -191.99,0 0,1507.99 191.99,0" /><path
         id="path16"
         style="fill:#971a1f;fill-opacity:1;fill-rule:nonzero;stroke:none"
         d="m 5432.01,4057.97 c 0,-127.97 -24,-231.99 -68.01,-311.99 -51.99,-88.01 -131.99,-132 -235.99,-132 -84.01,0 -156,16.02 -211.99,52 -80,51.99 -128.01,144.02 -144.01,268 l -4,32 c 0,104.02 31.99,188 100,256.01 60,56 128.01,87.99 208.01,87.99 l 355.99,0 0,-252.01 z m 0,896.01 0,-460 -404,0 c -100,-4 -191.99,-48 -280,-124 -64.01,-60 -111.99,-136 -136,-219.98 -40,-124.02 -40,-248.01 0,-372.03 20,-60 51.99,-115.98 96,-171.99 91.99,-115.98 228.01,-172 408.01,-172 l 20,0 c 163.98,0 295.99,68.01 391.99,200 71.99,100 111.99,212 111.99,323.99 l 0,996.01 -207.99,0" /><path
         id="path18"
         style="fill:#971a1f;fill-opacity:1;fill-rule:nonzero;stroke:none"
         d="m 4188.01,3461.99 204,0 0,1507.99 -204,0 0,-1507.99 z" /><path
         id="path20"
         style="fill:#971a1f;fill-opacity:1;fill-rule:nonzero;stroke:none"
         d="m 6064.02,4693.98 c 32,52 87.97,80 172,80 l 135.97,0 0,180 -167.97,0 c -88,0 -160,-20 -220,-64 -88,-64 -132.03,-164 -132.03,-304 l 0,-1123.99 184.03,0 0,831.99 303.98,0 0,184.01 -303.98,0 0,47.99 c 0,76.01 8,132.01 28,168" /><path
         id="path22"
         style="fill:#971a1f;fill-opacity:1;fill-rule:nonzero;stroke:none"
         d="m 6524.02,4809.98 c -24.02,-16 -36.01,-40 -36.01,-76 0,-35.99 16.01,-64 36.01,-84 23.99,-20 52,-27.99 83.99,-27.99 31.99,0 60,7.99 83.98,27.99 24.03,20 32.03,48.01 32.03,84 0,32 -12.03,56 -36.01,76 -23.99,20 -48.01,28.01 -80,28.01 -36.02,0 -63.99,-8.01 -83.99,-28.01" /><path
         id="path24"
         style="fill:#971a1f;fill-opacity:1;fill-rule:nonzero;stroke:none"
         d="m 7060,4445.98 c -80,-40 -115.98,-112 -115.98,-220 0,-83.99 23.99,-148.01 75.98,-200 48.01,-43.99 120,-80 220,-108.01 144.02,-35.98 240,-67.97 280,-95.98 36.02,-24.02 56.02,-51.99 56.02,-88.01 0,-36.01 -16.02,-60 -44.03,-71.99 -20,-11.99 -51.99,-16.01 -91.99,-16.01 l -495.98,0 0,-183.99 492,-4.02 c 91.99,0 168,16.01 223.98,44.02 80,43.99 120,120 120,231.99 0,83.99 -23.98,152 -71.99,200 -48.01,48.01 -131.99,96.02 -256.02,140 -35.97,12 -103.98,32 -200,56.02 -75.97,27.97 -115.97,63.98 -115.97,111.99 0,36 15.97,56 51.99,67.99 31.99,12.01 76.01,20 136.01,20 l 403.99,0 0,164 -388.01,0 c -128.01,0 -220,-15.99 -280,-48" /><path
         id="path26"
         style="fill:#971a1f;fill-opacity:1;fill-rule:nonzero;stroke:none"
         d="m 6508.01,3461.99 183.977,0 0,1031.99 -183.977,0 0,-1031.99 z" /><path
         id="path28"
         style="fill:#971a1f;fill-opacity:1;fill-rule:nonzero;stroke:none"
         d="m 3724,4733.98 c 0,-35.99 12.02,-64 36,-84 24,-20 48.01,-27.99 84,-27.99 28.01,0 56,7.99 80,27.99 24.01,20 36,48.01 36,84 0,32 -16,56 -36,76 -24,20 -51.99,28.01 -80,28.01 -40,0 -67.98,-8.01 -87.98,-28.01 -24.01,-16 -32.02,-40 -32.02,-76" /><path
         id="path30"
         style="fill:#971a1f;fill-opacity:1;fill-rule:nonzero;stroke:none"
         d="m 3476.02,3757.97 0,736.01 -180,0 0,-623.98 c 0,-76.02 -12.02,-136.02 -44.01,-176.02 C 3220,3650 3176.02,3630 3124,3630 c -60,0 -104,11.99 -140,40 -40,31.99 -60,87.97 -60,163.98 l 0,660 -204,0 0,-623.98 c 0,-92.03 -16,-156.02 -43.98,-188.01 -32.02,-36.01 -88.01,-51.99 -160,-51.99 -56.02,0 -96.02,23.98 -128.01,63.98 -28.01,40 -40,83.99 -40,140 l 0,660 -200,0 0,-691.99 c 0,-80 28.01,-156.01 80,-228.01 68.01,-96.01 164,-140 288.01,-140 71.99,0 140,16.02 195.99,43.99 44.01,28.01 80,64.02 107.99,104.02 44,-56.01 88.01,-96.01 136.02,-116.01 43.98,-20 107.98,-32 187.98,-32 76,0 148.01,32 220,92 76,68 112.02,144.02 112.02,231.99" /><path
         id="path32"
         style="fill:#971a1f;fill-opacity:1;fill-rule:nonzero;stroke:none"
         d="m 3740,3461.99 184,0 0,1031.99 -184,0 0,-1031.99 z" /><path
         id="path34"
         style="fill:none;stroke:#100f0d;stroke-width:5;stroke-linecap:butt;stroke-linejoin:miter;stroke-miterlimit:4;stroke-dasharray:none;stroke-opacity:1"
         d="M 270,360 0,360" /><path
         id="path36"
         style="fill:none;stroke:#100f0d;stroke-width:5;stroke-linecap:butt;stroke-linejoin:miter;stroke-miterlimit:4;stroke-dasharray:none;stroke-opacity:1"
         d="M 360,270 360,0" /><path
         id="path38"
         style="fill:none;stroke:#100f0d;stroke-width:5;stroke-linecap:butt;stroke-linejoin:miter;stroke-miterlimit:4;stroke-dasharray:none;stroke-opacity:1"
         d="M 270,8040 0,8040" /><path
         id="path40"
         style="fill:none;stroke:#100f0d;stroke-width:5;stroke-linecap:butt;stroke-linejoin:miter;stroke-miterlimit:4;stroke-dasharray:none;stroke-opacity:1"
         d="m 360,8130 0,270" /><path
         id="path42"
         style="fill:none;stroke:#100f0d;stroke-width:5;stroke-linecap:butt;stroke-linejoin:miter;stroke-miterlimit:4;stroke-dasharray:none;stroke-opacity:1"
         d="m 10690,8040 270,0" /><path
         id="path44"
         style="fill:none;stroke:#100f0d;stroke-width:5;stroke-linecap:butt;stroke-linejoin:miter;stroke-miterlimit:4;stroke-dasharray:none;stroke-opacity:1"
         d="m 10600,8130 0,270" /><path
         id="path46"
         style="fill:none;stroke:#100f0d;stroke-width:5;stroke-linecap:butt;stroke-linejoin:miter;stroke-miterlimit:4;stroke-dasharray:none;stroke-opacity:1"
         d="m 10690,360 270,0" /><path
         id="path48"
         style="fill:none;stroke:#100f0d;stroke-width:5;stroke-linecap:butt;stroke-linejoin:miter;stroke-miterlimit:4;stroke-dasharray:none;stroke-opacity:1"
         d="m 10600,270 0,-270" /></g></g></svg>